<?xml version="1.0" encoding="utf-8"?>
<!-- Generator: Adobe Illustrator 19.1.0, SVG Export Plug-In . SVG Version: 6.00 Build 0)  -->
<svg version="1.1" id="Layer_2" xmlns="http://www.w3.org/2000/svg" xmlns:xlink="http://www.w3.org/1999/xlink" x="0px" y="0px"
	 width="342px" height="289px" viewBox="0 0 342 289" style="enable-background:new 0 0 342 289;" xml:space="preserve">
<style type="text/css">
	.st0{fill:none;stroke:#000000;stroke-width:0.5;stroke-linecap:round;stroke-linejoin:round;stroke-miterlimit:10;}
	.st1{fill:none;stroke:#000000;stroke-width:0.48;stroke-linecap:round;stroke-linejoin:round;stroke-miterlimit:10;}
	.st2{fill:none;stroke:#000000;stroke-width:0.503;stroke-linecap:round;stroke-linejoin:round;stroke-miterlimit:10;}
	.st3{fill:none;stroke:#000000;stroke-width:0.4829;stroke-linecap:round;stroke-linejoin:round;stroke-miterlimit:10;}
	.st4{fill:#FFFFFF;}
	.st5{font-family:'Arial-BoldMT';}
	.st6{font-size:11.2058px;}
	.st7{fill:none;stroke:#000000;stroke-width:0.25;stroke-miterlimit:10;}
	.st8{fill:#FFFFFF;stroke:#000000;stroke-width:0.25;stroke-miterlimit:10;}
	.st9{fill:none;stroke:#000000;stroke-width:0.4839;stroke-linecap:round;stroke-linejoin:round;stroke-miterlimit:10;}
	.st10{fill:none;stroke:#000000;stroke-width:0.4851;stroke-linecap:round;stroke-linejoin:round;stroke-miterlimit:10;}
	.st11{fill:none;stroke:#000000;stroke-width:0.4809;stroke-linecap:round;stroke-linejoin:round;stroke-miterlimit:10;}
	.st12{fill:#FFFFFF;stroke:#000000;stroke-width:0.5;stroke-linecap:round;stroke-linejoin:round;stroke-miterlimit:10;}
	.st13{fill:none;stroke:#000000;stroke-width:0.25;stroke-linecap:round;stroke-linejoin:round;stroke-miterlimit:10;}
	.st14{fill:#FFFFFF;stroke:#000000;stroke-width:0.25;stroke-linecap:round;stroke-linejoin:round;stroke-miterlimit:10;}
	.st15{fill:none;stroke:#FFFFFF;stroke-width:1.5;stroke-linecap:round;stroke-linejoin:round;stroke-miterlimit:10;}
	
		.st16{fill:none;stroke:#000000;stroke-width:0.5343;stroke-linecap:round;stroke-linejoin:round;stroke-miterlimit:10;stroke-dasharray:2;}
</style>
<line class="st0" x1="42.2" y1="254" x2="42.3" y2="152"/>
<polyline class="st0" points="48.6,137.8 48.7,80.3 38,79.5 37.9,142.2 37.8,193.7 37.8,254 48.5,254.4 48.5,154.5 "/>
<polyline class="st0" points="50.5,155.2 50.5,253.4 48.5,254.4 "/>
<polyline class="st0" points="50.6,136.8 50.7,76.8 42.4,80 42.3,140.2 "/>
<polyline class="st0" points="38,79.3 45.4,76 50.7,76.8 "/>
<g>
	
		<ellipse transform="matrix(0.9971 7.593594e-02 -7.593594e-02 0.9971 6.9696 -3.2072)" class="st1" cx="45.7" cy="90" rx="1" ry="1"/>
	
		<ellipse transform="matrix(0.9971 7.593594e-02 -7.593594e-02 0.9971 7.191 -3.1988)" class="st1" cx="45.7" cy="93" rx="1" ry="1"/>
	
		<ellipse transform="matrix(0.9971 7.593594e-02 -7.593594e-02 0.9971 7.4123 -3.1904)" class="st1" cx="45.7" cy="95.9" rx="1" ry="1"/>
</g>
<g>
	
		<ellipse transform="matrix(0.9971 7.593594e-02 -7.593594e-02 0.9971 6.4446 -3.2272)" class="st1" cx="45.7" cy="83.1" rx="1" ry="1"/>
	
		<ellipse transform="matrix(0.9971 7.593594e-02 -7.593594e-02 0.9971 6.6659 -3.2187)" class="st1" cx="45.7" cy="86" rx="1" ry="1"/>
</g>
<g>
	
		<ellipse transform="matrix(0.9971 7.593594e-02 -7.593594e-02 0.9971 7.7109 -3.179)" class="st1" cx="45.7" cy="99.8" rx="1" ry="1"/>
	
		<ellipse transform="matrix(0.9971 7.593594e-02 -7.593594e-02 0.9971 7.9322 -3.1706)" class="st1" cx="45.7" cy="102.7" rx="1" ry="1"/>
	
		<ellipse transform="matrix(0.9971 7.593594e-02 -7.593594e-02 0.9971 8.1536 -3.1622)" class="st1" cx="45.7" cy="105.6" rx="1" ry="1"/>
</g>
<g>
	
		<ellipse transform="matrix(0.9971 7.593594e-02 -7.593594e-02 0.9971 8.4521 -3.1508)" class="st1" cx="45.7" cy="109.6" rx="1" ry="1"/>
	
		<ellipse transform="matrix(0.9971 7.593594e-02 -7.593594e-02 0.9971 8.6735 -3.1424)" class="st1" cx="45.7" cy="112.5" rx="1" ry="1"/>
	
		<ellipse transform="matrix(0.9971 7.593594e-02 -7.593594e-02 0.9971 8.8948 -3.134)" class="st1" cx="45.7" cy="115.4" rx="1" ry="1"/>
</g>
<g>
	
		<ellipse transform="matrix(0.9971 7.593594e-02 -7.593594e-02 0.9971 9.1934 -3.1226)" class="st1" cx="45.7" cy="119.3" rx="1" ry="1"/>
	
		<ellipse transform="matrix(0.9971 7.593594e-02 -7.593594e-02 0.9971 9.4147 -3.1142)" class="st1" cx="45.7" cy="122.2" rx="1" ry="1"/>
	
		<ellipse transform="matrix(0.9971 7.593594e-02 -7.593594e-02 0.9971 9.636 -3.1058)" class="st1" cx="45.7" cy="125.2" rx="1" ry="1"/>
</g>
<g>
	
		<ellipse transform="matrix(0.9971 7.593594e-02 -7.593594e-02 0.9971 9.9346 -3.0945)" class="st1" cx="45.7" cy="129.1" rx="1" ry="1"/>
	
		<ellipse transform="matrix(0.9971 7.593594e-02 -7.593594e-02 0.9971 10.1559 -3.086)" class="st1" cx="45.7" cy="132" rx="1" ry="1"/>
	
		<ellipse transform="matrix(0.9971 7.593594e-02 -7.593594e-02 0.9971 10.3773 -3.0776)" class="st1" cx="45.7" cy="134.9" rx="1" ry="1"/>
</g>
<g>
	
		<ellipse transform="matrix(0.9971 7.593594e-02 -7.593594e-02 0.9971 11.8675 -3.021)" class="st1" cx="45.7" cy="154.5" rx="1" ry="1"/>
</g>
<g>
	
		<ellipse transform="matrix(0.9971 7.593594e-02 -7.593594e-02 0.9971 12.1698 -3.0095)" class="st1" cx="45.7" cy="158.5" rx="1" ry="1"/>
	
		<ellipse transform="matrix(0.9971 7.593594e-02 -7.593594e-02 0.9971 12.3912 -3.0011)" class="st1" cx="45.7" cy="161.4" rx="1" ry="1"/>
	
		<ellipse transform="matrix(0.9971 7.593594e-02 -7.593594e-02 0.9971 12.6125 -2.9926)" class="st1" cx="45.7" cy="164.4" rx="1" ry="1"/>
</g>
<g>
	
		<ellipse transform="matrix(0.9971 7.593594e-02 -7.593594e-02 0.9971 12.9149 -2.9811)" class="st1" cx="45.7" cy="168.3" rx="1" ry="1"/>
	
		<ellipse transform="matrix(0.9971 7.593594e-02 -7.593594e-02 0.9971 13.1363 -2.9727)" class="st1" cx="45.7" cy="171.3" rx="1" ry="1"/>
	
		<ellipse transform="matrix(0.9971 7.593594e-02 -7.593594e-02 0.9971 13.3576 -2.9643)" class="st1" cx="45.7" cy="174.2" rx="1" ry="1"/>
</g>
<g>
	
		<ellipse transform="matrix(0.9971 7.593594e-02 -7.593594e-02 0.9971 13.66 -2.9528)" class="st1" cx="45.7" cy="178.2" rx="1" ry="1"/>
	
		<ellipse transform="matrix(0.9971 7.593594e-02 -7.593594e-02 0.9971 13.8814 -2.9444)" class="st1" cx="45.7" cy="181.1" rx="1" ry="1"/>
	
		<ellipse transform="matrix(0.9971 7.593594e-02 -7.593594e-02 0.9971 14.1027 -2.936)" class="st1" cx="45.7" cy="184" rx="1" ry="1"/>
</g>
<g>
	
		<ellipse transform="matrix(0.9971 7.593594e-02 -7.593594e-02 0.9971 14.4051 -2.9245)" class="st1" cx="45.7" cy="188" rx="1" ry="1"/>
	
		<ellipse transform="matrix(0.9971 7.593594e-02 -7.593594e-02 0.9971 14.6264 -2.9161)" class="st1" cx="45.7" cy="190.9" rx="1" ry="1"/>
	
		<ellipse transform="matrix(0.9971 7.593594e-02 -7.593594e-02 0.9971 14.8478 -2.9076)" class="st1" cx="45.7" cy="193.8" rx="1" ry="1"/>
</g>
<g>
</g>
<g>
	
		<ellipse transform="matrix(0.9971 7.593594e-02 -7.593594e-02 0.9971 15.1233 -2.8972)" class="st1" cx="45.7" cy="197.4" rx="1" ry="1"/>
	
		<ellipse transform="matrix(0.9971 7.593594e-02 -7.593594e-02 0.9971 15.3446 -2.8888)" class="st1" cx="45.7" cy="200.3" rx="1" ry="1"/>
	
		<ellipse transform="matrix(0.9971 7.593594e-02 -7.593594e-02 0.9971 15.566 -2.8803)" class="st1" cx="45.7" cy="203.3" rx="1" ry="1"/>
</g>
<g>
	
		<ellipse transform="matrix(0.9971 7.593594e-02 -7.593594e-02 0.9971 15.8645 -2.869)" class="st1" cx="45.7" cy="207.2" rx="1" ry="1"/>
	
		<ellipse transform="matrix(0.9971 7.593594e-02 -7.593594e-02 0.9971 16.0859 -2.8606)" class="st1" cx="45.7" cy="210.1" rx="1" ry="1"/>
	
		<ellipse transform="matrix(0.9971 7.593594e-02 -7.593594e-02 0.9971 16.3072 -2.8522)" class="st1" cx="45.7" cy="213" rx="1" ry="1"/>
</g>
<g>
	
		<ellipse transform="matrix(0.9971 7.593594e-02 -7.593594e-02 0.9971 16.6058 -2.8408)" class="st1" cx="45.7" cy="216.9" rx="1" ry="1"/>
	
		<ellipse transform="matrix(0.9971 7.593594e-02 -7.593594e-02 0.9971 16.8271 -2.8324)" class="st1" cx="45.7" cy="219.9" rx="1" ry="1"/>
	
		<ellipse transform="matrix(0.9971 7.593594e-02 -7.593594e-02 0.9971 17.0485 -2.824)" class="st1" cx="45.7" cy="222.8" rx="1" ry="1"/>
</g>
<g>
	
		<ellipse transform="matrix(0.9971 7.593594e-02 -7.593594e-02 0.9971 17.347 -2.8126)" class="st1" cx="45.7" cy="226.7" rx="1" ry="1"/>
	
		<ellipse transform="matrix(0.9971 7.593594e-02 -7.593594e-02 0.9971 17.5684 -2.8042)" class="st1" cx="45.7" cy="229.6" rx="1" ry="1"/>
	
		<ellipse transform="matrix(0.9971 7.593594e-02 -7.593594e-02 0.9971 17.7897 -2.7958)" class="st1" cx="45.7" cy="232.5" rx="1" ry="1"/>
</g>
<g>
	
		<ellipse transform="matrix(0.9971 7.593594e-02 -7.593594e-02 0.9971 18.0883 -2.7844)" class="st1" cx="45.7" cy="236.5" rx="1" ry="1"/>
	
		<ellipse transform="matrix(0.9971 7.593594e-02 -7.593594e-02 0.9971 18.3096 -2.776)" class="st1" cx="45.7" cy="239.4" rx="1" ry="1"/>
	
		<ellipse transform="matrix(0.9971 7.593594e-02 -7.593594e-02 0.9971 18.531 -2.7676)" class="st1" cx="45.7" cy="242.3" rx="1" ry="1"/>
</g>
<g>
	
		<ellipse transform="matrix(0.9971 7.593594e-02 -7.593594e-02 0.9971 18.8295 -2.7563)" class="st1" cx="45.7" cy="246.2" rx="1" ry="1"/>
	
		<ellipse transform="matrix(0.9971 7.593594e-02 -7.593594e-02 0.9971 19.0509 -2.7478)" class="st1" cx="45.7" cy="249.1" rx="1" ry="1"/>
	
		<ellipse transform="matrix(0.9971 7.593594e-02 -7.593594e-02 0.9971 19.2722 -2.7394)" class="st1" cx="45.7" cy="252.1" rx="1" ry="1"/>
</g>
<g>
	<g>
		<polygon class="st2" points="340.4,26 333,29.3 333,204.9 340.6,203.9 340.5,83.5 		"/>
		<polyline class="st2" points="332.9,29.2 328.8,28.3 328.5,204.1 332.9,204.9 		"/>
		<polyline class="st2" points="328,28.4 323.9,27.8 323.8,202.3 328.2,202.6 		"/>
		<g>
			
				<ellipse transform="matrix(0.9971 7.593594e-02 -7.593594e-02 0.9971 3.7673 -24.6488)" class="st3" cx="326" cy="37.2" rx="1" ry="1"/>
			
				<ellipse transform="matrix(0.9971 7.593594e-02 -7.593594e-02 0.9971 3.99 -24.6404)" class="st3" cx="326" cy="40.1" rx="1" ry="1"/>
			
				<ellipse transform="matrix(0.9971 7.593594e-02 -7.593594e-02 0.9971 4.2127 -24.6319)" class="st3" cx="326" cy="43.1" rx="1" ry="1"/>
		</g>
		<g>
			
				<ellipse transform="matrix(0.9971 7.593594e-02 -7.593594e-02 0.9971 3.239 -24.6689)" class="st3" cx="326" cy="30.3" rx="1" ry="1"/>
			
				<ellipse transform="matrix(0.9971 7.593594e-02 -7.593594e-02 0.9971 3.4617 -24.6604)" class="st3" cx="326" cy="33.2" rx="1" ry="1"/>
		</g>
		<g>
			
				<ellipse transform="matrix(0.9971 7.593594e-02 -7.593594e-02 0.9971 4.5027 -24.6209)" class="st3" cx="326" cy="46.9" rx="1" ry="1"/>
			
				<ellipse transform="matrix(0.9971 7.593594e-02 -7.593594e-02 0.9971 4.7254 -24.6124)" class="st3" cx="326" cy="49.8" rx="1" ry="1"/>
			
				<ellipse transform="matrix(0.9971 7.593594e-02 -7.593594e-02 0.9971 4.9481 -24.6039)" class="st3" cx="326" cy="52.8" rx="1" ry="1"/>
		</g>
		<g>
			
				<ellipse transform="matrix(0.9971 7.593594e-02 -7.593594e-02 0.9971 5.2381 -24.5929)" class="st3" cx="326" cy="56.6" rx="1" ry="1"/>
			
				<ellipse transform="matrix(0.9971 7.593594e-02 -7.593594e-02 0.9971 5.4608 -24.5844)" class="st3" cx="326" cy="59.5" rx="1" ry="1"/>
			
				<ellipse transform="matrix(0.9971 7.593594e-02 -7.593594e-02 0.9971 5.6835 -24.576)" class="st3" cx="326" cy="62.4" rx="1" ry="1"/>
		</g>
		<g>
			
				<ellipse transform="matrix(0.9971 7.593594e-02 -7.593594e-02 0.9971 5.9735 -24.5649)" class="st3" cx="326" cy="66.3" rx="1" ry="1"/>
			
				<ellipse transform="matrix(0.9971 7.593594e-02 -7.593594e-02 0.9971 6.1962 -24.5565)" class="st3" cx="326" cy="69.2" rx="1" ry="1"/>
			
				<ellipse transform="matrix(0.9971 7.593594e-02 -7.593594e-02 0.9971 6.4189 -24.548)" class="st3" cx="326" cy="72.1" rx="1" ry="1"/>
		</g>
		<g>
			
				<ellipse transform="matrix(0.9971 7.593594e-02 -7.593594e-02 0.9971 6.7089 -24.537)" class="st3" cx="326" cy="76" rx="1" ry="1"/>
			
				<ellipse transform="matrix(0.9971 7.593594e-02 -7.593594e-02 0.9971 6.9316 -24.5285)" class="st3" cx="326" cy="78.9" rx="1" ry="1"/>
			
				<ellipse transform="matrix(0.9971 7.593594e-02 -7.593594e-02 0.9971 7.1543 -24.52)" class="st3" cx="326" cy="81.8" rx="1" ry="1"/>
		</g>
		<g>
			
				<ellipse transform="matrix(0.9971 7.593594e-02 -7.593594e-02 0.9971 7.4443 -24.509)" class="st3" cx="326" cy="85.6" rx="1" ry="1"/>
			
				<ellipse transform="matrix(0.9971 7.593594e-02 -7.593594e-02 0.9971 7.667 -24.5005)" class="st3" cx="326" cy="88.6" rx="1" ry="1"/>
			
				<ellipse transform="matrix(0.9971 7.593594e-02 -7.593594e-02 0.9971 7.8897 -24.4921)" class="st3" cx="326" cy="91.5" rx="1" ry="1"/>
		</g>
		<g>
			
				<ellipse transform="matrix(0.9971 7.593594e-02 -7.593594e-02 0.9971 8.1797 -24.4811)" class="st3" cx="326" cy="95.3" rx="1" ry="1"/>
			
				<ellipse transform="matrix(0.9971 7.593594e-02 -7.593594e-02 0.9971 8.4024 -24.4726)" class="st3" cx="326" cy="98.3" rx="1" ry="1"/>
			
				<ellipse transform="matrix(0.9971 7.593594e-02 -7.593594e-02 0.9971 8.6251 -24.4641)" class="st3" cx="326" cy="101.2" rx="1" ry="1"/>
		</g>
		<g>
			
				<ellipse transform="matrix(0.9971 7.593594e-02 -7.593594e-02 0.9971 8.9151 -24.4531)" class="st3" cx="326" cy="105" rx="1" ry="1"/>
			
				<ellipse transform="matrix(0.9971 7.593594e-02 -7.593594e-02 0.9971 9.1378 -24.4446)" class="st3" cx="326" cy="107.9" rx="1" ry="1"/>
			
				<ellipse transform="matrix(0.9971 7.593594e-02 -7.593594e-02 0.9971 9.3605 -24.4362)" class="st3" cx="326" cy="110.9" rx="1" ry="1"/>
		</g>
		<g>
			
				<ellipse transform="matrix(0.9971 7.593594e-02 -7.593594e-02 0.9971 9.6505 -24.4251)" class="st3" cx="326" cy="114.7" rx="1" ry="1"/>
			
				<ellipse transform="matrix(0.9971 7.593594e-02 -7.593594e-02 0.9971 9.8732 -24.4167)" class="st3" cx="326" cy="117.6" rx="1" ry="1"/>
			
				<ellipse transform="matrix(0.9971 7.593594e-02 -7.593594e-02 0.9971 10.0959 -24.4082)" class="st3" cx="326" cy="120.6" rx="1" ry="1"/>
		</g>
		<g>
			
				<ellipse transform="matrix(0.9971 7.593594e-02 -7.593594e-02 0.9971 10.3859 -24.3972)" class="st3" cx="326" cy="124.4" rx="1" ry="1"/>
			
				<ellipse transform="matrix(0.9971 7.593594e-02 -7.593594e-02 0.9971 10.6086 -24.3887)" class="st3" cx="326" cy="127.3" rx="1" ry="1"/>
			
				<ellipse transform="matrix(0.9971 7.593594e-02 -7.593594e-02 0.9971 10.8313 -24.3802)" class="st3" cx="326" cy="130.2" rx="1" ry="1"/>
		</g>
		<g>
			
				<ellipse transform="matrix(0.9971 7.593594e-02 -7.593594e-02 0.9971 11.1213 -24.3692)" class="st3" cx="326" cy="134.1" rx="1" ry="1"/>
			
				<ellipse transform="matrix(0.9971 7.593594e-02 -7.593594e-02 0.9971 11.344 -24.3607)" class="st3" cx="326" cy="137" rx="1" ry="1"/>
			
				<ellipse transform="matrix(0.9971 7.593594e-02 -7.593594e-02 0.9971 11.5667 -24.3523)" class="st3" cx="326" cy="139.9" rx="1" ry="1"/>
		</g>
		<g>
			
				<ellipse transform="matrix(0.9971 7.593594e-02 -7.593594e-02 0.9971 11.8567 -24.3412)" class="st3" cx="326" cy="143.7" rx="1" ry="1"/>
			
				<ellipse transform="matrix(0.9971 7.593594e-02 -7.593594e-02 0.9971 12.0794 -24.3328)" class="st3" cx="326" cy="146.7" rx="1" ry="1"/>
			
				<ellipse transform="matrix(0.9971 7.593594e-02 -7.593594e-02 0.9971 12.3021 -24.3243)" class="st3" cx="326" cy="149.6" rx="1" ry="1"/>
		</g>
		<g>
			
				<ellipse transform="matrix(0.9971 7.593594e-02 -7.593594e-02 0.9971 12.5922 -24.3133)" class="st3" cx="326" cy="153.4" rx="1" ry="1"/>
			
				<ellipse transform="matrix(0.9971 7.593594e-02 -7.593594e-02 0.9971 12.8148 -24.3048)" class="st3" cx="326" cy="156.4" rx="1" ry="1"/>
			
				<ellipse transform="matrix(0.9971 7.593594e-02 -7.593594e-02 0.9971 13.0375 -24.2963)" class="st3" cx="326" cy="159.3" rx="1" ry="1"/>
		</g>
		<g>
			
				<ellipse transform="matrix(0.9971 7.593594e-02 -7.593594e-02 0.9971 13.3276 -24.2853)" class="st3" cx="326" cy="163.1" rx="1" ry="1"/>
			
				<ellipse transform="matrix(0.9971 7.593594e-02 -7.593594e-02 0.9971 13.5503 -24.2769)" class="st3" cx="326" cy="166" rx="1" ry="1"/>
			
				<ellipse transform="matrix(0.9971 7.593594e-02 -7.593594e-02 0.9971 13.7729 -24.2684)" class="st3" cx="326" cy="169" rx="1" ry="1"/>
		</g>
		<g>
			
				<ellipse transform="matrix(0.9971 7.593594e-02 -7.593594e-02 0.9971 14.063 -24.2574)" class="st3" cx="326" cy="172.8" rx="1" ry="1"/>
			
				<ellipse transform="matrix(0.9971 7.593594e-02 -7.593594e-02 0.9971 14.2857 -24.2489)" class="st3" cx="326" cy="175.7" rx="1" ry="1"/>
			
				<ellipse transform="matrix(0.9971 7.593594e-02 -7.593594e-02 0.9971 14.5084 -24.2404)" class="st3" cx="326" cy="178.7" rx="1" ry="1"/>
		</g>
		<g>
			
				<ellipse transform="matrix(0.9971 7.593594e-02 -7.593594e-02 0.9971 14.7984 -24.2294)" class="st3" cx="326" cy="182.5" rx="1" ry="1"/>
			
				<ellipse transform="matrix(0.9971 7.593594e-02 -7.593594e-02 0.9971 15.0211 -24.2209)" class="st3" cx="326" cy="185.4" rx="1" ry="1"/>
			
				<ellipse transform="matrix(0.9971 7.593594e-02 -7.593594e-02 0.9971 15.2438 -24.2125)" class="st3" cx="326" cy="188.3" rx="1" ry="1"/>
		</g>
		<g>
			
				<ellipse transform="matrix(0.9971 7.593594e-02 -7.593594e-02 0.9971 15.5338 -24.2014)" class="st3" cx="326" cy="192.2" rx="1" ry="1"/>
			
				<ellipse transform="matrix(0.9971 7.593594e-02 -7.593594e-02 0.9971 15.7565 -24.193)" class="st3" cx="326" cy="195.1" rx="1" ry="1"/>
			
				<ellipse transform="matrix(0.9971 7.593594e-02 -7.593594e-02 0.9971 15.9792 -24.1845)" class="st3" cx="326" cy="198" rx="1" ry="1"/>
		</g>
	</g>
	<polyline class="st1" points="329.2,28.1 335.9,25.8 340.4,26 	"/>
</g>
<g>
	<polyline class="st0" points="223.8,68.2 223.8,6.6 213.1,5.8 213.1,72.3 	"/>
	<polyline class="st0" points="225.8,67.6 225.9,3.1 217.6,6.3 217.5,70.1 	"/>
	<polyline class="st0" points="213.2,5.6 220.6,2.3 225.9,3.1 	"/>
	<g>
		
			<ellipse transform="matrix(0.9971 7.593594e-02 -7.593594e-02 0.9971 1.8803 -16.7227)" class="st1" cx="220.8" cy="16.4" rx="1" ry="1"/>
		
			<ellipse transform="matrix(0.9971 7.593594e-02 -7.593594e-02 0.9971 2.1017 -16.7143)" class="st1" cx="220.8" cy="19.3" rx="1" ry="1"/>
		
			<ellipse transform="matrix(0.9971 7.593594e-02 -7.593594e-02 0.9971 2.323 -16.7059)" class="st1" cx="220.8" cy="22.2" rx="1" ry="1"/>
	</g>
	<g>
		
			<ellipse transform="matrix(0.9971 7.593594e-02 -7.593594e-02 0.9971 1.3553 -16.7427)" class="st1" cx="220.8" cy="9.5" rx="1" ry="1"/>
		
			<ellipse transform="matrix(0.9971 7.593594e-02 -7.593594e-02 0.9971 1.5766 -16.7343)" class="st1" cx="220.8" cy="12.4" rx="1" ry="1"/>
	</g>
	<g>
		
			<ellipse transform="matrix(0.9971 7.593594e-02 -7.593594e-02 0.9971 2.6216 -16.6945)" class="st1" cx="220.8" cy="26.1" rx="1" ry="1"/>
		
			<ellipse transform="matrix(0.9971 7.593594e-02 -7.593594e-02 0.9971 2.8429 -16.6861)" class="st1" cx="220.8" cy="29" rx="1" ry="1"/>
		
			<ellipse transform="matrix(0.9971 7.593594e-02 -7.593594e-02 0.9971 3.0643 -16.6777)" class="st1" cx="220.8" cy="32" rx="1" ry="1"/>
	</g>
	<g>
		
			<ellipse transform="matrix(0.9971 7.593594e-02 -7.593594e-02 0.9971 3.3628 -16.6664)" class="st1" cx="220.8" cy="35.9" rx="1" ry="1"/>
		
			<ellipse transform="matrix(0.9971 7.593594e-02 -7.593594e-02 0.9971 3.5842 -16.6579)" class="st1" cx="220.8" cy="38.8" rx="1" ry="1"/>
		
			<ellipse transform="matrix(0.9971 7.593594e-02 -7.593594e-02 0.9971 3.8055 -16.6495)" class="st1" cx="220.8" cy="41.7" rx="1" ry="1"/>
	</g>
	<g>
		
			<ellipse transform="matrix(0.9971 7.593594e-02 -7.593594e-02 0.9971 4.1041 -16.6382)" class="st1" cx="220.8" cy="45.6" rx="1" ry="1"/>
		
			<ellipse transform="matrix(0.9971 7.593594e-02 -7.593594e-02 0.9971 4.3254 -16.6298)" class="st1" cx="220.8" cy="48.6" rx="1" ry="1"/>
		
			<ellipse transform="matrix(0.9971 7.593594e-02 -7.593594e-02 0.9971 4.5468 -16.6213)" class="st1" cx="220.8" cy="51.5" rx="1" ry="1"/>
	</g>
	<g>
		
			<ellipse transform="matrix(0.9971 7.593594e-02 -7.593594e-02 0.9971 4.8453 -16.61)" class="st1" cx="220.8" cy="55.4" rx="1" ry="1"/>
		
			<ellipse transform="matrix(0.9971 7.593594e-02 -7.593594e-02 0.9971 5.0667 -16.6016)" class="st1" cx="220.8" cy="58.3" rx="1" ry="1"/>
		
			<ellipse transform="matrix(0.9971 7.593594e-02 -7.593594e-02 0.9971 5.288 -16.5932)" class="st1" cx="220.8" cy="61.2" rx="1" ry="1"/>
	</g>
	<g>
		
			<ellipse transform="matrix(0.9971 7.593594e-02 -7.593594e-02 0.9971 5.5866 -16.5818)" class="st1" cx="220.8" cy="65.2" rx="1" ry="1"/>
		
			<ellipse transform="matrix(0.9971 7.593594e-02 -7.593594e-02 0.9971 5.8079 -16.5734)" class="st1" cx="220.8" cy="68.1" rx="1" ry="1"/>
	</g>
	<g>
		
			<ellipse transform="matrix(0.9971 7.593594e-02 -7.593594e-02 0.9971 7.1205 -16.5235)" class="st1" cx="220.8" cy="85.4" rx="1" ry="1"/>
		
			<ellipse transform="matrix(0.9971 7.593594e-02 -7.593594e-02 0.9971 7.3419 -16.5151)" class="st1" cx="220.8" cy="88.3" rx="1" ry="1"/>
		
			<ellipse transform="matrix(0.9971 7.593594e-02 -7.593594e-02 0.9971 7.5632 -16.5066)" class="st1" cx="220.8" cy="91.2" rx="1" ry="1"/>
	</g>
	<g>
		
			<ellipse transform="matrix(0.9971 7.593594e-02 -7.593594e-02 0.9971 7.8618 -16.4953)" class="st1" cx="220.8" cy="95.1" rx="1" ry="1"/>
		
			<ellipse transform="matrix(0.9971 7.593594e-02 -7.593594e-02 0.9971 8.0831 -16.4869)" class="st1" cx="220.8" cy="98" rx="1" ry="1"/>
		
			<ellipse transform="matrix(0.9971 7.593594e-02 -7.593594e-02 0.9971 8.3044 -16.4785)" class="st1" cx="220.8" cy="101" rx="1" ry="1"/>
	</g>
	<g>
		
			<ellipse transform="matrix(0.9971 7.593594e-02 -7.593594e-02 0.9971 8.603 -16.4671)" class="st1" cx="220.8" cy="104.9" rx="1" ry="1"/>
		
			<ellipse transform="matrix(0.9971 7.593594e-02 -7.593594e-02 0.9971 8.8243 -16.4587)" class="st1" cx="220.8" cy="107.8" rx="1" ry="1"/>
		
			<ellipse transform="matrix(0.9971 7.593594e-02 -7.593594e-02 0.9971 9.0457 -16.4503)" class="st1" cx="220.8" cy="110.7" rx="1" ry="1"/>
	</g>
</g>
<g>
	<line class="st0" x1="223.9" y1="113.8" x2="224" y2="83.5"/>
	<polyline class="st0" points="213.2,164.5 213.2,181.4 223.9,181.7 223.9,159.7 	"/>
	<line class="st0" x1="213.3" y1="87.8" x2="213.2" y2="110.5"/>
	<line class="st0" x1="217.7" y1="162.5" x2="217.6" y2="181.4"/>
	<line class="st0" x1="217.7" y1="85.9" x2="217.7" y2="112.1"/>
	<line class="st0" x1="225.9" y1="114.4" x2="225.8" y2="67.6"/>
	<polyline class="st0" points="223.9,181.7 225.9,180.8 225.9,159 	"/>
	<g>
		
			<ellipse transform="matrix(0.9971 7.593594e-02 -7.593594e-02 0.9971 13.0767 -16.316)" class="st1" cx="221.1" cy="163.8" rx="1" ry="1"/>
		
			<ellipse transform="matrix(0.9971 7.593594e-02 -7.593594e-02 0.9971 13.298 -16.3076)" class="st1" cx="221.1" cy="166.7" rx="1" ry="1"/>
		
			<ellipse transform="matrix(0.9971 7.593594e-02 -7.593594e-02 0.9971 13.5194 -16.2992)" class="st1" cx="221.1" cy="169.6" rx="1" ry="1"/>
	</g>
	<g>
		
			<ellipse transform="matrix(0.9971 7.593594e-02 -7.593594e-02 0.9971 13.8179 -16.2878)" class="st1" cx="221.1" cy="173.6" rx="1" ry="1"/>
		
			<ellipse transform="matrix(0.9971 7.593594e-02 -7.593594e-02 0.9971 14.0393 -16.2794)" class="st1" cx="221.1" cy="176.5" rx="1" ry="1"/>
		
			<ellipse transform="matrix(0.9971 7.593594e-02 -7.593594e-02 0.9971 14.2606 -16.271)" class="st1" cx="221.1" cy="179.4" rx="1" ry="1"/>
	</g>
</g>
<g>
	<path class="st0" d="M177,99.9l14.4-5.8c0,0,1.2,0,1.6,0.7c0,0,0.5,0.5,2.9-0.5c2.4-1,29.8-12.1,29.8-12.1"/>
	<path class="st0" d="M116.6,114.4"/>
	<polyline class="st0" points="225.7,67.9 193.5,80.6 192.2,83.1 161.4,95.2 	"/>
	<path class="st0" d="M166.1,96.7c21.2-8.4,43.3-17.2,43.3-17.2s2.1-0.3,1.9,1.7c-0.2,2-2.3,2.9-2.3,2.9l-36.1,14.5"/>
	<path class="st0" d="M225.8,73.2l-7.8,3.1c0,0-2.2,1.1-1.6,3.3c0,0,0,1.3,2.3,0.3s7-2.7,7-2.7"/>
</g>
<g>
	<path class="st0" d="M323.7,109.1l-6.1,2.5c0,0-1.7,0.9-1.5,2.5c0,0,0.6,1.3,2.2,0.6c1.5-0.6,5.5-2.2,5.5-2.2"/>
	<path class="st0" d="M323.6,102.8l-30.5,13l-0.9,2.5l-65.8,27.1c0,0-8.3,2.5-9.9,6.3l0.3,5.5c0,0,0.3,1.2,0.9,1.2
		c1.4-0.1,4.2-0.4,8.3-1.8c0.4-0.2,0.9-0.3,1.4-0.5l4-1.6l60.9-24.9l1.8,1.3l29.8-12.3"/>
	<path class="st0" d="M309.3,114.5c0,0,1.8,0,1.9,1.8c0.1,1.8-2.3,3.3-2.3,3.3l-80,32.9c0,0-2.9,1.4-4-1c0,0-0.6-2.1,3.3-3.7
		C232.2,146.2,309.3,114.5,309.3,114.5z"/>
</g>
<g>
	<circle cx="130.6" cy="215" r="8.1"/>
	<text transform="matrix(1 0 0 1 127.1465 219.1393)" class="st4 st5 st6">1</text>
</g>
<g>
	<circle cx="9.5" cy="184.3" r="8.1"/>
	<text transform="matrix(1 0 0 1 6.1181 188.4752)" class="st4 st5 st6">1</text>
</g>
<g>
	<path class="st7" d="M68.3,148.6c0,0-0.1-1,0.8-0.7c0.9,0.3,4.8,1.4,4.8,1.4s0.7,0.3,0.7,0.7c0,0.5,0.1,8.8,0.1,8.8
		s0.3,1.1-0.7,0.8s-4.9-1.2-4.9-1.2s-0.7-0.3-0.7-1.8C68.5,155.3,68.3,148.6,68.3,148.6z"/>
	<path class="st8" d="M78.3,153.8c0,0,0.5-0.2,0.7-0.1c0.2,0.1,1.4,0.9,1.4,0.9l0,3.8c0,0,0,0.3-0.6,0.3c-0.6,0-1.5-0.6-1.5-0.6
		L78.3,153.8z"/>
	<path class="st8" d="M88.5,160.4l-0.1-3.4c0,0,0-0.5-0.7-0.7c-0.7-0.2-2.8-0.5-2.8-0.5s-0.9,0-1.1,0.5l0.1,2.9c0,0,0.3,0.9,1,1.1
		c0.5,0.2,2.3,0.7,3.2,0.9C88,161,88.5,161.1,88.5,160.4z"/>
	<path class="st8" d="M91,157.7c0,0-1.2-0.5-1.2,0.1s0,3.5,0,3.5s0.3,0.7,0.8,0.9c0.5,0.2,1.3,0.5,1.3,0.5s0.7,0.3,1-0.1
		c0.3-0.4,0.2-3.5,0.2-3.5S93.2,158.1,91,157.7z"/>
	<path class="st8" d="M96.2,159.9c0,0,0.1-0.8,1.3-0.4c1.1,0.4,1.8,0.5,1.8,0.5s0.9,0.3,0.9,0.8c0,0.5,0,3.3,0,3.3s0,0.5-0.9,0.4
		c-0.8-0.1-2.3-0.6-2.3-0.6s-0.8-0.4-0.8-0.9C96.2,162.5,96.2,159.9,96.2,159.9z"/>
	<path class="st8" d="M102.8,160.8c0,0-1.2-0.4-1.3,0.1c0,0.5,0,3.2,0,3.2s0.2,0.9,0.9,1.1s2,0.6,2,0.6s1,0.4,1.2-0.3
		s-0.1-3.2-0.1-3.2s-0.4-0.6-0.9-0.8C104.1,161.4,102.8,160.8,102.8,160.8z"/>
	<path class="st8" d="M108.7,163.5c0,0,0-0.8,0.5-0.6c0.6,0.1,1.4,0.2,1.4,0.2s1.1,0.2,1.1,0.9c0,0.7,0,3.5,0,3.5s-0.4,0.3-1,0.2
		s-1.7-0.4-1.8-0.8C108.8,166.4,108.7,163.5,108.7,163.5z"/>
	<path class="st8" d="M114.1,164.2c0,0-0.9-0.4-1-0.1s0,3.5,0,3.5s0.2,0.8,0.9,1c0.7,0.2,2.9,0.9,2.9,0.9s1,0.2,1.1-0.5
		c0.1-0.6,0-3,0-3s0-0.9-1-1.1C116,164.8,114.1,164.2,114.1,164.2z"/>
	<path class="st8" d="M121.1,166.9c0,0,0.2-0.6,0.9-0.5s0.9,0.3,0.9,0.3s0.3,0.4,0.3,1.3s0,2.7,0,2.7s-0.2,0.7-0.8,0.6
		c-0.5-0.1-1.1,0-1.2-1.3C121.2,168.8,121.1,166.9,121.1,166.9z"/>
	<path class="st8" d="M149.2,173.9c0,0,0-0.9,0.8-0.8c0.8,0.2,1.9,0.5,2,0.5c0.2,0,0.6,0.1,0.6,0.7s0.3,5.5,0.3,5.5s0,0.5-1.1,0
		c-1.1-0.5-2.3-0.9-2.3-0.9s-0.4-0.6-0.4-1.9C149.1,175.8,149.2,173.9,149.2,173.9z"/>
	<path class="st7" d="M142.8,169.9c0,0,0.1-0.9,0.9-0.6s4.6,1.4,4.6,1.4s0.8,0.3,0.8,0.9c0,0.6,0.2,8.1,0.2,8.1s0.2,1.1-0.5,1
		c-0.8-0.1-4.7-1.4-4.7-1.4s-0.9-0.2-0.9-1.1S142.8,169.9,142.8,169.9z"/>
	<path class="st7" d="M144.6,170.6l2.2,0.6l1.7,2.1l0.1,5l-1.3,1.2l-2.3-0.4c0,0-0.9-0.1-0.9-1.7c0-1.6-0.1-5.8-0.1-5.8
		S143.8,170.5,144.6,170.6z"/>
	<polygon class="st7" points="155.3,172.9 158.4,173.9 158.6,177.1 155.4,176.2 	"/>
	<polygon class="st7" points="155.5,177.8 158.7,178.7 158.8,181.6 155.5,180.6 	"/>
	<path class="st7" d="M130.9,168.4l8.1,2.3c0,0,1.4,1,2.3,1.6l0.1,2.3c0,0-1.6,0.1-2.3,0.2c-0.7,0.1-8.8-2.3-8.8-2.3v-3.8
		C130.3,168.7,130.3,168.4,130.9,168.4z"/>
	<path class="st7" d="M80.4,155.5c0,0,0-0.5,0.5-0.4c0.5,0.1,2.1,0.5,2.1,0.5s0.7,0.3,0.7,0.7"/>
	<path class="st7" d="M80.5,158c0,0,1.3,1.2,3.4,0.9"/>
	<path class="st7" d="M93.2,158.9c0,0,1.2-0.5,2.8,0.7"/>
	<path class="st7" d="M93.1,162.1c0,0,1.2,0.9,3,0.7"/>
	<path class="st7" d="M73.2,150.8c0-0.4-1-0.9-1-0.9l-2.6-0.7c0,0-0.3,0.1-0.3,0.9s0.1,6.5,0.1,6.5s0,0.7,0.6,0.9
		c0.6,0.2,2.4,0.7,2.4,0.7l1.2-0.9"/>
	<path class="st8" d="M73,151.4c0,0,0.3-0.7,0.9-0.1c0,0,0.8,0.5,1.2,0.7c0.3,0.1,0.7,2,0.6,2.5s-0.4,2.6-0.9,3.2
		c-0.5,0.5-1.6-0.5-1.6-0.5L73,151.4z"/>
	<path class="st7" d="M52.7,146.6l0.1,3.9c0,0,0.3,0.5,0.7,0.6s7.3,2.4,7.3,2.4l1.4-0.1l1.4,0.1l0.2-2.2l-1-0.9l-1.6-1.2L52.7,146.6
		z"/>
	<path class="st7" d="M61.3,153.6l0.1,0.9c0.3,0.5,1.2,0.1,1.2,0.1c1.2,0.2,2,0.3,2,0.3c0.1-0.5-0.3-1-0.3-1s-0.1-2.7-0.1-3.3
		c0-0.5,0.7-0.9,0.7-0.9l-1.6-1.3c-0.7-0.1-1.9-0.8-1.9-0.8s-0.4,0.7-0.2,1.6"/>
	<line class="st0" x1="269" y1="127.8" x2="160.6" y2="172.4"/>
	<polyline class="st0" points="268.9,127.7 232.8,116.5 215.7,111.5 159.5,94.7 147.3,99.6 48.2,139.5 	"/>
	<polyline class="st0" points="165.5,184.6 268.9,140.6 268.9,139.1 	"/>
	<path class="st0" d="M163.9,173.5l-119.2-35c0,0-2.3-0.7-2.3,1.6c0,2.2,0.1,10.4,0.1,10.4s-0.5,1.7,1.2,2.3
		c1.6,0.6,120.4,35.6,120.4,35.6s1.4,0.9,1.3-1.6c-0.1-2.5,0-10.6,0-10.6S165.5,174.5,163.9,173.5z"/>
	<line class="st0" x1="160.3" y1="172.7" x2="160.5" y2="186.8"/>
	<line class="st0" x1="47.8" y1="139.6" x2="47.6" y2="153.6"/>
	<path class="st9" d="M46.3,142.3c-0.3,0.6-1.2,0.8-1.8,0.4c-0.7-0.4-0.9-1.2-0.6-1.8c0.3-0.6,1.2-0.8,1.8-0.4
		S46.6,141.7,46.3,142.3z"/>
	<path class="st9" d="M164,176.8c-0.3,0.6-1.2,0.8-1.8,0.4s-0.9-1.2-0.6-1.8c0.3-0.6,1.2-0.8,1.8-0.4S164.3,176.1,164,176.8z"/>
	<path class="st9" d="M164,181.4c-0.3,0.6-1.2,0.8-1.8,0.4s-0.9-1.2-0.6-1.8c0.3-0.6,1.2-0.8,1.8-0.4S164.3,180.8,164,181.4z"/>
	<path class="st9" d="M164,186c-0.3,0.6-1.2,0.8-1.8,0.4c-0.7-0.4-0.9-1.2-0.6-1.8c0.3-0.6,1.2-0.8,1.8-0.4S164.3,185.4,164,186z"/>
	<path class="st10" d="M46.3,146.7c-0.3,0.6-1.2,0.8-1.8,0.4s-0.9-1.2-0.6-1.8c0.3-0.6,1.2-0.8,1.8-0.4
		C46.3,145.3,46.6,146.1,46.3,146.7z"/>
	<path class="st9" d="M46.3,151c-0.3,0.6-1.2,0.8-1.8,0.4c-0.7-0.4-0.9-1.2-0.6-1.8c0.3-0.6,1.2-0.8,1.8-0.4S46.6,150.4,46.3,151z"
		/>
	<polyline class="st1" points="54.3,141 81.4,129.6 101.6,135.3 75.1,147.3 	"/>
	<polyline class="st1" points="125.1,161.8 152.3,150.2 172,156 146.4,168.1 	"/>
	<path class="st11" d="M199.3,159.2c0.3,0.8-0.2,1.6-1,1.9c-0.8,0.3-1.6,0-1.9-0.8c-0.3-0.8,0.2-1.6,1-1.9
		C198.2,158.1,199.1,158.4,199.3,159.2z"/>
	<path class="st11" d="M199.3,166.7c0.3,0.8-0.2,1.6-1,1.9c-0.8,0.3-1.6,0-1.9-0.8c-0.3-0.8,0.2-1.6,1-1.9
		C198.2,165.5,199.1,165.9,199.3,166.7z"/>
	<path class="st11" d="M193.2,162.1c0.3,0.8-0.2,1.6-1,1.9c-0.8,0.3-1.6,0-1.9-0.8c-0.3-0.8,0.2-1.6,1-1.9
		C192.1,161,192.9,161.4,193.2,162.1z"/>
	<path class="st11" d="M193.2,169.6c0.3,0.8-0.2,1.6-1,1.9c-0.8,0.3-1.6,0-1.9-0.8c-0.3-0.8,0.2-1.6,1-1.9
		C192.1,168.5,192.9,168.8,193.2,169.6z"/>
	<path class="st11" d="M187,164.7c0.3,0.8-0.2,1.6-1,1.9s-1.6,0-1.9-0.8c-0.3-0.8,0.2-1.6,1-1.9C185.9,163.6,186.7,163.9,187,164.7z
		"/>
	<path class="st11" d="M187,172.2c0.3,0.8-0.2,1.6-1,1.9s-1.6,0-1.9-0.8c-0.3-0.8,0.2-1.6,1-1.9C185.9,171,186.7,171.4,187,172.2z"
		/>
	<path class="st11" d="M180.6,167.3c0.3,0.8-0.2,1.6-1,1.9s-1.6,0-1.9-0.8c-0.3-0.8,0.2-1.6,1-1.9
		C179.5,166.2,180.3,166.6,180.6,167.3z"/>
	<path class="st11" d="M180.6,174.8c0.3,0.8-0.2,1.6-1,1.9c-0.8,0.3-1.6,0-1.9-0.8c-0.3-0.8,0.2-1.6,1-1.9
		C179.5,173.7,180.3,174,180.6,174.8z"/>
	<path class="st11" d="M174.4,170c0.3,0.8-0.2,1.6-1,1.9s-1.6,0-1.9-0.8c-0.3-0.8,0.2-1.6,1-1.9C173.3,168.9,174.1,169.2,174.4,170z
		"/>
	<path class="st11" d="M174.4,177.4c0.3,0.8-0.2,1.6-1,1.9s-1.6,0-1.9-0.8c-0.3-0.8,0.2-1.6,1-1.9
		C173.3,176.3,174.1,176.7,174.4,177.4z"/>
	<path class="st11" d="M168.7,172.4c0.3,0.8-0.2,1.6-1,1.9c-0.8,0.3-1.6,0-1.9-0.8c-0.3-0.8,0.2-1.6,1-1.9
		C167.6,171.2,168.5,171.6,168.7,172.4z"/>
	<path class="st11" d="M168.7,179.8c0.3,0.8-0.2,1.6-1,1.9s-1.6,0-1.9-0.8c-0.3-0.8,0.2-1.6,1-1.9
		C167.6,178.7,168.5,179.1,168.7,179.8z"/>
	<line class="st11" x1="201.5" y1="155.5" x2="201.5" y2="169.1"/>
	<line class="st0" x1="146.6" y1="100.3" x2="256" y2="133"/>
	<line class="st0" x1="265.3" y1="137.6" x2="265.1" y2="132.8"/>
	<line class="st0" x1="239.8" y1="143.2" x2="240" y2="148"/>
	<path class="st0" d="M264.8,130"/>
	<polyline class="st12" points="240.8,141.2 240.8,143.1 265.9,132.6 265.9,130.7 	"/>
	<g>
		<polygon class="st13" points="59.2,144.7 58.7,144.5 58.5,144.1 58.7,143.8 59.2,144 59.4,144.4 		"/>
		<polygon class="st13" points="57.5,143.5 58,143.6 58.2,144.1 58,144.3 57.5,144.2 57.3,143.8 		"/>
		<polygon class="st13" points="56.4,143.2 56.8,143.3 57,143.7 56.8,144 56.4,143.9 56.1,143.5 		"/>
		<polygon class="st13" points="55.2,142.8 55.6,143 55.8,143.4 55.6,143.7 55.2,143.6 55,143.1 		"/>
		<polygon class="st13" points="54.4,143.4 54,143.2 53.8,142.8 54,142.5 54.4,142.6 54.7,143.1 		"/>
	</g>
	<g>
		<polygon class="st13" points="85.4,152.9 85,152.8 84.8,152.4 85,152.1 85.4,152.2 85.7,152.6 		"/>
		<polygon class="st13" points="83.8,151.7 84.3,151.9 84.5,152.3 84.3,152.6 83.8,152.5 83.6,152 		"/>
		<polygon class="st13" points="82.7,151.4 83.1,151.5 83.3,152 83.1,152.3 82.7,152.1 82.4,151.7 		"/>
		<polygon class="st13" points="81.5,151.1 81.9,151.2 82.1,151.6 81.9,151.9 81.5,151.8 81.3,151.4 		"/>
		<polygon class="st13" points="80.7,151.6 80.3,151.5 80.1,151 80.3,150.8 80.7,150.9 81,151.3 		"/>
	</g>
	<g>
		<polygon class="st13" points="86.2,154.3 85.8,154.2 85.6,153.8 85.8,153.5 86.2,153.6 86.4,154 		"/>
		<polygon class="st13" points="84.6,153.2 85,153.3 85.3,153.7 85,154 84.6,153.9 84.4,153.4 		"/>
		<polygon class="st13" points="83.4,152.8 83.9,153 84.1,153.4 83.9,153.7 83.4,153.5 83.2,153.1 		"/>
		<polygon class="st13" points="82.3,152.5 82.7,152.6 82.9,153 82.7,153.3 82.3,153.2 82,152.8 		"/>
		<polygon class="st13" points="81.5,153 81.1,152.9 80.9,152.5 81.1,152.2 81.5,152.3 81.7,152.7 		"/>
	</g>
	<g>
		<polygon class="st13" points="85.6,155.4 85.2,155.2 85,154.8 85.2,154.5 85.6,154.7 85.8,155.1 		"/>
		<polygon class="st13" points="84,154.2 84.4,154.3 84.7,154.8 84.4,155 84,154.9 83.8,154.5 		"/>
		<polygon class="st13" points="82.8,153.9 83.3,154 83.5,154.4 83.3,154.7 82.8,154.6 82.6,154.2 		"/>
		<polygon class="st13" points="81.6,153.5 82.1,153.7 82.3,154.1 82.1,154.4 81.6,154.3 81.4,153.8 		"/>
		<polygon class="st13" points="80.9,154.1 80.5,153.9 80.3,153.5 80.5,153.2 80.9,153.3 81.1,153.8 		"/>
	</g>
	<g>
		<polygon class="st13" points="58.6,145.7 58.2,145.6 58,145.2 58.2,144.9 58.6,145 58.8,145.4 		"/>
		<polygon class="st13" points="57,144.6 57.4,144.7 57.7,145.1 57.4,145.4 57,145.3 56.8,144.8 		"/>
		<polygon class="st13" points="55.8,144.2 56.3,144.4 56.5,144.8 56.3,145.1 55.8,144.9 55.6,144.5 		"/>
		<polygon class="st13" points="54.6,143.9 55.1,144 55.3,144.4 55.1,144.7 54.6,144.6 54.4,144.2 		"/>
		<polygon class="st13" points="53.9,144.4 53.5,144.3 53.2,143.9 53.5,143.6 53.9,143.7 54.1,144.1 		"/>
	</g>
	<g>
		<polygon class="st13" points="60.1,147.5 59.7,147.4 59.5,146.9 59.7,146.6 60.1,146.8 60.4,147.2 		"/>
		<polygon class="st13" points="58.4,146.3 58.8,146.4 59,146.8 58.8,147.1 58.4,147 58.2,146.6 		"/>
		<polygon class="st13" points="57,145.9 57.5,146.1 57.7,146.5 57.5,146.8 57,146.6 56.8,146.2 		"/>
		<polygon class="st13" points="55.7,145.6 56.2,145.7 56.4,146.1 56.2,146.4 55.7,146.3 55.5,145.9 		"/>
		<polygon class="st13" points="54.4,145.2 54.8,145.3 55,145.8 54.8,146 54.4,145.9 54.2,145.5 		"/>
		<polygon class="st13" points="53.1,144.8 53.5,145 53.7,145.4 53.5,145.7 53.1,145.6 52.8,145.1 		"/>
		<polygon class="st13" points="52.2,145.3 51.7,145.2 51.5,144.8 51.7,144.5 52.2,144.6 52.4,145 		"/>
	</g>
	<g>
		<polygon class="st13" points="59.3,154.9 58.9,154.7 58.7,154.3 58.9,154 59.3,154.2 59.5,154.6 		"/>
		<polygon class="st13" points="57.7,153.7 58.1,153.8 58.4,154.3 58.1,154.5 57.7,154.4 57.5,154 		"/>
		<polygon class="st13" points="56.5,153.4 57,153.5 57.2,153.9 57,154.2 56.5,154.1 56.3,153.7 		"/>
		<polygon class="st13" points="55.4,153 55.8,153.2 56,153.6 55.8,153.9 55.4,153.8 55.1,153.3 		"/>
		<polygon class="st13" points="54.6,153.6 54.2,153.4 54,153 54.2,152.7 54.6,152.8 54.8,153.3 		"/>
	</g>
	<g>
		<polygon class="st13" points="58.8,156.1 58.3,156 58.1,155.6 58.3,155.3 58.8,155.4 59,155.8 		"/>
		<polygon class="st13" points="57.2,155 57.6,155.1 57.8,155.5 57.6,155.8 57.2,155.7 57,155.3 		"/>
		<polygon class="st13" points="56,154.6 56.4,154.8 56.6,155.2 56.4,155.5 56,155.3 55.8,154.9 		"/>
		<polygon class="st13" points="54.8,154.3 55.2,154.4 55.5,154.9 55.2,155.1 54.8,155 54.6,154.6 		"/>
		<polygon class="st13" points="54.1,154.8 53.6,154.7 53.4,154.3 53.6,154 54.1,154.1 54.3,154.5 		"/>
	</g>
	<polygon class="st13" points="52.2,147.8 51.7,147.7 51.5,147.3 51.7,147 52.2,147.1 52.4,147.5 	"/>
	<polygon class="st13" points="52.1,150.4 51.7,150.2 51.5,149.8 51.7,149.5 52.1,149.7 52.3,150.1 	"/>
	<polygon class="st13" points="52.9,152 52.4,151.9 52.2,151.5 52.4,151.2 52.9,151.3 53.1,151.7 	"/>
	<ellipse transform="matrix(0.9058 -0.4236 0.4236 0.9058 -57.1311 42.4187)" class="st13" cx="66.9" cy="149.7" rx="0.8" ry="1"/>
	<ellipse transform="matrix(0.9058 -0.4236 0.4236 0.9058 -59.3424 42.9102)" class="st13" cx="66.9" cy="154.9" rx="0.8" ry="1"/>
	<line class="st13" x1="76.5" y1="148.4" x2="76.7" y2="162.4"/>
	<line class="st13" x1="78.1" y1="148.7" x2="78.4" y2="162.7"/>
	<line class="st13" x1="88.6" y1="151.8" x2="88.9" y2="165.8"/>
	<line class="st13" x1="89.6" y1="152.1" x2="89.8" y2="166.2"/>
	<line class="st13" x1="100.3" y1="155.1" x2="100.6" y2="169.2"/>
	<line class="st13" x1="101.2" y1="155.4" x2="101.4" y2="169.5"/>
	<line class="st13" x1="111.7" y1="158.3" x2="112" y2="172.4"/>
	<line class="st13" x1="112.4" y1="158.8" x2="112.7" y2="172.8"/>
	<line class="st13" x1="123.5" y1="161.9" x2="123.8" y2="176.5"/>
	<line class="st13" x1="124.7" y1="162.4" x2="125" y2="176.4"/>
	<path class="st13" d="M105.7,162.7c0,0,1.9-0.5,2.9,0.6"/>
	<path class="st13" d="M105.7,165.6c0,0,1.6,1,3.1,0.6"/>
	<path class="st13" d="M118.1,166.4c0,0,1.8-0.6,2.9,0.7"/>
	<path class="st13" d="M118.1,168.9c0,0,1.1,1.4,3.1,1"/>
	<path class="st13" d="M78.7,153.6v-3c0,0,0-0.7,0.8-0.5c0.8,0.2,7.4,2,7.4,2s1,0.3,1,1.4c0,1.1,0,2.9,0,2.9"/>
	<path class="st13" d="M79.1,158.7c0,0,0,0.7,0,2c0,1.3,0.4,1.5,0.4,1.5s7.1,2.2,7.9,2.4c0.8,0.2,0.8-0.7,0.8-0.7l-0.1-2.6"/>
	<g>
		<polygon class="st13" points="97.2,156.1 96.8,155.9 96.6,155.5 96.8,155.2 97.2,155.4 97.4,155.8 		"/>
		<polygon class="st13" points="95.6,154.9 96,155 96.2,155.5 96,155.7 95.6,155.6 95.4,155.2 		"/>
		<polygon class="st13" points="94.4,154.6 94.9,154.7 95.1,155.1 94.8,155.4 94.4,155.3 94.2,154.9 		"/>
		<polygon class="st13" points="93.2,154.2 93.7,154.4 93.9,154.8 93.7,155.1 93.2,155 93,154.5 		"/>
		<polygon class="st13" points="92.5,154.8 92.1,154.6 91.8,154.2 92.1,153.9 92.5,154 92.7,154.5 		"/>
	</g>
	<g>
		<polygon class="st13" points="98,157.5 97.5,157.3 97.3,156.9 97.6,156.6 98,156.8 98.2,157.2 		"/>
		<polygon class="st13" points="96.4,156.3 96.8,156.4 97,156.9 96.8,157.1 96.4,157 96.2,156.6 		"/>
		<polygon class="st13" points="95.2,156 95.6,156.1 95.8,156.5 95.6,156.8 95.2,156.7 95,156.3 		"/>
		<polygon class="st13" points="94,155.6 94.5,155.8 94.7,156.2 94.5,156.5 94,156.4 93.8,155.9 		"/>
		<polygon class="st13" points="93.3,156.2 92.8,156 92.6,155.6 92.8,155.3 93.3,155.4 93.5,155.9 		"/>
	</g>
	<g>
		<polygon class="st13" points="97.4,158.5 96.9,158.4 96.7,158 96.9,157.7 97.4,157.8 97.6,158.2 		"/>
		<polygon class="st13" points="95.8,157.4 96.2,157.5 96.4,157.9 96.2,158.2 95.8,158.1 95.5,157.6 		"/>
		<polygon class="st13" points="94.6,157 95,157.2 95.2,157.6 95,157.9 94.6,157.7 94.4,157.3 		"/>
		<polygon class="st13" points="93.4,156.7 93.8,156.8 94.1,157.2 93.8,157.5 93.4,157.4 93.2,157 		"/>
		<polygon class="st13" points="92.7,157.2 92.2,157.1 92,156.7 92.2,156.4 92.7,156.5 92.9,156.9 		"/>
	</g>
	<g>
		<polygon class="st13" points="97.4,165.2 97,165.1 96.8,164.7 97,164.4 97.4,164.5 97.6,164.9 		"/>
		<polygon class="st13" points="95.8,164.1 96.2,164.2 96.4,164.6 96.2,164.9 95.8,164.8 95.6,164.4 		"/>
		<polygon class="st13" points="94.6,163.7 95.1,163.9 95.3,164.3 95.1,164.6 94.6,164.4 94.4,164 		"/>
		<polygon class="st13" points="93.4,163.4 93.9,163.5 94.1,164 93.9,164.2 93.4,164.1 93.2,163.7 		"/>
		<polygon class="st13" points="92.7,163.9 92.3,163.8 92,163.4 92.3,163.1 92.7,163.2 92.9,163.6 		"/>
	</g>
	<g>
		<polygon class="st13" points="98.2,166.6 97.8,166.5 97.5,166.1 97.8,165.8 98.2,165.9 98.4,166.3 		"/>
		<polygon class="st13" points="96.6,165.5 97,165.6 97.2,166 97,166.3 96.6,166.2 96.4,165.8 		"/>
		<polygon class="st13" points="95.4,165.1 95.8,165.3 96.1,165.7 95.8,166 95.4,165.8 95.2,165.4 		"/>
		<polygon class="st13" points="94.2,164.8 94.7,164.9 94.9,165.4 94.7,165.6 94.2,165.5 94,165.1 		"/>
		<polygon class="st13" points="93.5,165.3 93,165.2 92.8,164.8 93,164.5 93.5,164.6 93.7,165 		"/>
	</g>
	<g>
		<polygon class="st13" points="85.6,161.5 85.1,161.4 84.9,160.9 85.1,160.7 85.6,160.8 85.8,161.2 		"/>
		<polygon class="st13" points="84,160.3 84.4,160.5 84.6,160.9 84.4,161.2 84,161 83.7,160.6 		"/>
		<polygon class="st13" points="82.8,160 83.2,160.1 83.4,160.5 83.2,160.8 82.8,160.7 82.6,160.3 		"/>
		<polygon class="st13" points="81.6,159.7 82,159.8 82.3,160.2 82,160.5 81.6,160.4 81.4,160 		"/>
		<polygon class="st13" points="80.9,160.2 80.4,160 80.2,159.6 80.4,159.3 80.9,159.5 81.1,159.9 		"/>
	</g>
	<g>
		<polygon class="st13" points="86.4,162.9 85.9,162.8 85.7,162.3 85.9,162.1 86.4,162.2 86.6,162.6 		"/>
		<polygon class="st13" points="84.7,161.7 85.2,161.9 85.4,162.3 85.2,162.6 84.7,162.4 84.5,162 		"/>
		<polygon class="st13" points="83.6,161.4 84,161.5 84.2,161.9 84,162.2 83.6,162.1 83.4,161.7 		"/>
		<polygon class="st13" points="82.4,161.1 82.8,161.2 83,161.6 82.8,161.9 82.4,161.8 82.2,161.4 		"/>
		<polygon class="st13" points="81.6,161.6 81.2,161.4 81,161 81.2,160.7 81.7,160.9 81.9,161.3 		"/>
	</g>
	<path class="st13" d="M90.5,157.5l-0.2-3.8c0,0,0-0.7,0.8-0.5c0.8,0.2,7.5,2.2,7.5,2.2s1,0.3,1,1.4s0.1,3.5,0.1,3.5"/>
	<g>
		<polygon class="st13" points="108.7,159.7 108.3,159.6 108,159.1 108.3,158.9 108.7,159 108.9,159.4 		"/>
		<polygon class="st13" points="107.1,158.5 107.5,158.7 107.7,159.1 107.5,159.4 107.1,159.2 106.9,158.8 		"/>
		<polygon class="st13" points="105.9,158.2 106.3,158.3 106.6,158.7 106.3,159 105.9,158.9 105.7,158.5 		"/>
		<polygon class="st13" points="104.7,157.9 105.2,158 105.4,158.4 105.2,158.7 104.7,158.6 104.5,158.2 		"/>
		<polygon class="st13" points="104,158.4 103.5,158.2 103.3,157.8 103.6,157.5 104,157.7 104.2,158.1 		"/>
	</g>
	<g>
		<polygon class="st13" points="109.5,161.1 109,161 108.8,160.6 109,160.3 109.5,160.4 109.7,160.8 		"/>
		<polygon class="st13" points="107.9,159.9 108.3,160.1 108.5,160.5 108.3,160.8 107.9,160.6 107.6,160.2 		"/>
		<polygon class="st13" points="106.7,159.6 107.1,159.7 107.3,160.2 107.1,160.4 106.7,160.3 106.5,159.9 		"/>
		<polygon class="st13" points="105.5,159.3 105.9,159.4 106.2,159.8 105.9,160.1 105.5,160 105.3,159.6 		"/>
		<polygon class="st13" points="104.8,159.8 104.3,159.7 104.1,159.2 104.3,158.9 104.8,159.1 105,159.5 		"/>
	</g>
	<g>
		<polygon class="st13" points="108.9,162.2 108.4,162 108.2,161.6 108.4,161.3 108.9,161.4 109.1,161.9 		"/>
		<polygon class="st13" points="107.3,161 107.7,161.1 107.9,161.5 107.7,161.8 107.3,161.7 107,161.3 		"/>
		<polygon class="st13" points="106.1,160.7 106.5,160.8 106.7,161.2 106.5,161.5 106.1,161.4 105.9,160.9 		"/>
		<polygon class="st13" points="104.9,160.3 105.3,160.4 105.5,160.9 105.3,161.2 104.9,161 104.7,160.6 		"/>
		<polygon class="st13" points="104.2,160.8 103.7,160.7 103.5,160.3 103.7,160 104.2,160.1 104.4,160.5 		"/>
	</g>
	<path class="st13" d="M102,160.4l-0.2-3.4c0,0,0-0.7,0.8-0.5c0.8,0.2,7.5,2.2,7.5,2.2s1,0.3,1,1.4c0,1.1,0.1,2.8,0.1,2.8"/>
	<path class="st13" d="M99.8,164.6l0.1,2.9c0,0,0,0.9-0.8,0.7c-0.8-0.2-7.9-2.4-7.9-2.4s-0.4-0.2-0.4-1.5c0-1.3,0-1.9,0-1.9"/>
	<g>
		<polygon class="st13" points="108.8,168.5 108.4,168.4 108.1,168 108.4,167.7 108.8,167.8 109,168.2 		"/>
		<polygon class="st13" points="107.2,167.3 107.6,167.5 107.8,167.9 107.6,168.2 107.2,168.1 107,167.6 		"/>
		<polygon class="st13" points="106,167 106.4,167.1 106.7,167.6 106.4,167.9 106,167.7 105.8,167.3 		"/>
		<polygon class="st13" points="104.8,166.7 105.3,166.8 105.5,167.2 105.3,167.5 104.8,167.4 104.6,167 		"/>
		<polygon class="st13" points="104.1,167.2 103.6,167.1 103.4,166.6 103.7,166.4 104.1,166.5 104.3,166.9 		"/>
	</g>
	<g>
		<polygon class="st13" points="109.6,169.9 109.1,169.8 108.9,169.4 109.1,169.1 109.6,169.2 109.8,169.6 		"/>
		<polygon class="st13" points="108,168.8 108.4,168.9 108.6,169.3 108.4,169.6 108,169.5 107.7,169 		"/>
		<polygon class="st13" points="106.8,168.4 107.2,168.6 107.4,169 107.2,169.3 106.8,169.1 106.6,168.7 		"/>
		<polygon class="st13" points="105.6,168.1 106,168.2 106.3,168.6 106,168.9 105.6,168.8 105.4,168.4 		"/>
		<polygon class="st13" points="104.9,168.6 104.4,168.5 104.2,168.1 104.4,167.8 104.9,167.9 105.1,168.3 		"/>
	</g>
	<path class="st13" d="M111.2,167.8l0.1,2.9c0,0,0,0.9-0.8,0.7c-0.8-0.2-7.6-2.3-7.6-2.3s-0.7-0.3-0.7-1.5s0-2.4,0-2.4"/>
	<g>
		<polygon class="st13" points="119.9,163 119.5,162.9 119.3,162.5 119.5,162.2 119.9,162.3 120.1,162.7 		"/>
		<polygon class="st13" points="118.3,161.8 118.7,162 119,162.4 118.7,162.7 118.3,162.6 118.1,162.1 		"/>
		<polygon class="st13" points="117.1,161.5 117.6,161.6 117.8,162.1 117.6,162.4 117.1,162.2 116.9,161.8 		"/>
		<polygon class="st13" points="115.9,161.2 116.4,161.3 116.6,161.7 116.4,162 115.9,161.9 115.7,161.5 		"/>
		<polygon class="st13" points="115.2,161.7 114.8,161.6 114.6,161.1 114.8,160.9 115.2,161 115.4,161.4 		"/>
	</g>
	<g>
		<polygon class="st13" points="133.8,166.2 133.4,166.1 133.1,165.7 133.4,165.4 133.8,165.5 134,166 		"/>
		<polygon class="st13" points="132.2,165.1 132.6,165.2 132.8,165.6 132.6,165.9 132.2,165.8 132,165.4 		"/>
		<polygon class="st13" points="131,164.7 131.4,164.9 131.7,165.3 131.4,165.6 131,165.5 130.8,165 		"/>
		<polygon class="st13" points="129.8,164.4 130.3,164.5 130.5,165 130.3,165.3 129.8,165.1 129.6,164.7 		"/>
		<polygon class="st13" points="129.1,164.9 128.6,164.8 128.4,164.4 128.6,164.1 129.1,164.2 129.3,164.6 		"/>
	</g>
	<g>
		<polygon class="st13" points="133.9,176.1 133.5,176 133.2,175.6 133.5,175.3 133.9,175.4 134.1,175.8 		"/>
		<polygon class="st13" points="132.3,174.9 132.7,175 132.9,175.5 132.7,175.7 132.3,175.6 132.1,175.2 		"/>
		<polygon class="st13" points="131.1,174.5 131.5,174.7 131.8,175.1 131.5,175.4 131.1,175.3 130.9,174.8 		"/>
		<polygon class="st13" points="129.9,174.2 130.4,174.3 130.6,174.7 130.4,175 129.9,174.9 129.7,174.5 		"/>
		<polygon class="st13" points="129.2,174.7 128.8,174.6 128.5,174.1 128.8,173.8 129.2,174 129.4,174.4 		"/>
	</g>
	<g>
		<polygon class="st13" points="134.6,177.5 134.1,177.3 133.9,176.9 134.1,176.6 134.6,176.7 134.8,177.2 		"/>
		<polygon class="st13" points="133,176.3 133.4,176.4 133.6,176.8 133.4,177.1 133,177 132.7,176.6 		"/>
		<polygon class="st13" points="131.8,175.9 132.2,176 132.4,176.5 132.2,176.7 131.8,176.6 131.6,176.2 		"/>
		<polygon class="st13" points="130.6,175.6 131.1,175.7 131.3,176.1 131,176.4 130.6,176.3 130.4,175.8 		"/>
		<polygon class="st13" points="129.9,176 129.4,175.9 129.2,175.5 129.4,175.2 129.9,175.3 130.1,175.7 		"/>
	</g>
	<g>
		<polygon class="st13" points="133,167.2 132.6,167.1 132.4,166.6 132.6,166.4 133,166.5 133.2,166.9 		"/>
		<polygon class="st13" points="131.4,166 131.8,166.2 132.1,166.6 131.8,166.9 131.4,166.7 131.2,166.3 		"/>
		<polygon class="st13" points="130.2,165.7 130.7,165.8 130.9,166.2 130.7,166.5 130.2,166.4 130,166 		"/>
		<polygon class="st13" points="129.1,165.4 129.5,165.5 129.7,165.9 129.5,166.2 129.1,166.1 128.8,165.7 		"/>
		<polygon class="st13" points="128.3,165.9 127.9,165.7 127.7,165.3 127.9,165 128.3,165.2 128.5,165.6 		"/>
	</g>
	<g>
		<polygon class="st13" points="135.9,169.3 135.5,169.2 135.2,168.8 135.5,168.5 135.9,168.6 136.1,169 		"/>
		<polygon class="st13" points="134.2,168.1 134.6,168.2 134.8,168.6 134.6,168.9 134.2,168.8 134,168.4 		"/>
		<polygon class="st13" points="132.9,167.7 133.4,167.9 133.6,168.3 133.4,168.6 132.9,168.4 132.7,168 		"/>
		<polygon class="st13" points="131.7,167.4 132.1,167.5 132.3,167.9 132.1,168.2 131.7,168.1 131.4,167.7 		"/>
		<polygon class="st13" points="130.4,167 130.8,167.1 131.1,167.6 130.8,167.8 130.4,167.7 130.2,167.3 		"/>
		<polygon class="st13" points="129.1,166.6 129.6,166.8 129.8,167.2 129.6,167.5 129.1,167.4 128.9,166.9 		"/>
		<polygon class="st13" points="127.9,166.3 128.3,166.4 128.5,166.8 128.3,167.1 127.9,167 127.7,166.6 		"/>
		<polygon class="st13" points="127,166.8 126.6,166.6 126.4,166.2 126.6,165.9 127.1,166 127.3,166.5 		"/>
	</g>
	<g>
		<polygon class="st13" points="135.8,175.4 135.3,175.2 135.1,174.8 135.3,174.5 135.8,174.6 136,175.1 		"/>
		<polygon class="st13" points="134.1,174.2 134.5,174.3 134.7,174.7 134.5,175 134.1,174.9 133.8,174.4 		"/>
		<polygon class="st13" points="132.8,173.8 133.2,173.9 133.4,174.3 133.2,174.6 132.8,174.5 132.6,174.1 		"/>
		<polygon class="st13" points="131.5,173.4 132,173.6 132.2,174 132,174.3 131.5,174.1 131.3,173.7 		"/>
		<polygon class="st13" points="130.3,173.1 130.7,173.2 130.9,173.6 130.7,173.9 130.3,173.8 130,173.4 		"/>
		<polygon class="st13" points="129,172.7 129.4,172.8 129.7,173.2 129.4,173.5 129,173.4 128.8,173 		"/>
		<polygon class="st13" points="127.7,172.3 128.2,172.5 128.4,172.9 128.2,173.2 127.7,173 127.5,172.6 		"/>
		<polygon class="st13" points="126.9,172.8 126.5,172.7 126.3,172.3 126.5,172 126.9,172.1 127.1,172.5 		"/>
	</g>
	<g>
		<polygon class="st13" points="120.7,164.4 120.3,164.3 120,163.9 120.3,163.6 120.7,163.7 120.9,164.1 		"/>
		<polygon class="st13" points="119.1,163.3 119.5,163.4 119.7,163.8 119.5,164.1 119.1,164 118.9,163.5 		"/>
		<polygon class="st13" points="117.9,162.9 118.3,163.1 118.6,163.5 118.3,163.8 117.9,163.6 117.7,163.2 		"/>
		<polygon class="st13" points="116.7,162.6 117.2,162.7 117.4,163.1 117.2,163.4 116.7,163.3 116.5,162.9 		"/>
		<polygon class="st13" points="116,163.1 115.5,163 115.3,162.6 115.5,162.3 116,162.4 116.2,162.8 		"/>
	</g>
	<g>
		<polygon class="st13" points="120.1,165.5 119.6,165.3 119.4,164.9 119.7,164.6 120.1,164.8 120.3,165.2 		"/>
		<polygon class="st13" points="118.5,164.3 118.9,164.4 119.1,164.9 118.9,165.1 118.5,165 118.3,164.6 		"/>
		<polygon class="st13" points="117.3,164 117.7,164.1 117.9,164.5 117.7,164.8 117.3,164.7 117.1,164.3 		"/>
		<polygon class="st13" points="116.1,163.6 116.6,163.8 116.8,164.2 116.5,164.5 116.1,164.4 115.9,163.9 		"/>
		<polygon class="st13" points="115.4,164.2 114.9,164 114.7,163.6 114.9,163.3 115.4,163.4 115.6,163.9 		"/>
	</g>
	<path class="st13" d="M113.2,163.7l-0.2-3.4c0,0,0-0.7,0.8-0.5c0.8,0.2,7.5,2.2,7.5,2.2s1,0.3,1,1.4s0.1,2.8,0.1,2.8"/>
	<g>
		<polygon class="st13" points="120,171.8 119.6,171.7 119.4,171.3 119.6,171 120,171.1 120.2,171.6 		"/>
		<polygon class="st13" points="118.4,170.7 118.8,170.8 119.1,171.2 118.8,171.5 118.4,171.4 118.2,171 		"/>
		<polygon class="st13" points="117.2,170.3 117.7,170.5 117.9,170.9 117.7,171.2 117.2,171.1 117,170.6 		"/>
		<polygon class="st13" points="116,170 116.5,170.1 116.7,170.6 116.5,170.9 116,170.7 115.8,170.3 		"/>
		<polygon class="st13" points="115.3,170.5 114.9,170.4 114.7,170 114.9,169.7 115.3,169.8 115.5,170.2 		"/>
	</g>
	<g>
		<polygon class="st13" points="120.8,173.2 120.4,173.1 120.1,172.7 120.4,172.4 120.8,172.5 121,173 		"/>
		<polygon class="st13" points="119.2,172.1 119.6,172.2 119.8,172.6 119.6,172.9 119.2,172.8 119,172.4 		"/>
		<polygon class="st13" points="118,171.7 118.4,171.9 118.7,172.3 118.4,172.6 118,172.5 117.8,172 		"/>
		<polygon class="st13" points="116.8,171.4 117.3,171.5 117.5,172 117.3,172.3 116.8,172.1 116.6,171.7 		"/>
		<polygon class="st13" points="116.1,171.9 115.6,171.8 115.4,171.4 115.7,171.1 116.1,171.2 116.3,171.6 		"/>
	</g>
	<path class="st13" d="M122.4,171.4l0.1,2.7c0,0,0,0.9-0.8,0.7c-0.8-0.2-7.6-2.3-7.6-2.3s-0.7-0.3-0.7-1.5s0-2.4,0-2.4"/>
	<path d="M71.6,151.7l-0.9-0.2c-0.1,0-0.2-0.2-0.2-0.3l0-0.1c0-0.1,0.2-0.2,0.3-0.2l0.9,0.2c0.1,0,0.2,0.2,0.2,0.3l0,0.1
		C71.8,151.7,71.7,151.7,71.6,151.7z"/>
	<path d="M71.6,156.7l-0.9-0.2c-0.1,0-0.2-0.2-0.2-0.3l0-0.1c0-0.1,0.2-0.2,0.3-0.2l0.9,0.2c0.1,0,0.2,0.2,0.2,0.3l0,0.1
		C71.8,156.7,71.7,156.8,71.6,156.7z"/>
	<path d="M72.3,154.3l-0.9-0.2c-0.1,0-0.2-0.1-0.2-0.3l0-0.1c0-0.1,0.1-0.2,0.3-0.2l0.9,0.2c0.1,0,0.2,0.1,0.2,0.3l0,0.1
		C72.5,154.3,72.4,154.3,72.3,154.3z"/>
	<path d="M146.4,173.1l-0.9-0.2c-0.1,0-0.2-0.2-0.2-0.3l0-0.1c0-0.1,0.2-0.2,0.3-0.2l0.9,0.2c0.1,0,0.2,0.2,0.2,0.3l0,0.1
		C146.6,173.1,146.5,173.2,146.4,173.1z"/>
	<path d="M146.4,178.1l-0.9-0.2c-0.1,0-0.2-0.2-0.2-0.3l0-0.1c0-0.1,0.2-0.2,0.3-0.2l0.9,0.2c0.1,0,0.2,0.2,0.2,0.3l0,0.1
		C146.6,178.1,146.5,178.2,146.4,178.1z"/>
	<path d="M147.1,175.7l-0.9-0.2c-0.1,0-0.2-0.1-0.2-0.3l0-0.1c0-0.1,0.1-0.2,0.3-0.2l0.9,0.2c0.1,0,0.2,0.1,0.2,0.3l0,0.1
		C147.4,175.7,147.2,175.8,147.1,175.7z"/>
	<g>
		<polygon class="st13" points="129.5,169.7 129.1,169.6 128.9,169.2 129.1,168.9 129.5,169 129.8,169.4 		"/>
		<polygon class="st13" points="127.9,168.6 128.4,168.7 128.6,169.1 128.4,169.4 127.9,169.3 127.7,168.8 		"/>
		<polygon class="st13" points="127.2,169.1 126.8,169 126.5,168.5 126.8,168.2 127.2,168.4 127.4,168.8 		"/>
	</g>
	<g>
		<polygon class="st13" points="129.7,171 129.2,170.9 129,170.4 129.2,170.2 129.7,170.3 129.9,170.7 		"/>
		<polygon class="st13" points="128.1,169.8 128.5,169.9 128.7,170.4 128.5,170.7 128.1,170.5 127.9,170.1 		"/>
		<polygon class="st13" points="127.4,170.3 126.9,170.2 126.7,169.8 126.9,169.5 127.4,169.6 127.6,170 		"/>
	</g>
	<g>
		<polygon class="st13" points="129.2,172.1 128.8,172 128.6,171.6 128.8,171.3 129.2,171.4 129.4,171.8 		"/>
		<polygon class="st13" points="127.6,170.9 128,171 128.2,171.5 128,171.7 127.6,171.6 127.4,171.2 		"/>
		<polygon class="st13" points="126.8,171.4 126.4,171.3 126.2,170.8 126.4,170.5 126.8,170.7 127,171.1 		"/>
	</g>
	<g>
		<polygon class="st13" points="128.9,168.4 128.4,168.3 128.2,167.8 128.5,167.6 128.9,167.7 129.1,168.1 		"/>
		<polygon class="st13" points="127.3,167.2 127.7,167.4 127.9,167.8 127.7,168.1 127.3,168 127.1,167.5 		"/>
		<polygon class="st13" points="126.5,167.8 126.1,167.6 125.9,167.2 126.1,166.9 126.5,167.1 126.8,167.5 		"/>
	</g>
	<path class="st13" d="M138.8,170.5l0-1c0,0,0.4-0.2,0.7,0.2c0.2,0.4,0.6,0.5,1.2,0.5s0.9,0.4,0.9,0.6c0,0.2,0.5,0.8-0.4,1.2"/>
	<path class="st13" d="M139,175l0.1,0.8c0,0,0,0.3,0.6,0.2s0.5-0.3,1.1,0.1c0.6,0.5,0.9-0.2,0.9-0.2s0.5-0.9-0.4-1.2"/>
	<polyline class="st12" points="239.7,151.5 240.9,151.5 266.9,140.7 266.9,139.5 266.7,138.9 241.1,149.7 240.9,151.5 	"/>
	<polyline class="st0" points="239.1,140.2 240.7,141.3 265.9,130.7 264.1,130.1 	"/>
</g>
<g>
	<polygon class="st12" points="176.2,109.1 168.9,112.4 168.8,287 176.4,285.9 176.3,166.3 	"/>
	<polyline class="st12" points="168.7,112.3 164.6,111.4 164.4,286.2 168.8,286.9 	"/>
	<polyline class="st12" points="163.9,111.5 159.8,110.9 159.7,284.4 164.1,284.7 	"/>
	<g>
		
			<ellipse transform="matrix(0.9971 7.593594e-02 -7.593594e-02 0.9971 9.6006 -11.9466)" class="st1" cx="161.9" cy="120.3" rx="1" ry="1"/>
		
			<ellipse transform="matrix(0.9971 7.593594e-02 -7.593594e-02 0.9971 9.822 -11.9382)" class="st1" cx="161.9" cy="123.2" rx="1" ry="1"/>
		
			<ellipse transform="matrix(0.9971 7.593594e-02 -7.593594e-02 0.9971 10.0433 -11.9297)" class="st1" cx="161.9" cy="126.1" rx="1" ry="1"/>
	</g>
	<g>
		
			<ellipse transform="matrix(0.9971 7.593594e-02 -7.593594e-02 0.9971 9.0756 -11.9665)" class="st1" cx="161.9" cy="113.4" rx="1" ry="1"/>
		
			<ellipse transform="matrix(0.9971 7.593594e-02 -7.593594e-02 0.9971 9.2969 -11.9581)" class="st1" cx="161.9" cy="116.3" rx="1" ry="1"/>
	</g>
	<g>
		
			<ellipse transform="matrix(0.9971 7.593594e-02 -7.593594e-02 0.9971 10.3316 -11.9188)" class="st1" cx="161.9" cy="129.9" rx="1" ry="1"/>
		
			<ellipse transform="matrix(0.9971 7.593594e-02 -7.593594e-02 0.9971 10.5529 -11.9104)" class="st1" cx="161.9" cy="132.8" rx="1" ry="1"/>
		
			<ellipse transform="matrix(0.9971 7.593594e-02 -7.593594e-02 0.9971 10.7743 -11.902)" class="st1" cx="161.9" cy="135.7" rx="1" ry="1"/>
	</g>
	<g>
		
			<ellipse transform="matrix(0.9971 7.593594e-02 -7.593594e-02 0.9971 11.0625 -11.891)" class="st1" cx="161.9" cy="139.5" rx="1" ry="1"/>
		
			<ellipse transform="matrix(0.9971 7.593594e-02 -7.593594e-02 0.9971 11.2839 -11.8826)" class="st1" cx="161.9" cy="142.4" rx="1" ry="1"/>
		
			<ellipse transform="matrix(0.9971 7.593594e-02 -7.593594e-02 0.9971 11.5052 -11.8742)" class="st1" cx="161.9" cy="145.4" rx="1" ry="1"/>
	</g>
	<g>
		
			<ellipse transform="matrix(0.9971 7.593594e-02 -7.593594e-02 0.9971 11.7935 -11.8632)" class="st1" cx="161.9" cy="149.2" rx="1" ry="1"/>
		
			<ellipse transform="matrix(0.9971 7.593594e-02 -7.593594e-02 0.9971 12.0148 -11.8548)" class="st1" cx="161.9" cy="152.1" rx="1" ry="1"/>
		
			<ellipse transform="matrix(0.9971 7.593594e-02 -7.593594e-02 0.9971 12.2362 -11.8464)" class="st1" cx="161.9" cy="155" rx="1" ry="1"/>
	</g>
	<g>
		
			<ellipse transform="matrix(0.9971 7.593594e-02 -7.593594e-02 0.9971 12.5244 -11.8354)" class="st1" cx="161.9" cy="158.8" rx="1" ry="1"/>
		
			<ellipse transform="matrix(0.9971 7.593594e-02 -7.593594e-02 0.9971 12.7458 -11.827)" class="st1" cx="161.9" cy="161.7" rx="1" ry="1"/>
		
			<ellipse transform="matrix(0.9971 7.593594e-02 -7.593594e-02 0.9971 12.9671 -11.8186)" class="st1" cx="161.9" cy="164.6" rx="1" ry="1"/>
	</g>
	<g>
		
			<ellipse transform="matrix(0.9971 7.593594e-02 -7.593594e-02 0.9971 13.2554 -11.8076)" class="st1" cx="161.9" cy="168.4" rx="1" ry="1"/>
		
			<ellipse transform="matrix(0.9971 7.593594e-02 -7.593594e-02 0.9971 13.4767 -11.7992)" class="st1" cx="161.9" cy="171.3" rx="1" ry="1"/>
		
			<ellipse transform="matrix(0.9971 7.593594e-02 -7.593594e-02 0.9971 13.6981 -11.7908)" class="st1" cx="161.9" cy="174.2" rx="1" ry="1"/>
	</g>
	<g>
		
			<ellipse transform="matrix(0.9971 7.593594e-02 -7.593594e-02 0.9971 13.9863 -11.7798)" class="st1" cx="161.9" cy="178" rx="1" ry="1"/>
		
			<ellipse transform="matrix(0.9971 7.593594e-02 -7.593594e-02 0.9971 14.2077 -11.7714)" class="st1" cx="161.9" cy="180.9" rx="1" ry="1"/>
		
			<ellipse transform="matrix(0.9971 7.593594e-02 -7.593594e-02 0.9971 14.429 -11.763)" class="st1" cx="161.9" cy="183.9" rx="1" ry="1"/>
	</g>
	<g>
		
			<ellipse transform="matrix(0.9971 7.593594e-02 -7.593594e-02 0.9971 14.7173 -11.752)" class="st1" cx="161.9" cy="187.7" rx="1" ry="1"/>
		
			<ellipse transform="matrix(0.9971 7.593594e-02 -7.593594e-02 0.9971 14.9386 -11.7436)" class="st1" cx="161.9" cy="190.6" rx="1" ry="1"/>
		
			<ellipse transform="matrix(0.9971 7.593594e-02 -7.593594e-02 0.9971 15.16 -11.7352)" class="st1" cx="161.9" cy="193.5" rx="1" ry="1"/>
	</g>
	<g>
		
			<ellipse transform="matrix(0.9971 7.593594e-02 -7.593594e-02 0.9971 15.4482 -11.7242)" class="st1" cx="161.9" cy="197.3" rx="1" ry="1"/>
		
			<ellipse transform="matrix(0.9971 7.593594e-02 -7.593594e-02 0.9971 15.6696 -11.7158)" class="st1" cx="161.9" cy="200.2" rx="1" ry="1"/>
		
			<ellipse transform="matrix(0.9971 7.593594e-02 -7.593594e-02 0.9971 15.8909 -11.7074)" class="st1" cx="161.9" cy="203.1" rx="1" ry="1"/>
	</g>
	<g>
		
			<ellipse transform="matrix(0.9971 7.593594e-02 -7.593594e-02 0.9971 16.1792 -11.6964)" class="st1" cx="161.9" cy="206.9" rx="1" ry="1"/>
		
			<ellipse transform="matrix(0.9971 7.593594e-02 -7.593594e-02 0.9971 16.4005 -11.688)" class="st1" cx="161.9" cy="209.8" rx="1" ry="1"/>
		
			<ellipse transform="matrix(0.9971 7.593594e-02 -7.593594e-02 0.9971 16.6219 -11.6796)" class="st1" cx="161.9" cy="212.7" rx="1" ry="1"/>
	</g>
	<g>
		
			<ellipse transform="matrix(0.9971 7.593594e-02 -7.593594e-02 0.9971 16.9101 -11.6686)" class="st1" cx="161.9" cy="216.5" rx="1" ry="1"/>
		
			<ellipse transform="matrix(0.9971 7.593594e-02 -7.593594e-02 0.9971 17.1315 -11.6602)" class="st1" cx="161.9" cy="219.4" rx="1" ry="1"/>
		
			<ellipse transform="matrix(0.9971 7.593594e-02 -7.593594e-02 0.9971 17.3528 -11.6518)" class="st1" cx="161.9" cy="222.4" rx="1" ry="1"/>
	</g>
	<g>
		
			<ellipse transform="matrix(0.9971 7.593594e-02 -7.593594e-02 0.9971 17.6411 -11.6409)" class="st1" cx="161.9" cy="226.2" rx="1" ry="1"/>
		
			<ellipse transform="matrix(0.9971 7.593594e-02 -7.593594e-02 0.9971 17.8624 -11.6324)" class="st1" cx="161.9" cy="229.1" rx="1" ry="1"/>
		
			<ellipse transform="matrix(0.9971 7.593594e-02 -7.593594e-02 0.9971 18.0838 -11.624)" class="st1" cx="161.9" cy="232" rx="1" ry="1"/>
	</g>
	<g>
		
			<ellipse transform="matrix(0.9971 7.593594e-02 -7.593594e-02 0.9971 18.372 -11.6131)" class="st1" cx="161.9" cy="235.8" rx="1" ry="1"/>
		
			<ellipse transform="matrix(0.9971 7.593594e-02 -7.593594e-02 0.9971 18.5934 -11.6046)" class="st1" cx="161.9" cy="238.7" rx="1" ry="1"/>
		
			<ellipse transform="matrix(0.9971 7.593594e-02 -7.593594e-02 0.9971 18.8147 -11.5962)" class="st1" cx="161.9" cy="241.6" rx="1" ry="1"/>
	</g>
	<g>
		
			<ellipse transform="matrix(0.9971 7.593594e-02 -7.593594e-02 0.9971 19.103 -11.5853)" class="st1" cx="161.9" cy="245.4" rx="1" ry="1"/>
		
			<ellipse transform="matrix(0.9971 7.593594e-02 -7.593594e-02 0.9971 19.3243 -11.5769)" class="st1" cx="161.9" cy="248.3" rx="1" ry="1"/>
		
			<ellipse transform="matrix(0.9971 7.593594e-02 -7.593594e-02 0.9971 19.5457 -11.5684)" class="st1" cx="161.9" cy="251.2" rx="1" ry="1"/>
	</g>
	<g>
		
			<ellipse transform="matrix(0.9971 7.593594e-02 -7.593594e-02 0.9971 19.8339 -11.5575)" class="st1" cx="161.9" cy="255" rx="1" ry="1"/>
		
			<ellipse transform="matrix(0.9971 7.593594e-02 -7.593594e-02 0.9971 20.0553 -11.5491)" class="st1" cx="161.9" cy="258" rx="1" ry="1"/>
		
			<ellipse transform="matrix(0.9971 7.593594e-02 -7.593594e-02 0.9971 20.2766 -11.5406)" class="st1" cx="161.9" cy="260.9" rx="1" ry="1"/>
	</g>
	<g>
		
			<ellipse transform="matrix(0.9971 7.593594e-02 -7.593594e-02 0.9971 20.5649 -11.5297)" class="st1" cx="161.9" cy="264.7" rx="1" ry="1"/>
		
			<ellipse transform="matrix(0.9971 7.593594e-02 -7.593594e-02 0.9971 20.7862 -11.5213)" class="st1" cx="161.9" cy="267.6" rx="1" ry="1"/>
		
			<ellipse transform="matrix(0.9971 7.593594e-02 -7.593594e-02 0.9971 21.0076 -11.5129)" class="st1" cx="161.9" cy="270.5" rx="1" ry="1"/>
	</g>
	<g>
		
			<ellipse transform="matrix(0.9971 7.593594e-02 -7.593594e-02 0.9971 21.2958 -11.5019)" class="st1" cx="161.9" cy="274.3" rx="1" ry="1"/>
		
			<ellipse transform="matrix(0.9971 7.593594e-02 -7.593594e-02 0.9971 21.5172 -11.4935)" class="st1" cx="161.9" cy="277.2" rx="1" ry="1"/>
		
			<ellipse transform="matrix(0.9971 7.593594e-02 -7.593594e-02 0.9971 21.7385 -11.4851)" class="st1" cx="161.9" cy="280.1" rx="1" ry="1"/>
	</g>
</g>
<g>
	<path class="st12" d="M160.1,187c3,0.9,4.1,1.3,4.1,1.3s1.4,0.9,1.3-1.6c-0.1-2.5,0-10.6,0-10.6s0.1-1.6-1.5-2.6l-3.7-1.1"/>
	<path class="st9" d="M164.1,176.8c-0.3,0.6-1.2,0.8-1.8,0.4s-0.9-1.2-0.6-1.8c0.3-0.6,1.2-0.8,1.8-0.4
		C164.2,175.3,164.5,176.1,164.1,176.8z"/>
	<path class="st9" d="M164.1,181.4c-0.3,0.6-1.2,0.8-1.8,0.4s-0.9-1.2-0.6-1.8c0.3-0.6,1.2-0.8,1.8-0.4
		C164.2,179.9,164.5,180.8,164.1,181.4z"/>
	<path class="st9" d="M164.1,186c-0.3,0.6-1.2,0.8-1.8,0.4c-0.7-0.4-0.9-1.2-0.6-1.8c0.3-0.6,1.2-0.8,1.8-0.4
		C164.2,184.6,164.5,185.4,164.1,186z"/>
</g>
<g>
	<g>
		<path class="st14" d="M130.4,188.5l2.5-1.2c0,0,2.2,0.8,1.3,3.3l-2.4,1.2"/>
		
			<ellipse transform="matrix(0.9542 -0.2992 0.2992 0.9542 -51.2484 47.3976)" class="st14" cx="129.2" cy="191.1" rx="2.4" ry="3.6"/>
		
			<ellipse transform="matrix(0.966 -0.2584 0.2584 0.966 -45.0266 39.8044)" class="st14" cx="128.9" cy="191.2" rx="2.1" ry="3.2"/>
		<path class="st13" d="M132.5,187.6c0.6,0.2,1.2,0.8,1.5,1.7c0.1,0.6,0.1,1.1,0,1.6"/>
		<path class="st13" d="M131.9,187.8c0.7,0.2,1.3,0.8,1.5,1.7c0.2,0.6,0.2,1.1,0,1.6"/>
		<path class="st13" d="M131.3,188.1c0.6,0.2,1.2,0.8,1.5,1.7c0.1,0.6,0.1,1.1,0,1.6"/>
		<path class="st13" d="M130.8,188.3c0.6,0.2,1.2,0.8,1.5,1.7c0.1,0.6,0.1,1.1,0,1.6"/>
		<path class="st13" d="M127.6,191.8c0,0-0.1-0.5,1.6-1.2"/>
		<path class="st13" d="M127.6,189.9c0,0,0.1,1.7,1.6,2.7"/>
	</g>
</g>
<g>
	<g>
		<path class="st14" d="M9.7,166.4l2.5-1.2c0,0,2.2,0.8,1.3,3.3l-2.4,1.2"/>
		
			<ellipse transform="matrix(0.9542 -0.2992 0.2992 0.9542 -50.1524 10.2662)" class="st14" cx="8.4" cy="168.9" rx="2.4" ry="3.6"/>
		<ellipse transform="matrix(0.966 -0.2584 0.2584 0.966 -43.4043 7.8569)" class="st14" cx="8.2" cy="169" rx="2.1" ry="3.2"/>
		<path class="st13" d="M11.8,165.4c0.6,0.2,1.2,0.8,1.5,1.7c0.1,0.6,0.1,1.1,0,1.6"/>
		<path class="st13" d="M11.1,165.7c0.7,0.2,1.3,0.8,1.5,1.7c0.2,0.6,0.2,1.1,0,1.6"/>
		<path class="st13" d="M10.6,166c0.6,0.2,1.2,0.8,1.5,1.7c0.1,0.6,0.1,1.1,0,1.6"/>
		<path class="st13" d="M10.1,166.2c0.6,0.2,1.2,0.8,1.5,1.7c0.1,0.6,0.1,1.1,0,1.6"/>
		<path class="st13" d="M6.9,169.7c0,0-0.1-0.5,1.6-1.2"/>
		<path class="st13" d="M6.9,167.7c0,0,0.1,1.7,1.6,2.7"/>
	</g>
</g>
<g>
	<g>
		<path class="st14" d="M130.1,198.8l2.5-1.2c0,0,2.2,0.8,1.3,3.3l-2.4,1.2"/>
		
			<ellipse transform="matrix(0.9542 -0.2992 0.2992 0.9542 -54.3341 47.7627)" class="st14" cx="128.8" cy="201.3" rx="2.4" ry="3.6"/>
		
			<ellipse transform="matrix(0.966 -0.2584 0.2584 0.966 -47.6898 40.0622)" class="st14" cx="128.5" cy="201.4" rx="2.1" ry="3.2"/>
		<path class="st13" d="M132.1,197.8c0.6,0.2,1.2,0.8,1.5,1.7c0.1,0.6,0.1,1.1,0,1.6"/>
		<path class="st13" d="M131.5,198.1c0.7,0.2,1.3,0.8,1.5,1.7c0.2,0.6,0.2,1.1,0,1.6"/>
		<path class="st13" d="M131,198.4c0.6,0.2,1.2,0.8,1.5,1.7c0.1,0.6,0.1,1.1,0,1.6"/>
		<path class="st13" d="M130.4,198.6c0.6,0.2,1.2,0.8,1.5,1.7c0.1,0.6,0.1,1.1,0,1.6"/>
		<path class="st13" d="M127.2,202.1c0,0-0.1-0.5,1.6-1.2"/>
		<path class="st13" d="M127.2,200.1c0,0,0.1,1.7,1.6,2.7"/>
	</g>
</g>
<g>
	<g>
		<line class="st15" x1="161.7" y1="185.6" x2="135.3" y2="198.2"/>
	</g>
	<g>
		<line class="st16" x1="161.7" y1="185.6" x2="135.3" y2="198.2"/>
	</g>
</g>
<g>
	<g>
		<line class="st15" x1="45.2" y1="150.7" x2="15.1" y2="165.5"/>
	</g>
	<g>
		<line class="st16" x1="45.2" y1="150.7" x2="15.1" y2="165.5"/>
	</g>
</g>
<g>
	<g>
		<line class="st15" x1="45.2" y1="141.7" x2="14.5" y2="155.3"/>
	</g>
	<g>
		<line class="st16" x1="45.2" y1="141.7" x2="14.5" y2="155.3"/>
	</g>
</g>
<g>
	<g>
		<line class="st15" x1="162.6" y1="176" x2="135.5" y2="188"/>
	</g>
	<g>
		<line class="st16" x1="162.6" y1="176" x2="135.5" y2="188"/>
	</g>
</g>
<g>
	<g>
		<path class="st14" d="M8.2,155.2l2.5-1.2c0,0,2.2,0.8,1.3,3.3l-2.4,1.2"/>
		<ellipse transform="matrix(0.9542 -0.2992 0.2992 0.9542 -46.8864 9.2933)" class="st14" cx="6.9" cy="157.8" rx="2.4" ry="3.6"/>
		<ellipse transform="matrix(0.966 -0.2584 0.2584 0.966 -40.5747 7.079)" class="st14" cx="6.6" cy="157.9" rx="2.1" ry="3.2"/>
		<path class="st13" d="M10.2,154.3c0.6,0.2,1.2,0.8,1.5,1.7c0.1,0.6,0.1,1.1,0,1.6"/>
		<path class="st13" d="M9.6,154.5c0.7,0.2,1.3,0.8,1.5,1.7c0.2,0.6,0.2,1.1,0,1.6"/>
		<path class="st13" d="M9.1,154.8c0.6,0.2,1.2,0.8,1.5,1.7c0.1,0.6,0.1,1.1,0,1.6"/>
		<path class="st13" d="M8.5,155c0.6,0.2,1.2,0.8,1.5,1.7c0.1,0.6,0.1,1.1,0,1.6"/>
		<path class="st13" d="M5.3,158.5c0,0-0.1-0.5,1.6-1.2"/>
		<path class="st13" d="M5.3,156.6c0,0,0.1,1.7,1.6,2.7"/>
	</g>
</g>
</svg>
