<?xml version="1.0" encoding="utf-8"?>
<!-- Generator: Adobe Illustrator 19.1.0, SVG Export Plug-In . SVG Version: 6.00 Build 0)  -->
<svg version="1.1" id="Layer_2" xmlns="http://www.w3.org/2000/svg" xmlns:xlink="http://www.w3.org/1999/xlink" x="0px" y="0px"
	 width="342px" height="246.4px" viewBox="0 0 342 246.4" style="enable-background:new 0 0 342 246.4;" xml:space="preserve">
<style type="text/css">
	.st0{fill:none;stroke:#000000;stroke-width:0.5478;stroke-linecap:round;stroke-linejoin:round;stroke-miterlimit:10;}
	.st1{fill:none;stroke:#000000;stroke-width:0.5;stroke-linecap:round;stroke-linejoin:round;stroke-miterlimit:10;}
	.st2{fill:none;stroke:#000000;stroke-width:0.48;stroke-linecap:round;stroke-linejoin:round;stroke-miterlimit:10;}
	.st3{fill:#FFFFFF;stroke:#000000;stroke-width:0.5369;stroke-linecap:round;stroke-linejoin:round;stroke-miterlimit:10;}
	.st4{fill:none;stroke:#000000;stroke-width:0.5369;stroke-linecap:round;stroke-linejoin:round;stroke-miterlimit:10;}
	.st5{fill:#FFFFFF;stroke:#000000;stroke-width:0.5;stroke-linecap:round;stroke-linejoin:round;stroke-miterlimit:10;}
	
		.st6{fill:none;stroke:#000000;stroke-width:0.5343;stroke-linecap:round;stroke-linejoin:round;stroke-miterlimit:10;stroke-dasharray:2;}
	.st7{fill:#FFFFFF;stroke:#000000;stroke-width:0.503;stroke-linecap:round;stroke-linejoin:round;stroke-miterlimit:10;}
	.st8{fill:none;stroke:#000000;stroke-width:0.4829;stroke-linecap:round;stroke-linejoin:round;stroke-miterlimit:10;}
	.st9{fill:#FFFFFF;}
	.st10{font-family:'Arial-BoldMT';}
	.st11{font-size:10.0406px;}
	.st12{fill:#FFFFFF;stroke:#000000;stroke-width:0.25;stroke-miterlimit:10;}
</style>
<path class="st0" d="M297.8,95.7l-30,12.4l-1.8-1.3l-61.2,25.1l-4,1.6c-0.5,0.2-0.9,0.4-1.4,0.5c-4.1,1.5-6.9,1.8-8.3,1.8
	c-0.7,0-1-1.2-1-1.2l-0.3-5.5c1.6-3.8,10-6.4,10-6.4L266,95.5l0.9-2.5l30.7-13.1l0.1,6.4l-6.1,2.5c0,0-1.7,0.9-1.5,2.5
	c0,0,0.6,1.3,2.2,0.6c1.5-0.6,5.5-2.2,5.5-2.2V95.7z"/>
<path class="st0" d="M283.3,91.6c0,0,1.8,0,1.9,1.8c0.1,1.8-2.3,3.4-2.3,3.4l-80.4,33.1c0,0-2.9,1.5-4-1c0,0-0.6-2.1,3.3-3.7
	C205.7,123.5,283.3,91.6,283.3,91.6z"/>
<g>
	<g>
		<polyline class="st1" points="153,67.3 153,8.3 143.2,7.6 143.2,71.2 		"/>
		<polyline class="st1" points="154.8,64.2 154.9,5.1 147.3,8.1 147.2,69.5 		"/>
		<polyline class="st1" points="143.3,7.4 150,4.3 154.9,5.1 		"/>
		<g>
			
				<ellipse transform="matrix(0.9971 7.593594e-02 -7.593594e-02 0.9971 1.744 -11.3621)" class="st2" cx="150.3" cy="17.3" rx="0.9" ry="0.9"/>
			
				<ellipse transform="matrix(0.9971 7.593594e-02 -7.593594e-02 0.9971 1.947 -11.3544)" class="st2" cx="150.3" cy="19.9" rx="0.9" ry="0.9"/>
			
				<ellipse transform="matrix(0.9971 7.593594e-02 -7.593594e-02 0.9971 2.15 -11.3466)" class="st2" cx="150.3" cy="22.6" rx="0.9" ry="0.9"/>
		</g>
		<g>
			
				<ellipse transform="matrix(0.9971 7.593594e-02 -7.593594e-02 0.9971 1.2624 -11.3804)" class="st2" cx="150.3" cy="10.9" rx="0.9" ry="0.9"/>
			
				<ellipse transform="matrix(0.9971 7.593594e-02 -7.593594e-02 0.9971 1.4655 -11.3727)" class="st2" cx="150.3" cy="13.6" rx="0.9" ry="0.9"/>
		</g>
		<g>
			
				<ellipse transform="matrix(0.9971 7.593594e-02 -7.593594e-02 0.9971 2.4239 -11.3362)" class="st2" cx="150.3" cy="26.2" rx="0.9" ry="0.9"/>
			
				<ellipse transform="matrix(0.9971 7.593594e-02 -7.593594e-02 0.9971 2.6269 -11.3285)" class="st2" cx="150.3" cy="28.9" rx="0.9" ry="0.9"/>
			
				<ellipse transform="matrix(0.9971 7.593594e-02 -7.593594e-02 0.9971 2.8299 -11.3208)" class="st2" cx="150.3" cy="31.6" rx="0.9" ry="0.9"/>
		</g>
		<g>
			
				<ellipse transform="matrix(0.9971 7.593594e-02 -7.593594e-02 0.9971 3.1037 -11.3104)" class="st2" cx="150.3" cy="35.2" rx="0.9" ry="0.9"/>
			
				<ellipse transform="matrix(0.9971 7.593594e-02 -7.593594e-02 0.9971 3.3067 -11.3027)" class="st2" cx="150.3" cy="37.8" rx="0.9" ry="0.9"/>
			
				<ellipse transform="matrix(0.9971 7.593594e-02 -7.593594e-02 0.9971 3.5097 -11.2949)" class="st2" cx="150.3" cy="40.5" rx="0.9" ry="0.9"/>
		</g>
		<g>
			
				<ellipse transform="matrix(0.9971 7.593594e-02 -7.593594e-02 0.9971 3.7836 -11.2845)" class="st2" cx="150.3" cy="44.1" rx="0.9" ry="0.9"/>
			
				<ellipse transform="matrix(0.9971 7.593594e-02 -7.593594e-02 0.9971 3.9866 -11.2768)" class="st2" cx="150.3" cy="46.8" rx="0.9" ry="0.9"/>
			
				<ellipse transform="matrix(0.9971 7.593594e-02 -7.593594e-02 0.9971 4.1896 -11.2691)" class="st2" cx="150.3" cy="49.5" rx="0.9" ry="0.9"/>
		</g>
		<g>
			
				<ellipse transform="matrix(0.9971 7.593594e-02 -7.593594e-02 0.9971 4.4634 -11.2587)" class="st2" cx="150.3" cy="53.1" rx="0.9" ry="0.9"/>
			
				<ellipse transform="matrix(0.9971 7.593594e-02 -7.593594e-02 0.9971 4.6664 -11.251)" class="st2" cx="150.3" cy="55.7" rx="0.9" ry="0.9"/>
			
				<ellipse transform="matrix(0.9971 7.593594e-02 -7.593594e-02 0.9971 4.8694 -11.2432)" class="st2" cx="150.3" cy="58.4" rx="0.9" ry="0.9"/>
		</g>
		<g>
			
				<ellipse transform="matrix(0.9971 7.593594e-02 -7.593594e-02 0.9971 5.1396 -11.233)" class="st2" cx="150.3" cy="62" rx="0.9" ry="0.9"/>
			
				<ellipse transform="matrix(0.9971 7.593594e-02 -7.593594e-02 0.9971 5.3427 -11.2252)" class="st2" cx="150.3" cy="64.6" rx="0.9" ry="0.9"/>
			
				<ellipse transform="matrix(0.9971 7.593594e-02 -7.593594e-02 0.9971 5.5457 -11.2175)" class="st2" cx="150.3" cy="67.3" rx="0.9" ry="0.9"/>
		</g>
		<g>
		</g>
		<g>
			
				<ellipse transform="matrix(0.9971 7.593594e-02 -7.593594e-02 0.9971 6.5502 -11.1793)" class="st2" cx="150.3" cy="80.5" rx="0.9" ry="0.9"/>
			
				<ellipse transform="matrix(0.9971 7.593594e-02 -7.593594e-02 0.9971 6.7532 -11.1716)" class="st2" cx="150.3" cy="83.2" rx="0.9" ry="0.9"/>
			
				<ellipse transform="matrix(0.9971 7.593594e-02 -7.593594e-02 0.9971 6.9562 -11.1639)" class="st2" cx="150.3" cy="85.9" rx="0.9" ry="0.9"/>
		</g>
		<g>
			
				<ellipse transform="matrix(0.9971 7.593594e-02 -7.593594e-02 0.9971 7.23 -11.1535)" class="st2" cx="150.3" cy="89.5" rx="0.9" ry="0.9"/>
			
				<ellipse transform="matrix(0.9971 7.593594e-02 -7.593594e-02 0.9971 7.4331 -11.1458)" class="st2" cx="150.3" cy="92.2" rx="0.9" ry="0.9"/>
			
				<ellipse transform="matrix(0.9971 7.593594e-02 -7.593594e-02 0.9971 7.6361 -11.138)" class="st2" cx="150.3" cy="94.8" rx="0.9" ry="0.9"/>
		</g>
		<g>
			
				<ellipse transform="matrix(0.9971 7.593594e-02 -7.593594e-02 0.9971 7.9099 -11.1276)" class="st2" cx="150.3" cy="98.5" rx="0.9" ry="0.9"/>
			
				<ellipse transform="matrix(0.9971 7.593594e-02 -7.593594e-02 0.9971 8.1129 -11.1199)" class="st2" cx="150.3" cy="101.1" rx="0.9" ry="0.9"/>
			
				<ellipse transform="matrix(0.9971 7.593594e-02 -7.593594e-02 0.9971 8.3159 -11.1122)" class="st2" cx="150.3" cy="103.8" rx="0.9" ry="0.9"/>
		</g>
		<g>
			
				<ellipse transform="matrix(0.9971 7.593594e-02 -7.593594e-02 0.9971 8.5897 -11.1018)" class="st2" cx="150.3" cy="107.4" rx="0.9" ry="0.9"/>
			
				<ellipse transform="matrix(0.9971 7.593594e-02 -7.593594e-02 0.9971 8.7928 -11.0941)" class="st2" cx="150.3" cy="110.1" rx="0.9" ry="0.9"/>
			
				<ellipse transform="matrix(0.9971 7.593594e-02 -7.593594e-02 0.9971 8.9958 -11.0863)" class="st2" cx="150.3" cy="112.8" rx="0.9" ry="0.9"/>
		</g>
	</g>
	<g>
		<polyline class="st1" points="153.1,78.8 153.1,168.9 143.3,168.6 143.3,82.7 		"/>
		<line class="st1" x1="147.4" y1="81" x2="147.3" y2="168.6"/>
		<polyline class="st1" points="154.8,64.2 154.9,168 153.1,168.9 		"/>
		<g>
			
				<ellipse transform="matrix(0.9971 7.593594e-02 -7.593594e-02 0.9971 9.2936 -11.0925)" class="st2" cx="150.5" cy="116.7" rx="0.9" ry="0.9"/>
			
				<ellipse transform="matrix(0.9971 7.593594e-02 -7.593594e-02 0.9971 9.4967 -11.0847)" class="st2" cx="150.5" cy="119.3" rx="0.9" ry="0.9"/>
			
				<ellipse transform="matrix(0.9971 7.593594e-02 -7.593594e-02 0.9971 9.6997 -11.077)" class="st2" cx="150.5" cy="122" rx="0.9" ry="0.9"/>
		</g>
		<g>
			
				<ellipse transform="matrix(0.9971 7.593594e-02 -7.593594e-02 0.9971 9.9735 -11.0666)" class="st2" cx="150.5" cy="125.6" rx="0.9" ry="0.9"/>
			
				<ellipse transform="matrix(0.9971 7.593594e-02 -7.593594e-02 0.9971 10.1765 -11.0589)" class="st2" cx="150.5" cy="128.3" rx="0.9" ry="0.9"/>
			
				<ellipse transform="matrix(0.9971 7.593594e-02 -7.593594e-02 0.9971 10.3795 -11.0512)" class="st2" cx="150.5" cy="131" rx="0.9" ry="0.9"/>
		</g>
		<g>
			
				<ellipse transform="matrix(0.9971 7.593594e-02 -7.593594e-02 0.9971 10.6504 -11.0409)" class="st2" cx="150.5" cy="134.5" rx="0.9" ry="0.9"/>
			
				<ellipse transform="matrix(0.9971 7.593594e-02 -7.593594e-02 0.9971 10.8534 -11.0332)" class="st2" cx="150.5" cy="137.2" rx="0.9" ry="0.9"/>
			
				<ellipse transform="matrix(0.9971 7.593594e-02 -7.593594e-02 0.9971 11.0565 -11.0254)" class="st2" cx="150.5" cy="139.9" rx="0.9" ry="0.9"/>
		</g>
		<g>
			
				<ellipse transform="matrix(0.9971 7.593594e-02 -7.593594e-02 0.9971 11.3274 -11.0151)" class="st2" cx="150.5" cy="143.4" rx="0.9" ry="0.9"/>
			
				<ellipse transform="matrix(0.9971 7.593594e-02 -7.593594e-02 0.9971 11.5304 -11.0074)" class="st2" cx="150.5" cy="146.1" rx="0.9" ry="0.9"/>
			
				<ellipse transform="matrix(0.9971 7.593594e-02 -7.593594e-02 0.9971 11.7334 -10.9997)" class="st2" cx="150.5" cy="148.8" rx="0.9" ry="0.9"/>
		</g>
		<g>
		</g>
		<g>
		</g>
		<g>
			
				<ellipse transform="matrix(0.9971 7.593594e-02 -7.593594e-02 0.9971 12.0131 -10.9891)" class="st2" cx="150.5" cy="152.5" rx="0.9" ry="0.9"/>
			
				<ellipse transform="matrix(0.9971 7.593594e-02 -7.593594e-02 0.9971 12.2161 -10.9813)" class="st2" cx="150.5" cy="155.2" rx="0.9" ry="0.9"/>
			
				<ellipse transform="matrix(0.9971 7.593594e-02 -7.593594e-02 0.9971 12.4191 -10.9736)" class="st2" cx="150.5" cy="157.8" rx="0.9" ry="0.9"/>
		</g>
		<g>
			
				<ellipse transform="matrix(0.9971 7.593594e-02 -7.593594e-02 0.9971 12.6929 -10.9632)" class="st2" cx="150.5" cy="161.4" rx="0.9" ry="0.9"/>
			
				<ellipse transform="matrix(0.9971 7.593594e-02 -7.593594e-02 0.9971 12.8959 -10.9555)" class="st2" cx="150.5" cy="164.1" rx="0.9" ry="0.9"/>
			
				<ellipse transform="matrix(0.9971 7.593594e-02 -7.593594e-02 0.9971 13.0989 -10.9478)" class="st2" cx="150.5" cy="166.8" rx="0.9" ry="0.9"/>
		</g>
	</g>
</g>
<g>
	<path class="st3" d="M164.8,77.7c0,0-27,10.9-29.3,11.9s-2.9,0.5-2.9,0.5c-0.4-0.7-1.6-0.7-1.6-0.7l-61.2,24.7
		c-0.7,1.9-2.6,1.1-2.6,1.1c-6.9,3.9-9.6,1.9-9.6,1.9l-0.2-7.7c1.6-1.9,6.2-3.9,6.2-3.9l68.2-26.8l1.3-3.1l31.6-12.8l0.3,6l-7.7,3
		c0,0-2.2,1.1-1.6,3.3c0,0,0,1.3,2.3,0.3c2.3-0.9,6.9-2.7,6.9-2.7L164.8,77.7z"/>
	<path class="st4" d="M148.8,75c0,0,2.1-0.3,1.9,1.7c-0.2,2-2.3,2.9-2.3,2.9l-80.3,32.2c0,0-2.2,1.1-3-1.5c0,0-0.3-2.3,3.2-3.5
		C71.7,105.6,148.8,75,148.8,75z"/>
</g>
<polyline class="st1" points="6,212.7 6.2,53.1 13.8,50.1 13.6,212.1 11.7,213 "/>
<polygon class="st1" points="11.9,53.3 2.1,52.6 1.9,212.7 11.7,213 "/>
<polyline class="st1" points="2.2,52.4 8.9,49.3 13.8,50.1 "/>
<g>
	<polygon class="st5" points="141.5,79.1 134.8,82.1 134.8,242.2 141.7,241.3 141.6,131.5 	"/>
	<polyline class="st5" points="134.6,82 130.9,81.2 130.7,241.5 134.7,242.2 	"/>
	<polyline class="st5" points="130.9,81.3 126.5,80.2 126.3,239.9 130.4,240.1 	"/>
	<g>
		
			<ellipse transform="matrix(0.9971 7.593594e-02 -7.593594e-02 0.9971 7.1561 -9.4921)" class="st2" cx="128.4" cy="89.4" rx="0.9" ry="0.9"/>
		
			<ellipse transform="matrix(0.9971 7.593594e-02 -7.593594e-02 0.9971 7.3591 -9.4844)" class="st2" cx="128.4" cy="92" rx="0.9" ry="0.9"/>
		
			<ellipse transform="matrix(0.9971 7.593594e-02 -7.593594e-02 0.9971 7.5621 -9.4767)" class="st2" cx="128.4" cy="94.7" rx="0.9" ry="0.9"/>
	</g>
	<g>
		
			<ellipse transform="matrix(0.9971 7.593594e-02 -7.593594e-02 0.9971 6.6746 -9.5104)" class="st2" cx="128.4" cy="83" rx="0.9" ry="0.9"/>
		
			<ellipse transform="matrix(0.9971 7.593594e-02 -7.593594e-02 0.9971 6.8776 -9.5027)" class="st2" cx="128.4" cy="85.7" rx="0.9" ry="0.9"/>
	</g>
	<g>
		
			<ellipse transform="matrix(0.9971 7.593594e-02 -7.593594e-02 0.9971 7.8265 -9.4666)" class="st2" cx="128.4" cy="98.2" rx="0.9" ry="0.9"/>
		
			<ellipse transform="matrix(0.9971 7.593594e-02 -7.593594e-02 0.9971 8.0295 -9.4589)" class="st2" cx="128.4" cy="100.9" rx="0.9" ry="0.9"/>
		
			<ellipse transform="matrix(0.9971 7.593594e-02 -7.593594e-02 0.9971 8.2325 -9.4512)" class="st2" cx="128.4" cy="103.5" rx="0.9" ry="0.9"/>
	</g>
	<g>
		
			<ellipse transform="matrix(0.9971 7.593594e-02 -7.593594e-02 0.9971 8.4969 -9.4411)" class="st2" cx="128.4" cy="107" rx="0.9" ry="0.9"/>
		
			<ellipse transform="matrix(0.9971 7.593594e-02 -7.593594e-02 0.9971 8.6999 -9.4334)" class="st2" cx="128.4" cy="109.7" rx="0.9" ry="0.9"/>
		
			<ellipse transform="matrix(0.9971 7.593594e-02 -7.593594e-02 0.9971 8.903 -9.4257)" class="st2" cx="128.4" cy="112.4" rx="0.9" ry="0.9"/>
	</g>
	<g>
		
			<ellipse transform="matrix(0.9971 7.593594e-02 -7.593594e-02 0.9971 9.1673 -9.4156)" class="st2" cx="128.4" cy="115.8" rx="0.9" ry="0.9"/>
		
			<ellipse transform="matrix(0.9971 7.593594e-02 -7.593594e-02 0.9971 9.3704 -9.4079)" class="st2" cx="128.4" cy="118.5" rx="0.9" ry="0.9"/>
		
			<ellipse transform="matrix(0.9971 7.593594e-02 -7.593594e-02 0.9971 9.5734 -9.4002)" class="st2" cx="128.4" cy="121.2" rx="0.9" ry="0.9"/>
	</g>
	<g>
		
			<ellipse transform="matrix(0.9971 7.593594e-02 -7.593594e-02 0.9971 9.8378 -9.3902)" class="st2" cx="128.4" cy="124.7" rx="0.9" ry="0.9"/>
		
			<ellipse transform="matrix(0.9971 7.593594e-02 -7.593594e-02 0.9971 10.0408 -9.3824)" class="st2" cx="128.4" cy="127.3" rx="0.9" ry="0.9"/>
		
			<ellipse transform="matrix(0.9971 7.593594e-02 -7.593594e-02 0.9971 10.2438 -9.3747)" class="st2" cx="128.4" cy="130" rx="0.9" ry="0.9"/>
	</g>
	<g>
		
			<ellipse transform="matrix(0.9971 7.593594e-02 -7.593594e-02 0.9971 10.5082 -9.3647)" class="st2" cx="128.4" cy="133.5" rx="0.9" ry="0.9"/>
		
			<ellipse transform="matrix(0.9971 7.593594e-02 -7.593594e-02 0.9971 10.7112 -9.3569)" class="st2" cx="128.4" cy="136.2" rx="0.9" ry="0.9"/>
		
			<ellipse transform="matrix(0.9971 7.593594e-02 -7.593594e-02 0.9971 10.9142 -9.3492)" class="st2" cx="128.4" cy="138.8" rx="0.9" ry="0.9"/>
	</g>
	<g>
		
			<ellipse transform="matrix(0.9971 7.593594e-02 -7.593594e-02 0.9971 11.1786 -9.3392)" class="st2" cx="128.4" cy="142.3" rx="0.9" ry="0.9"/>
		
			<ellipse transform="matrix(0.9971 7.593594e-02 -7.593594e-02 0.9971 11.3816 -9.3315)" class="st2" cx="128.4" cy="145" rx="0.9" ry="0.9"/>
		
			<ellipse transform="matrix(0.9971 7.593594e-02 -7.593594e-02 0.9971 11.5846 -9.3237)" class="st2" cx="128.4" cy="147.7" rx="0.9" ry="0.9"/>
	</g>
	<g>
		
			<ellipse transform="matrix(0.9971 7.593594e-02 -7.593594e-02 0.9971 11.849 -9.3137)" class="st2" cx="128.4" cy="151.2" rx="0.9" ry="0.9"/>
		
			<ellipse transform="matrix(0.9971 7.593594e-02 -7.593594e-02 0.9971 12.052 -9.306)" class="st2" cx="128.4" cy="153.8" rx="0.9" ry="0.9"/>
		
			<ellipse transform="matrix(0.9971 7.593594e-02 -7.593594e-02 0.9971 12.255 -9.2982)" class="st2" cx="128.4" cy="156.5" rx="0.9" ry="0.9"/>
	</g>
	<g>
		
			<ellipse transform="matrix(0.9971 7.593594e-02 -7.593594e-02 0.9971 12.5194 -9.2882)" class="st2" cx="128.4" cy="160" rx="0.9" ry="0.9"/>
		
			<ellipse transform="matrix(0.9971 7.593594e-02 -7.593594e-02 0.9971 12.7224 -9.2805)" class="st2" cx="128.4" cy="162.7" rx="0.9" ry="0.9"/>
		
			<ellipse transform="matrix(0.9971 7.593594e-02 -7.593594e-02 0.9971 12.9254 -9.2728)" class="st2" cx="128.4" cy="165.3" rx="0.9" ry="0.9"/>
	</g>
	<g>
		
			<ellipse transform="matrix(0.9971 7.593594e-02 -7.593594e-02 0.9971 13.1898 -9.2627)" class="st2" cx="128.4" cy="168.8" rx="0.9" ry="0.9"/>
		
			<ellipse transform="matrix(0.9971 7.593594e-02 -7.593594e-02 0.9971 13.3928 -9.255)" class="st2" cx="128.4" cy="171.5" rx="0.9" ry="0.9"/>
		
			<ellipse transform="matrix(0.9971 7.593594e-02 -7.593594e-02 0.9971 13.5958 -9.2473)" class="st2" cx="128.4" cy="174.2" rx="0.9" ry="0.9"/>
	</g>
	<g>
		
			<ellipse transform="matrix(0.9971 7.593594e-02 -7.593594e-02 0.9971 13.8602 -9.2372)" class="st2" cx="128.4" cy="177.6" rx="0.9" ry="0.9"/>
		
			<ellipse transform="matrix(0.9971 7.593594e-02 -7.593594e-02 0.9971 14.0632 -9.2295)" class="st2" cx="128.4" cy="180.3" rx="0.9" ry="0.9"/>
		
			<ellipse transform="matrix(0.9971 7.593594e-02 -7.593594e-02 0.9971 14.2662 -9.2218)" class="st2" cx="128.4" cy="183" rx="0.9" ry="0.9"/>
	</g>
	<g>
		
			<ellipse transform="matrix(0.9971 7.593594e-02 -7.593594e-02 0.9971 14.5306 -9.2117)" class="st2" cx="128.4" cy="186.5" rx="0.9" ry="0.9"/>
		
			<ellipse transform="matrix(0.9971 7.593594e-02 -7.593594e-02 0.9971 14.7336 -9.204)" class="st2" cx="128.4" cy="189.1" rx="0.9" ry="0.9"/>
		
			<ellipse transform="matrix(0.9971 7.593594e-02 -7.593594e-02 0.9971 14.9367 -9.1963)" class="st2" cx="128.4" cy="191.8" rx="0.9" ry="0.9"/>
	</g>
	<g>
		
			<ellipse transform="matrix(0.9971 7.593594e-02 -7.593594e-02 0.9971 15.201 -9.1862)" class="st2" cx="128.4" cy="195.3" rx="0.9" ry="0.9"/>
		
			<ellipse transform="matrix(0.9971 7.593594e-02 -7.593594e-02 0.9971 15.4041 -9.1785)" class="st2" cx="128.4" cy="198" rx="0.9" ry="0.9"/>
		
			<ellipse transform="matrix(0.9971 7.593594e-02 -7.593594e-02 0.9971 15.6071 -9.1708)" class="st2" cx="128.4" cy="200.6" rx="0.9" ry="0.9"/>
	</g>
	<g>
		
			<ellipse transform="matrix(0.9971 7.593594e-02 -7.593594e-02 0.9971 15.8715 -9.1607)" class="st2" cx="128.4" cy="204.1" rx="0.9" ry="0.9"/>
		
			<ellipse transform="matrix(0.9971 7.593594e-02 -7.593594e-02 0.9971 16.0745 -9.153)" class="st2" cx="128.4" cy="206.8" rx="0.9" ry="0.9"/>
		
			<ellipse transform="matrix(0.9971 7.593594e-02 -7.593594e-02 0.9971 16.2775 -9.1453)" class="st2" cx="128.4" cy="209.5" rx="0.9" ry="0.9"/>
	</g>
	<g>
		
			<ellipse transform="matrix(0.9971 7.593594e-02 -7.593594e-02 0.9971 16.5419 -9.1352)" class="st2" cx="128.4" cy="213" rx="0.9" ry="0.9"/>
		
			<ellipse transform="matrix(0.9971 7.593594e-02 -7.593594e-02 0.9971 16.7449 -9.1275)" class="st2" cx="128.4" cy="215.6" rx="0.9" ry="0.9"/>
		
			<ellipse transform="matrix(0.9971 7.593594e-02 -7.593594e-02 0.9971 16.9479 -9.1198)" class="st2" cx="128.4" cy="218.3" rx="0.9" ry="0.9"/>
	</g>
	<g>
		
			<ellipse transform="matrix(0.9971 7.593594e-02 -7.593594e-02 0.9971 17.2123 -9.1098)" class="st2" cx="128.4" cy="221.8" rx="0.9" ry="0.9"/>
		
			<ellipse transform="matrix(0.9971 7.593594e-02 -7.593594e-02 0.9971 17.4153 -9.102)" class="st2" cx="128.4" cy="224.5" rx="0.9" ry="0.9"/>
		
			<ellipse transform="matrix(0.9971 7.593594e-02 -7.593594e-02 0.9971 17.6183 -9.0943)" class="st2" cx="128.4" cy="227.1" rx="0.9" ry="0.9"/>
	</g>
	<g>
		
			<ellipse transform="matrix(0.9971 7.593594e-02 -7.593594e-02 0.9971 17.8827 -9.0843)" class="st2" cx="128.4" cy="230.6" rx="0.9" ry="0.9"/>
		
			<ellipse transform="matrix(0.9971 7.593594e-02 -7.593594e-02 0.9971 18.0857 -9.0765)" class="st2" cx="128.4" cy="233.3" rx="0.9" ry="0.9"/>
		
			<ellipse transform="matrix(0.9971 7.593594e-02 -7.593594e-02 0.9971 18.2887 -9.0688)" class="st2" cx="128.4" cy="236" rx="0.9" ry="0.9"/>
	</g>
</g>
<g>
	
		<ellipse transform="matrix(0.9971 7.593594e-02 -7.593594e-02 0.9971 4.7538 -0.5168)" class="st2" cx="9.2" cy="62.3" rx="0.9" ry="0.9"/>
	
		<ellipse transform="matrix(0.9971 7.593594e-02 -7.593594e-02 0.9971 4.9568 -0.5091)" class="st2" cx="9.2" cy="64.9" rx="0.9" ry="0.9"/>
	
		<ellipse transform="matrix(0.9971 7.593594e-02 -7.593594e-02 0.9971 5.1598 -0.5014)" class="st2" cx="9.2" cy="67.6" rx="0.9" ry="0.9"/>
</g>
<g>
	
		<ellipse transform="matrix(0.9971 7.593594e-02 -7.593594e-02 0.9971 4.2722 -0.5351)" class="st2" cx="9.2" cy="55.9" rx="0.9" ry="0.9"/>
	
		<ellipse transform="matrix(0.9971 7.593594e-02 -7.593594e-02 0.9971 4.4752 -0.5274)" class="st2" cx="9.2" cy="58.6" rx="0.9" ry="0.9"/>
</g>
<g>
	
		<ellipse transform="matrix(0.9971 7.593594e-02 -7.593594e-02 0.9971 5.4336 -0.491)" class="st2" cx="9.2" cy="71.2" rx="0.9" ry="0.9"/>
	
		<ellipse transform="matrix(0.9971 7.593594e-02 -7.593594e-02 0.9971 5.6366 -0.4833)" class="st2" cx="9.2" cy="73.9" rx="0.9" ry="0.9"/>
	
		<ellipse transform="matrix(0.9971 7.593594e-02 -7.593594e-02 0.9971 5.8396 -0.4755)" class="st2" cx="9.2" cy="76.6" rx="0.9" ry="0.9"/>
</g>
<g>
	
		<ellipse transform="matrix(0.9971 7.593594e-02 -7.593594e-02 0.9971 6.1135 -0.4651)" class="st2" cx="9.2" cy="80.2" rx="0.9" ry="0.9"/>
	
		<ellipse transform="matrix(0.9971 7.593594e-02 -7.593594e-02 0.9971 6.3165 -0.4574)" class="st2" cx="9.2" cy="82.8" rx="0.9" ry="0.9"/>
	
		<ellipse transform="matrix(0.9971 7.593594e-02 -7.593594e-02 0.9971 6.5195 -0.4497)" class="st2" cx="9.2" cy="85.5" rx="0.9" ry="0.9"/>
</g>
<g>
	
		<ellipse transform="matrix(0.9971 7.593594e-02 -7.593594e-02 0.9971 6.7933 -0.4393)" class="st2" cx="9.2" cy="89.1" rx="0.9" ry="0.9"/>
	
		<ellipse transform="matrix(0.9971 7.593594e-02 -7.593594e-02 0.9971 6.9963 -0.4316)" class="st2" cx="9.2" cy="91.8" rx="0.9" ry="0.9"/>
	
		<ellipse transform="matrix(0.9971 7.593594e-02 -7.593594e-02 0.9971 7.1993 -0.4238)" class="st2" cx="9.2" cy="94.5" rx="0.9" ry="0.9"/>
</g>
<g>
	
		<ellipse transform="matrix(0.9971 7.593594e-02 -7.593594e-02 0.9971 7.4732 -0.4134)" class="st2" cx="9.2" cy="98.1" rx="0.9" ry="0.9"/>
	
		<ellipse transform="matrix(0.9971 7.593594e-02 -7.593594e-02 0.9971 7.6762 -0.4057)" class="st2" cx="9.2" cy="100.7" rx="0.9" ry="0.9"/>
	
		<ellipse transform="matrix(0.9971 7.593594e-02 -7.593594e-02 0.9971 7.8792 -0.398)" class="st2" cx="9.2" cy="103.4" rx="0.9" ry="0.9"/>
</g>
<g>
	
		<ellipse transform="matrix(0.9971 7.593594e-02 -7.593594e-02 0.9971 8.1468 -0.3878)" class="st2" cx="9.2" cy="106.9" rx="0.9" ry="0.9"/>
	
		<ellipse transform="matrix(0.9971 7.593594e-02 -7.593594e-02 0.9971 8.3498 -0.3801)" class="st2" cx="9.2" cy="109.6" rx="0.9" ry="0.9"/>
	
		<ellipse transform="matrix(0.9971 7.593594e-02 -7.593594e-02 0.9971 8.5528 -0.3724)" class="st2" cx="9.2" cy="112.3" rx="0.9" ry="0.9"/>
</g>
<g>
	
		<ellipse transform="matrix(0.9971 7.593594e-02 -7.593594e-02 0.9971 8.8204 -0.3622)" class="st2" cx="9.2" cy="115.8" rx="0.9" ry="0.9"/>
	
		<ellipse transform="matrix(0.9971 7.593594e-02 -7.593594e-02 0.9971 9.0234 -0.3545)" class="st2" cx="9.2" cy="118.5" rx="0.9" ry="0.9"/>
	
		<ellipse transform="matrix(0.9971 7.593594e-02 -7.593594e-02 0.9971 9.2264 -0.3468)" class="st2" cx="9.2" cy="121.2" rx="0.9" ry="0.9"/>
</g>
<g>
	
		<ellipse transform="matrix(0.9971 7.593594e-02 -7.593594e-02 0.9971 9.494 -0.3366)" class="st2" cx="9.2" cy="124.7" rx="0.9" ry="0.9"/>
	
		<ellipse transform="matrix(0.9971 7.593594e-02 -7.593594e-02 0.9971 9.697 -0.3289)" class="st2" cx="9.2" cy="127.4" rx="0.9" ry="0.9"/>
	
		<ellipse transform="matrix(0.9971 7.593594e-02 -7.593594e-02 0.9971 9.9 -0.3212)" class="st2" cx="9.2" cy="130" rx="0.9" ry="0.9"/>
</g>
<g>
	
		<ellipse transform="matrix(0.9971 7.593594e-02 -7.593594e-02 0.9971 10.1676 -0.311)" class="st2" cx="9.2" cy="133.5" rx="0.9" ry="0.9"/>
	
		<ellipse transform="matrix(0.9971 7.593594e-02 -7.593594e-02 0.9971 10.3706 -0.3033)" class="st2" cx="9.2" cy="136.2" rx="0.9" ry="0.9"/>
	
		<ellipse transform="matrix(0.9971 7.593594e-02 -7.593594e-02 0.9971 10.5736 -0.2955)" class="st2" cx="9.2" cy="138.9" rx="0.9" ry="0.9"/>
</g>
<g>
	
		<ellipse transform="matrix(0.9971 7.593594e-02 -7.593594e-02 0.9971 10.8412 -0.2854)" class="st2" cx="9.2" cy="142.4" rx="0.9" ry="0.9"/>
	
		<ellipse transform="matrix(0.9971 7.593594e-02 -7.593594e-02 0.9971 11.0442 -0.2776)" class="st2" cx="9.2" cy="145.1" rx="0.9" ry="0.9"/>
	
		<ellipse transform="matrix(0.9971 7.593594e-02 -7.593594e-02 0.9971 11.2472 -0.2699)" class="st2" cx="9.2" cy="147.8" rx="0.9" ry="0.9"/>
</g>
<g>
	
		<ellipse transform="matrix(0.9971 7.593594e-02 -7.593594e-02 0.9971 11.5148 -0.2598)" class="st2" cx="9.2" cy="151.3" rx="0.9" ry="0.9"/>
	
		<ellipse transform="matrix(0.9971 7.593594e-02 -7.593594e-02 0.9971 11.7178 -0.252)" class="st2" cx="9.2" cy="154" rx="0.9" ry="0.9"/>
	
		<ellipse transform="matrix(0.9971 7.593594e-02 -7.593594e-02 0.9971 11.9208 -0.2443)" class="st2" cx="9.2" cy="156.6" rx="0.9" ry="0.9"/>
</g>
<g>
</g>
<g>
	
		<ellipse transform="matrix(0.9971 7.593594e-02 -7.593594e-02 0.9971 12.2321 -0.2325)" class="st2" cx="9.2" cy="160.7" rx="0.9" ry="0.9"/>
	
		<ellipse transform="matrix(0.9971 7.593594e-02 -7.593594e-02 0.9971 12.4352 -0.2248)" class="st2" cx="9.2" cy="163.4" rx="0.9" ry="0.9"/>
	
		<ellipse transform="matrix(0.9971 7.593594e-02 -7.593594e-02 0.9971 12.6382 -0.217)" class="st2" cx="9.2" cy="166.1" rx="0.9" ry="0.9"/>
</g>
<g>
	
		<ellipse transform="matrix(0.9971 7.593594e-02 -7.593594e-02 0.9971 12.912 -0.2066)" class="st2" cx="9.2" cy="169.7" rx="0.9" ry="0.9"/>
	
		<ellipse transform="matrix(0.9971 7.593594e-02 -7.593594e-02 0.9971 13.115 -0.1989)" class="st2" cx="9.2" cy="172.4" rx="0.9" ry="0.9"/>
	
		<ellipse transform="matrix(0.9971 7.593594e-02 -7.593594e-02 0.9971 13.318 -0.1912)" class="st2" cx="9.2" cy="175" rx="0.9" ry="0.9"/>
</g>
<g>
	
		<ellipse transform="matrix(0.9971 7.593594e-02 -7.593594e-02 0.9971 13.5919 -0.1808)" class="st2" cx="9.2" cy="178.6" rx="0.9" ry="0.9"/>
	
		<ellipse transform="matrix(0.9971 7.593594e-02 -7.593594e-02 0.9971 13.7949 -0.1731)" class="st2" cx="9.2" cy="181.3" rx="0.9" ry="0.9"/>
	
		<ellipse transform="matrix(0.9971 7.593594e-02 -7.593594e-02 0.9971 13.9979 -0.1653)" class="st2" cx="9.2" cy="184" rx="0.9" ry="0.9"/>
</g>
<g>
	
		<ellipse transform="matrix(0.9971 7.593594e-02 -7.593594e-02 0.9971 14.2717 -0.1549)" class="st2" cx="9.2" cy="187.6" rx="0.9" ry="0.9"/>
	
		<ellipse transform="matrix(0.9971 7.593594e-02 -7.593594e-02 0.9971 14.4747 -0.1472)" class="st2" cx="9.2" cy="190.3" rx="0.9" ry="0.9"/>
	
		<ellipse transform="matrix(0.9971 7.593594e-02 -7.593594e-02 0.9971 14.6777 -0.1395)" class="st2" cx="9.2" cy="192.9" rx="0.9" ry="0.9"/>
</g>
<g>
	
		<ellipse transform="matrix(0.9971 7.593594e-02 -7.593594e-02 0.9971 14.9516 -0.1291)" class="st2" cx="9.2" cy="196.5" rx="0.9" ry="0.9"/>
	
		<ellipse transform="matrix(0.9971 7.593594e-02 -7.593594e-02 0.9971 15.1546 -0.1214)" class="st2" cx="9.2" cy="199.2" rx="0.9" ry="0.9"/>
	
		<ellipse transform="matrix(0.9971 7.593594e-02 -7.593594e-02 0.9971 15.3576 -0.1136)" class="st2" cx="9.2" cy="201.9" rx="0.9" ry="0.9"/>
</g>
<g>
	
		<ellipse transform="matrix(0.9971 7.593594e-02 -7.593594e-02 0.9971 15.6314 -0.1032)" class="st2" cx="9.2" cy="205.5" rx="0.9" ry="0.9"/>
	
		<ellipse transform="matrix(0.9971 7.593594e-02 -7.593594e-02 0.9971 15.8344 -9.551211e-02)" class="st2" cx="9.2" cy="208.2" rx="0.9" ry="0.9"/>
	
		<ellipse transform="matrix(0.9971 7.593594e-02 -7.593594e-02 0.9971 16.0374 -8.779301e-02)" class="st2" cx="9.2" cy="210.8" rx="0.9" ry="0.9"/>
</g>
<g>
	<line class="st6" x1="321.4" y1="75" x2="305.5" y2="81.5"/>
	<line class="st6" x1="321.4" y1="86.6" x2="305.5" y2="93.1"/>
</g>
<g>
	<g>
		<polygon class="st7" points="289.7,31.9 282.9,34.9 282.9,196 289.9,195 289.8,84.6 		"/>
		<polyline class="st7" points="282.8,34.8 279,34 278.8,195.3 282.9,195.9 		"/>
		<polyline class="st7" points="278.4,34 274.6,33.5 274.4,193.6 278.5,193.8 		"/>
		<g>
			
				<ellipse transform="matrix(0.9971 7.593594e-02 -7.593594e-02 0.9971 3.9991 -20.8753)" class="st8" cx="276.5" cy="42.2" rx="1" ry="0.9"/>
			
				<ellipse transform="matrix(0.9971 7.593594e-02 -7.593594e-02 0.9971 4.2034 -20.8676)" class="st8" cx="276.5" cy="44.8" rx="1" ry="0.9"/>
			
				<ellipse transform="matrix(0.9971 7.593594e-02 -7.593594e-02 0.9971 4.4076 -20.8598)" class="st8" cx="276.5" cy="47.5" rx="1" ry="0.9"/>
		</g>
		<g>
			
				<ellipse transform="matrix(0.9971 7.593594e-02 -7.593594e-02 0.9971 3.5146 -20.8937)" class="st8" cx="276.5" cy="35.8" rx="1" ry="0.9"/>
			
				<ellipse transform="matrix(0.9971 7.593594e-02 -7.593594e-02 0.9971 3.7189 -20.886)" class="st8" cx="276.5" cy="38.5" rx="1" ry="0.9"/>
		</g>
		<g>
			
				<ellipse transform="matrix(0.9971 7.593594e-02 -7.593594e-02 0.9971 4.6736 -20.8497)" class="st8" cx="276.5" cy="51" rx="1" ry="0.9"/>
			
				<ellipse transform="matrix(0.9971 7.593594e-02 -7.593594e-02 0.9971 4.8779 -20.8419)" class="st8" cx="276.5" cy="53.7" rx="1" ry="0.9"/>
			
				<ellipse transform="matrix(0.9971 7.593594e-02 -7.593594e-02 0.9971 5.0821 -20.8341)" class="st8" cx="276.5" cy="56.4" rx="1" ry="0.9"/>
		</g>
		<g>
			
				<ellipse transform="matrix(0.9971 7.593594e-02 -7.593594e-02 0.9971 5.3481 -20.824)" class="st8" cx="276.5" cy="59.9" rx="1" ry="0.9"/>
			
				<ellipse transform="matrix(0.9971 7.593594e-02 -7.593594e-02 0.9971 5.5524 -20.8163)" class="st8" cx="276.5" cy="62.6" rx="1" ry="0.9"/>
			
				<ellipse transform="matrix(0.9971 7.593594e-02 -7.593594e-02 0.9971 5.7566 -20.8085)" class="st8" cx="276.5" cy="65.3" rx="1" ry="0.9"/>
		</g>
		<g>
			
				<ellipse transform="matrix(0.9971 7.593594e-02 -7.593594e-02 0.9971 6.0226 -20.7984)" class="st8" cx="276.5" cy="68.8" rx="1" ry="0.9"/>
			
				<ellipse transform="matrix(0.9971 7.593594e-02 -7.593594e-02 0.9971 6.2269 -20.7906)" class="st8" cx="276.5" cy="71.5" rx="1" ry="0.9"/>
			
				<ellipse transform="matrix(0.9971 7.593594e-02 -7.593594e-02 0.9971 6.4311 -20.7829)" class="st8" cx="276.5" cy="74.2" rx="1" ry="0.9"/>
		</g>
		<g>
			
				<ellipse transform="matrix(0.9971 7.593594e-02 -7.593594e-02 0.9971 6.6971 -20.7727)" class="st8" cx="276.5" cy="77.7" rx="1" ry="0.9"/>
			
				<ellipse transform="matrix(0.9971 7.593594e-02 -7.593594e-02 0.9971 6.9014 -20.765)" class="st8" cx="276.5" cy="80.4" rx="1" ry="0.9"/>
			
				<ellipse transform="matrix(0.9971 7.593594e-02 -7.593594e-02 0.9971 7.1056 -20.7572)" class="st8" cx="276.5" cy="83.1" rx="1" ry="0.9"/>
		</g>
		<g>
			
				<ellipse transform="matrix(0.9971 7.593594e-02 -7.593594e-02 0.9971 7.3716 -20.7471)" class="st8" cx="276.5" cy="86.6" rx="1" ry="0.9"/>
			
				<ellipse transform="matrix(0.9971 7.593594e-02 -7.593594e-02 0.9971 7.5759 -20.7393)" class="st8" cx="276.5" cy="89.3" rx="1" ry="0.9"/>
			
				<ellipse transform="matrix(0.9971 7.593594e-02 -7.593594e-02 0.9971 7.7801 -20.7316)" class="st8" cx="276.5" cy="91.9" rx="1" ry="0.9"/>
		</g>
		<g>
			
				<ellipse transform="matrix(0.9971 7.593594e-02 -7.593594e-02 0.9971 8.0461 -20.7214)" class="st8" cx="276.5" cy="95.4" rx="1" ry="0.9"/>
			
				<ellipse transform="matrix(0.9971 7.593594e-02 -7.593594e-02 0.9971 8.2504 -20.7137)" class="st8" cx="276.5" cy="98.1" rx="1" ry="0.9"/>
			
				<ellipse transform="matrix(0.9971 7.593594e-02 -7.593594e-02 0.9971 8.4546 -20.7059)" class="st8" cx="276.5" cy="100.8" rx="1" ry="0.9"/>
		</g>
		<g>
			
				<ellipse transform="matrix(0.9971 7.593594e-02 -7.593594e-02 0.9971 8.7206 -20.6958)" class="st8" cx="276.5" cy="104.3" rx="1" ry="0.9"/>
			
				<ellipse transform="matrix(0.9971 7.593594e-02 -7.593594e-02 0.9971 8.9249 -20.688)" class="st8" cx="276.5" cy="107" rx="1" ry="0.9"/>
			
				<ellipse transform="matrix(0.9971 7.593594e-02 -7.593594e-02 0.9971 9.1291 -20.6803)" class="st8" cx="276.5" cy="109.7" rx="1" ry="0.9"/>
		</g>
		<g>
			
				<ellipse transform="matrix(0.9971 7.593594e-02 -7.593594e-02 0.9971 9.3951 -20.6702)" class="st8" cx="276.5" cy="113.2" rx="1" ry="0.9"/>
			
				<ellipse transform="matrix(0.9971 7.593594e-02 -7.593594e-02 0.9971 9.5994 -20.6624)" class="st8" cx="276.5" cy="115.9" rx="1" ry="0.9"/>
			
				<ellipse transform="matrix(0.9971 7.593594e-02 -7.593594e-02 0.9971 9.8036 -20.6546)" class="st8" cx="276.5" cy="118.6" rx="1" ry="0.9"/>
		</g>
		<g>
			
				<ellipse transform="matrix(0.9971 7.593594e-02 -7.593594e-02 0.9971 10.0696 -20.6445)" class="st8" cx="276.5" cy="122.1" rx="1" ry="0.9"/>
			
				<ellipse transform="matrix(0.9971 7.593594e-02 -7.593594e-02 0.9971 10.2739 -20.6367)" class="st8" cx="276.5" cy="124.8" rx="1" ry="0.9"/>
			
				<ellipse transform="matrix(0.9971 7.593594e-02 -7.593594e-02 0.9971 10.4781 -20.629)" class="st8" cx="276.5" cy="127.5" rx="1" ry="0.9"/>
		</g>
		<g>
			
				<ellipse transform="matrix(0.9971 7.593594e-02 -7.593594e-02 0.9971 10.7441 -20.6189)" class="st8" cx="276.5" cy="131" rx="1" ry="0.9"/>
			
				<ellipse transform="matrix(0.9971 7.593594e-02 -7.593594e-02 0.9971 10.9484 -20.6111)" class="st8" cx="276.5" cy="133.7" rx="1" ry="0.9"/>
			
				<ellipse transform="matrix(0.9971 7.593594e-02 -7.593594e-02 0.9971 11.1526 -20.6033)" class="st8" cx="276.5" cy="136.4" rx="1" ry="0.9"/>
		</g>
		<g>
			
				<ellipse transform="matrix(0.9971 7.593594e-02 -7.593594e-02 0.9971 11.4186 -20.5932)" class="st8" cx="276.5" cy="139.9" rx="1" ry="0.9"/>
			
				<ellipse transform="matrix(0.9971 7.593594e-02 -7.593594e-02 0.9971 11.6229 -20.5855)" class="st8" cx="276.5" cy="142.5" rx="1" ry="0.9"/>
			
				<ellipse transform="matrix(0.9971 7.593594e-02 -7.593594e-02 0.9971 11.8271 -20.5777)" class="st8" cx="276.5" cy="145.2" rx="1" ry="0.9"/>
		</g>
		<g>
			
				<ellipse transform="matrix(0.9971 7.593594e-02 -7.593594e-02 0.9971 12.0931 -20.5676)" class="st8" cx="276.5" cy="148.7" rx="1" ry="0.9"/>
			
				<ellipse transform="matrix(0.9971 7.593594e-02 -7.593594e-02 0.9971 12.2974 -20.5598)" class="st8" cx="276.5" cy="151.4" rx="1" ry="0.9"/>
			
				<ellipse transform="matrix(0.9971 7.593594e-02 -7.593594e-02 0.9971 12.5016 -20.552)" class="st8" cx="276.5" cy="154.1" rx="1" ry="0.9"/>
		</g>
		<g>
			
				<ellipse transform="matrix(0.9971 7.593594e-02 -7.593594e-02 0.9971 12.7676 -20.5419)" class="st8" cx="276.5" cy="157.6" rx="1" ry="0.9"/>
			
				<ellipse transform="matrix(0.9971 7.593594e-02 -7.593594e-02 0.9971 12.9719 -20.5342)" class="st8" cx="276.5" cy="160.3" rx="1" ry="0.9"/>
			
				<ellipse transform="matrix(0.9971 7.593594e-02 -7.593594e-02 0.9971 13.1761 -20.5264)" class="st8" cx="276.5" cy="163" rx="1" ry="0.9"/>
		</g>
		<g>
			
				<ellipse transform="matrix(0.9971 7.593594e-02 -7.593594e-02 0.9971 13.4421 -20.5163)" class="st8" cx="276.5" cy="166.5" rx="1" ry="0.9"/>
			
				<ellipse transform="matrix(0.9971 7.593594e-02 -7.593594e-02 0.9971 13.6464 -20.5085)" class="st8" cx="276.5" cy="169.2" rx="1" ry="0.9"/>
			
				<ellipse transform="matrix(0.9971 7.593594e-02 -7.593594e-02 0.9971 13.8506 -20.5007)" class="st8" cx="276.5" cy="171.9" rx="1" ry="0.9"/>
		</g>
		<g>
			
				<ellipse transform="matrix(0.9971 7.593594e-02 -7.593594e-02 0.9971 14.1166 -20.4906)" class="st8" cx="276.5" cy="175.4" rx="1" ry="0.9"/>
			
				<ellipse transform="matrix(0.9971 7.593594e-02 -7.593594e-02 0.9971 14.3209 -20.4829)" class="st8" cx="276.5" cy="178.1" rx="1" ry="0.9"/>
			
				<ellipse transform="matrix(0.9971 7.593594e-02 -7.593594e-02 0.9971 14.5251 -20.4751)" class="st8" cx="276.5" cy="180.8" rx="1" ry="0.9"/>
		</g>
		<g>
			
				<ellipse transform="matrix(0.9971 7.593594e-02 -7.593594e-02 0.9971 14.7911 -20.465)" class="st8" cx="276.5" cy="184.3" rx="1" ry="0.9"/>
			
				<ellipse transform="matrix(0.9971 7.593594e-02 -7.593594e-02 0.9971 14.9954 -20.4572)" class="st8" cx="276.5" cy="187" rx="1" ry="0.9"/>
			
				<ellipse transform="matrix(0.9971 7.593594e-02 -7.593594e-02 0.9971 15.1996 -20.4495)" class="st8" cx="276.5" cy="189.6" rx="1" ry="0.9"/>
		</g>
	</g>
	<polyline class="st2" points="279.5,33.8 285.8,31.2 289.7,31.9 	"/>
</g>
<g>
	<circle cx="69.6" cy="126" r="7.2"/>
	<text transform="matrix(1 0 0 1 66.5552 129.7153)" class="st9 st10 st11">1</text>
</g>
<g>
	<circle cx="199.2" cy="146.9" r="7.2"/>
	<text transform="matrix(1 0 0 1 196.1533 150.5746)" class="st9 st10 st11">1</text>
</g>
<g>
	<circle cx="199.2" cy="60" r="7.2"/>
	<text transform="matrix(1 0 0 1 196.1533 63.7197)" class="st9 st10 st11">2</text>
</g>
<g>
	<circle cx="333.6" cy="79.2" r="7.2"/>
	<text transform="matrix(1 0 0 1 330.5381 82.8681)" class="st9 st10 st11">2</text>
</g>
<polyline class="st0" points="297.6,79.9 303.9,82.2 303.9,88.5 297.7,86.3 "/>
<polyline class="st0" points="297.8,89.8 303.8,91.8 303.8,97.7 297.8,95.7 "/>
<path class="st0" d="M302.2,84.9c-0.2,0.6-1.1,0.8-1.9,0.4s-1.2-1.3-1-1.9c0.2-0.6,1.1-0.8,1.9-0.4C302,83.4,302.4,84.3,302.2,84.9z
	"/>
<path class="st0" d="M302.2,94.6c-0.2,0.6-1.1,0.8-1.9,0.4c-0.8-0.4-1.2-1.3-1-1.9s1.1-0.8,1.9-0.4C302,93.1,302.4,93.9,302.2,94.6z
	"/>
<g>
	
		<ellipse transform="matrix(-0.9452 0.3264 -0.3264 -0.9452 652.0548 39.1018)" class="st12" cx="322.7" cy="74.3" rx="1.6" ry="2.1"/>
	
		<ellipse transform="matrix(-0.9452 0.3264 -0.3264 -0.9452 650.9514 39.801)" class="st12" cx="322.1" cy="74.5" rx="1.6" ry="2.1"/>
	
		<ellipse transform="matrix(-0.9452 0.3264 -0.3264 -0.9452 649.6616 40.5745)" class="st12" cx="321.4" cy="74.8" rx="1.1" ry="1.4"/>
	
		<ellipse transform="matrix(-0.9452 0.3264 -0.3264 -0.9452 648.4387 41.4077)" class="st12" cx="320.7" cy="75.1" rx="1.1" ry="1.4"/>
	
		<ellipse transform="matrix(-0.9452 0.3264 -0.3264 -0.9452 647.2159 42.2409)" class="st12" cx="320.1" cy="75.4" rx="1.1" ry="1.4"/>
	
		<ellipse transform="matrix(-0.9452 0.3264 -0.3264 -0.9452 645.9931 43.0741)" class="st12" cx="319.4" cy="75.7" rx="1.1" ry="1.4"/>
</g>
<g>
	
		<ellipse transform="matrix(-0.9452 0.3264 -0.3264 -0.9452 655.8978 62.0011)" class="st12" cx="322.7" cy="86" rx="1.6" ry="2.1"/>
	
		<ellipse transform="matrix(-0.9452 0.3264 -0.3264 -0.9452 654.7944 62.7004)" class="st12" cx="322.1" cy="86.3" rx="1.6" ry="2.1"/>
	
		<ellipse transform="matrix(-0.9452 0.3264 -0.3264 -0.9452 653.5046 63.4739)" class="st12" cx="321.4" cy="86.6" rx="1.1" ry="1.4"/>
	
		<ellipse transform="matrix(-0.9452 0.3264 -0.3264 -0.9452 652.2817 64.3071)" class="st12" cx="320.7" cy="86.9" rx="1.1" ry="1.4"/>
	
		<ellipse transform="matrix(-0.9452 0.3264 -0.3264 -0.9452 651.0589 65.1403)" class="st12" cx="320.1" cy="87.2" rx="1.1" ry="1.4"/>
	
		<ellipse transform="matrix(-0.9452 0.3264 -0.3264 -0.9452 649.8361 65.9735)" class="st12" cx="319.4" cy="87.5" rx="1.1" ry="1.4"/>
</g>
<g>
	<line class="st6" x1="182.3" y1="57.4" x2="166.5" y2="63.9"/>
	<line class="st6" x1="183" y1="66.9" x2="167.1" y2="73.4"/>
</g>
<g>
	
		<ellipse transform="matrix(-0.9452 0.3264 -0.3264 -0.9452 377.8643 49.9126)" class="st12" cx="184.7" cy="56.7" rx="1.6" ry="2.1"/>
	
		<ellipse transform="matrix(-0.9452 0.3264 -0.3264 -0.9452 376.7608 50.6119)" class="st12" cx="184.1" cy="56.9" rx="1.6" ry="2.1"/>
	
		<ellipse transform="matrix(-0.9452 0.3264 -0.3264 -0.9452 375.471 51.3854)" class="st12" cx="183.4" cy="57.2" rx="1.1" ry="1.4"/>
	
		<ellipse transform="matrix(-0.9452 0.3264 -0.3264 -0.9452 374.2482 52.2186)" class="st12" cx="182.7" cy="57.5" rx="1.1" ry="1.4"/>
	
		<ellipse transform="matrix(-0.9452 0.3264 -0.3264 -0.9452 373.0254 53.0518)" class="st12" cx="182.1" cy="57.8" rx="1.1" ry="1.4"/>
	
		<ellipse transform="matrix(-0.9452 0.3264 -0.3264 -0.9452 371.8026 53.885)" class="st12" cx="181.4" cy="58.1" rx="1.1" ry="1.4"/>
</g>
<g>
	
		<ellipse transform="matrix(-0.9452 0.3264 -0.3264 -0.9452 382.3192 68.5559)" class="st12" cx="185.4" cy="66.4" rx="1.6" ry="2.1"/>
	
		<ellipse transform="matrix(-0.9452 0.3264 -0.3264 -0.9452 381.2157 69.2551)" class="st12" cx="184.8" cy="66.6" rx="1.6" ry="2.1"/>
	
		<ellipse transform="matrix(-0.9452 0.3264 -0.3264 -0.9452 379.9259 70.0286)" class="st12" cx="184.1" cy="66.9" rx="1.1" ry="1.4"/>
	
		<ellipse transform="matrix(-0.9452 0.3264 -0.3264 -0.9452 378.7031 70.8618)" class="st12" cx="183.4" cy="67.2" rx="1.1" ry="1.4"/>
	
		<ellipse transform="matrix(-0.9452 0.3264 -0.3264 -0.9452 377.4803 71.695)" class="st12" cx="182.7" cy="67.5" rx="1.1" ry="1.4"/>
	
		<ellipse transform="matrix(-0.9452 0.3264 -0.3264 -0.9452 376.2575 72.5282)" class="st12" cx="182" cy="67.8" rx="1.1" ry="1.4"/>
</g>
</svg>
