<?xml version="1.0" encoding="UTF-8"?><!-- Generator: Adobe Illustrator 12.0.0, SVG Export Plug-In . SVG Version: 6.00 Build 51448)  --><!DOCTYPE svg PUBLIC "-//W3C//DTD SVG 1.1//EN" "http://www.w3.org/Graphics/SVG/1.1/DTD/svg11.dtd">
<svg xmlns="http://www.w3.org/2000/svg" xmlns:xlink="http://www.w3.org/1999/xlink" version="1.1" width="311.5" height="139.379" viewBox="0 0 311.5 139.379" overflow="visible" enable-background="new 0 0 311.5 139.379" xml:space="preserve" preserveAspectRatio="xMidYMid meet" zoomAndPan="magnify" contentScriptType="application/ecmascript" contentStyleType="text/css">
<g id="outline">
	
		<line fill="none" stroke="#000000" stroke-width="0.5" stroke-linecap="round" stroke-linejoin="round" x1="0.25" y1="0.75" x2="0.25" y2="118"/>
	
		<line fill="none" stroke="#000000" stroke-width="0.5" stroke-linecap="round" stroke-linejoin="round" x1="6.75" y1="0.75" x2="6.75" y2="117.75"/>
	
		<line fill="none" stroke="#000000" stroke-width="0.5" stroke-linecap="round" stroke-linejoin="round" x1="13" y1="0.75" x2="13" y2="118.25"/>
	
		<line fill="none" stroke="#000000" stroke-width="0.5" stroke-linecap="round" stroke-linejoin="round" x1="15" y1="0.75" x2="15" y2="118.25"/>
	
		<line fill="none" stroke="#000000" stroke-width="0.5" stroke-linecap="round" stroke-linejoin="round" x1="15.25" y1="38.75" x2="311" y2="16"/>
	
		<ellipse fill="none" stroke="#000000" stroke-width="0.5" stroke-linecap="round" stroke-linejoin="round" cx="26.125" cy="44.625" rx="3.125" ry="3.875"/>
	
		<ellipse fill="none" stroke="#000000" stroke-width="0.5" stroke-linecap="round" stroke-linejoin="round" cx="23.125" cy="79.75" rx="4.125" ry="5.75"/>
	<path fill="none" stroke="#000000" stroke-width="0.5" stroke-linecap="round" stroke-linejoin="round" d="M26.25,76.25   c0,0-6.5,2.25-6.75,6.25"/>
	
		<rect x="15" y="57" fill="none" stroke="#000000" stroke-width="0.5" stroke-linecap="round" stroke-linejoin="round" width="3.75" height="5"/>
	
		<rect x="15.25" y="105.5" fill="none" stroke="#000000" stroke-width="0.5" stroke-linecap="round" stroke-linejoin="round" width="3.75" height="5"/>
	
		<line fill="none" stroke="#000000" stroke-width="0.5" stroke-linecap="round" stroke-linejoin="round" x1="29.5" y1="43" x2="311.25" y2="26"/>
	
		<line fill="none" stroke="#000000" stroke-width="0.5" stroke-linecap="round" stroke-linejoin="round" x1="311.25" y1="39.75" x2="15.75" y2="51.25"/>
	
		<line fill="none" stroke="#000000" stroke-width="0.5" stroke-linecap="round" stroke-linejoin="round" x1="15" y1="86" x2="311" y2="103.75"/>
	
		<line fill="none" stroke="#000000" stroke-width="0.5" stroke-linecap="round" stroke-linejoin="round" x1="22.5" y1="43.25" x2="14.75" y2="43.75"/>
	
		<line fill="none" stroke="#000000" stroke-width="0.5" stroke-linecap="round" stroke-linejoin="round" x1="311.25" y1="80" x2="149.75" y2="77"/>
	
		<line fill="none" stroke="#000000" stroke-width="0.5" stroke-linecap="round" stroke-linejoin="round" x1="20.75" y1="0.25" x2="20.5" y2="37.75"/>
	<path fill="none" stroke="#000000" stroke-width="0.5" stroke-linecap="round" stroke-linejoin="round" d="M21,87.25"/>
	
		<line fill="none" stroke="#000000" stroke-width="0.5" stroke-linecap="round" stroke-linejoin="round" x1="21" y1="118" x2="21" y2="86.5"/>
	
		<line fill="none" stroke="#000000" stroke-width="0.5" stroke-linecap="round" stroke-linejoin="round" x1="30.5" y1="0.25" x2="30.5" y2="37.25"/>
	
		<line fill="none" stroke="#000000" stroke-width="0.5" stroke-linecap="round" stroke-linejoin="round" x1="30" y1="87.5" x2="30" y2="118.5"/>
	
		<line fill="none" stroke="#000000" stroke-width="0.5" stroke-linecap="round" stroke-linejoin="round" x1="32" y1="118.25" x2="32" y2="87.25"/>
	
		<line fill="none" stroke="#000000" stroke-width="0.5" stroke-linecap="round" stroke-linejoin="round" x1="32.25" y1="37" x2="32.25" y2="0.5"/>
	<polygon fill="none" stroke="#000000" stroke-width="0.5" stroke-linecap="round" stroke-linejoin="round" points="22.5,7.5    28.75,6 28.75,17 22.5,17.75  "/>
	<polygon fill="none" stroke="#000000" stroke-width="0.5" stroke-linecap="round" stroke-linejoin="round" points="22.25,25.5    28.5,24 28.5,35 22.25,35.75  "/>
	
		<line fill="none" stroke="#000000" stroke-width="0.5" stroke-linecap="round" stroke-linejoin="round" x1="23.5" y1="98.75" x2="23.5" y2="88.5"/>
	<polygon fill="none" stroke="#000000" stroke-width="0.5" stroke-linecap="round" stroke-linejoin="round" points="22,98.75    22,88.125 28.875,88.25 28.875,99.25  "/>
	
		<line fill="none" stroke="#000000" stroke-width="0.5" stroke-linecap="round" stroke-linejoin="round" x1="23.5" y1="116.75" x2="23.5" y2="106.5"/>
	<polygon fill="none" stroke="#000000" stroke-width="0.5" stroke-linecap="round" stroke-linejoin="round" points="22,116.75    22,106.125 28.875,106.25 28.875,117.25  "/>
	
		<line fill="none" stroke="#000000" stroke-width="0.5" stroke-linecap="round" stroke-linejoin="round" x1="65.333" y1="74.334" x2="15.333" y2="72.667"/>
	<polyline fill="none" stroke="#000000" stroke-width="0.5" stroke-linecap="round" stroke-linejoin="round" points="140.5,46.625    140.875,54.625 153.5,70.25 155.5,76.625  "/>
	<polyline fill="none" stroke="#000000" stroke-width="0.5" stroke-linecap="round" stroke-linejoin="round" points="146,46.5    146.125,51.125 162.875,77  "/>
	
		<rect x="141.375" y="47.625" fill="none" stroke="#000000" stroke-width="0.5" stroke-linecap="round" stroke-linejoin="round" width="0.875" height="2.875"/>
	<polyline fill="none" stroke="#000000" stroke-width="0.5" stroke-linecap="round" stroke-linejoin="round" points="151.5,46.25    153.25,51.5 166.5,76.75  "/>
	
		<line fill="none" stroke="#000000" stroke-width="0.5" stroke-linecap="round" stroke-linejoin="round" x1="164" y1="45.75" x2="169.25" y2="76.75"/>
	
		<line fill="none" stroke="#000000" stroke-width="0.5" stroke-linecap="round" stroke-linejoin="round" x1="168.75" y1="45.5" x2="176.5" y2="77"/>
	<polyline fill="none" stroke="#000000" stroke-width="0.5" stroke-linecap="round" stroke-linejoin="round" points="231.5,43.25    236.75,78.25 230.5,43.25  "/>
	
		<line fill="none" stroke="#000000" stroke-width="0.5" stroke-linecap="round" stroke-linejoin="round" x1="237.25" y1="42.75" x2="245.75" y2="78"/>
	<polyline fill="none" stroke="#000000" stroke-width="0.5" stroke-linecap="round" stroke-linejoin="round" points="222.5,43.75    228,78.25 223.75,43  "/>
	
		<line fill="none" stroke="#000000" stroke-width="0.5" stroke-linecap="round" stroke-linejoin="round" x1="216.75" y1="43.25" x2="220.5" y2="77.75"/>
	
		<line fill="none" stroke="#000000" stroke-width="0.5" stroke-linecap="round" stroke-linejoin="round" x1="214.5" y1="43.75" x2="219.75" y2="77.75"/>
	
		<line fill="none" stroke="#000000" stroke-width="0.5" stroke-linecap="round" stroke-linejoin="round" x1="209.25" y1="44" x2="213.5" y2="77.75"/>
	
		<line fill="none" stroke="#000000" stroke-width="0.5" stroke-linecap="round" stroke-linejoin="round" x1="247.667" y1="42.333" x2="250.334" y2="78.333"/>
	<polyline fill="none" stroke="#000000" stroke-width="0.5" stroke-linecap="round" stroke-linejoin="round" points="   256.667,42.333 259.334,78 254,42.333  "/>
	<polyline fill="none" stroke="#000000" stroke-width="0.5" stroke-linecap="round" stroke-linejoin="round" points="263.334,42    263,48 271,79  "/>
	
		<line fill="none" stroke="#000000" stroke-width="0.5" stroke-linecap="round" stroke-linejoin="round" x1="130.333" y1="47.167" x2="130.833" y2="53.667"/>
	
		<line fill="none" stroke="#000000" stroke-width="0.5" stroke-linecap="round" stroke-linejoin="round" x1="125.5" y1="47.333" x2="125.667" y2="52.167"/>
	
		<line fill="none" stroke="#000000" stroke-width="0.5" stroke-linecap="round" stroke-linejoin="round" x1="121.5" y1="47.667" x2="121.833" y2="52.333"/>
	
		<line fill="none" stroke="#000000" stroke-width="0.5" stroke-linecap="round" stroke-linejoin="round" x1="115.833" y1="47.667" x2="116.5" y2="52.167"/>
	
		<line fill="none" stroke="#000000" stroke-width="0.5" stroke-linecap="round" stroke-linejoin="round" x1="111" y1="47.833" x2="111.333" y2="52.5"/>
	
		<line fill="none" stroke="#000000" stroke-width="0.5" stroke-linecap="round" stroke-linejoin="round" x1="103" y1="48.167" x2="103.333" y2="52.833"/>
	
		<line fill="none" stroke="#000000" stroke-width="0.5" stroke-linecap="round" stroke-linejoin="round" x1="98.333" y1="48.5" x2="98.833" y2="52.833"/>
	
		<line fill="none" stroke="#000000" stroke-width="0.5" stroke-linecap="round" stroke-linejoin="round" x1="93.333" y1="48.5" x2="93.667" y2="52.833"/>
	<polyline fill="none" stroke="#000000" stroke-width="0.5" stroke-linecap="round" stroke-linejoin="round" points="57,50    57.333,56 60.167,74.167  "/>
	<polyline fill="none" stroke="#000000" stroke-width="0.5" stroke-linecap="round" stroke-linejoin="round" points="60.833,50    60.833,54.5 64.333,74  "/>
	
		<line fill="none" stroke="#000000" stroke-width="0.5" stroke-linecap="round" stroke-linejoin="round" x1="135.5" y1="46.667" x2="136.333" y2="54.833"/>
	
		<line fill="none" stroke="#000000" stroke-width="0.5" stroke-linecap="round" stroke-linejoin="round" x1="90" y1="0.333" x2="91" y2="33"/>
	
		<line fill="none" stroke="#000000" stroke-width="0.5" stroke-linecap="round" stroke-linejoin="round" x1="48.667" y1="88" x2="49" y2="118"/>
	<polyline fill="none" stroke="#000000" stroke-width="0.5" stroke-linecap="round" stroke-linejoin="round" points="32.333,9    37.333,13 37.333,25 32.333,25  "/>
	<path fill="#FFFFFF" stroke="#000000" stroke-width="0.5" stroke-linecap="round" stroke-linejoin="round" d="M25,84.667   c0,0-4-5.333-4.333-10"/>
</g>
<g id="plug_x5F_lines">
</g>
<g id="plug">
	<path fill="#8C8C8C" stroke="#000000" stroke-width="0.5" stroke-linecap="round" stroke-linejoin="round" d="M64.667,59.167   c0,0,0.333-5.5,4-5.5s20,0,20,0L111,53c0,0,3-1.833,4.333-0.833l8.5,0.167c0,0,6.167,1,7.333,1.833l10.333,1.167l11.833,15.833   c0,0-0.834,5.5-5,5.5h-7.5c0,0-3.665,4-7.666,4l-3.833,0.666c0,0-2.667-0.333-3.333-2.333c0,0-5,2.499-12.333,3.333   c0,0-3.167,0.166-4.5-1l-23.333,1.334L76.5,83.333c0,0-2.833,0-4.167-1.333l-6.167-7.667c0,0-1.333-2.167-1.333-4.333   C64.833,67.833,64.667,59.167,64.667,59.167z"/>
	<g>
		<path fill="none" stroke="#000000" stroke-width="0.5" stroke-linecap="round" stroke-linejoin="round" d="M133.334,54.833    c0,0,4.332,2.334,4.166,7.5c-0.166,5.167,0,10.167,0,10.167v2.668c0,0-2.666,5.666-4.666,5.5"/>
		<path fill="none" stroke="#000000" stroke-width="0.5" stroke-linecap="round" stroke-linejoin="round" d="M140.5,76.668    c0,0,4.666-4.334,4-9.667v-3.5c0,0,0.166-2.167-3.834-8.167"/>
		<path fill="none" stroke="#000000" stroke-width="0.5" stroke-linecap="round" stroke-linejoin="round" d="M112.5,52.333L115,53.5    c0,0,1.833,1.667,1.833,4.5s1.333,18.5,1.333,18.5l8.666-0.332c4.334-0.5,6.667-6.5,6.667-6.5v-6.834c0,0-1-2.333-2.333-4    C129.833,57.167,115,52.167,115,52.167"/>
		<path fill="none" stroke="#000000" stroke-width="0.5" stroke-linecap="round" stroke-linejoin="round" d="M113.333,82.334    C112.667,82.168,118,80,118.167,76.5"/>
		<path fill="none" stroke="#000000" stroke-width="0.5" stroke-linecap="round" stroke-linejoin="round" d="M89.333,53.5    c0,0,2.667,1.667,3.167,4.5s0,11,0,11s0.333,4.001-2.333,7.167L85,82.334"/>
		<path fill="none" stroke="#000000" stroke-width="0.5" stroke-linecap="round" stroke-linejoin="round" d="M108.833,81.334v-8.166    c0,0,8.5-2.002,8.5-4.5l-24.333,1"/>
		<g>
			
				<rect x="68.333" y="59.167" fill="none" stroke="#000000" stroke-width="0.5" stroke-linecap="round" stroke-linejoin="round" width="2.333" height="9.666"/>
			
				<line fill="none" stroke="#000000" stroke-width="0.5" stroke-linecap="round" stroke-linejoin="round" x1="69.333" y1="59.333" x2="69.333" y2="68.333"/>
		</g>
		
			<rect x="85.364" y="59" fill="none" stroke="#000000" stroke-width="0.5" stroke-linecap="round" stroke-linejoin="round" width="2.771" height="9.667"/>
		
			<line fill="none" stroke="#000000" stroke-width="0.5" stroke-linecap="round" stroke-linejoin="round" x1="86.833" y1="59.167" x2="86.833" y2="68.167"/>
		<g>
			
				<rect x="77.166" y="67" fill="none" stroke="#000000" stroke-width="0.5" stroke-linecap="round" stroke-linejoin="round" width="2.333" height="9.667"/>
			
				<line fill="none" stroke="#000000" stroke-width="0.5" stroke-linecap="round" stroke-linejoin="round" x1="78.166" y1="67.167" x2="78.166" y2="76.166"/>
		</g>
		
			<line fill="none" stroke="#000000" stroke-width="0.5" stroke-linecap="round" stroke-linejoin="round" x1="108.833" y1="73.168" x2="91.667" y2="74.168"/>
		<path fill="none" stroke="#000000" stroke-width="0.5" stroke-linecap="round" stroke-linejoin="round" d="M125.667,79    c0,0,7.666-3.666,7.833-9.333"/>
	</g>
</g>
<g id="callout">
	<g>
		<circle cx="118.37" cy="132.294" r="7.087"/>
		<text transform="matrix(1 0 0 1 115.5864 135.623)" fill="#FFFFFF" font-family="'Helvetica'" font-size="10">1</text>
	</g>
	<g>
		
			<line fill="none" stroke="#FFFFFF" stroke-width="3" stroke-linecap="round" stroke-linejoin="round" x1="114.5" y1="122.834" x2="104.167" y2="76.168"/>
	</g>
	<g>
		
			<line fill="none" stroke="#000000" stroke-width="0.5" stroke-linecap="square" stroke-linejoin="round" x1="114.5" y1="122.834" x2="104.167" y2="76.168"/>
	</g>
</g>
</svg>