<svg id="Layer_1" data-name="Layer 1" xmlns="http://www.w3.org/2000/svg" viewBox="0 0 170 127.333"><defs><style>.cls-1{fill:none;stroke:#000;stroke-linecap:round;stroke-linejoin:round;stroke-width:0.5px;}.cls-2{fill:#fff;stroke:#fff;}</style></defs><g id="details"><path class="cls-1" d="M163.984,2.4411l-64.455,9.108s-4.379.524-.173.963c4.202.438,65.151,3.416,65.151,3.416"/><path class="cls-1" d="M97.69,11.8561s-1.443.217-1.227,1.313c0,0-.306,1.136.659,1.182.963.044,67.603,3.896,67.603,3.896"/><polyline class="cls-1" points="106.667 14.92 106.667 17.109 164.726 20.261"/><line class="cls-1" x1="96.685" y1="14.2191" x2="96.641" y2="18.3801"/><line class="cls-1" x1="104.214" y1="14.8761" x2="104.214" y2="17.1981"/><path class="cls-1" d="M106.622,16.9771l-14.229,1.882s-1.096-.349-1.096,2.06v36.955s-.132,1.183,1.534,1.401h3.545l13.88-2.102s.92-.175.92-1.622v-2.407s.307-2.014-2.539-1.794l-10.948,1.576a3.7845,3.7845,0,0,0-1.313,2.715v3.635"/><path class="cls-1" d="M97.689,52.7961H96.596a3.45,3.45,0,0,0-1.228,2.496v3.984"/><polyline class="cls-1" points="95.414 57.744 96.509 57.744 111.045 55.641 164.597 58.663"/><path class="cls-1" d="M110.958,17.2841v4.161a2.8914,2.8914,0,0,1-1.183,2.102l-12.26,1.665H96.42a1.6036,1.6036,0,0,1-1.446-1.446v-5.254s1.227,1.225,1.227,2.057v2.932"/><polyline class="cls-1" points="94.975 21.094 96.202 21.094 110.871 18.993"/><path class="cls-1" d="M97.166,25.1661a2.6362,2.6362,0,0,1-.964-1.882"/><path class="cls-1" d="M94.976,20.5681H92.787s-.438-.174-.438.876v35.993s.132.611,1.228.698h1.751"/><path class="cls-1" d="M91.165,36.9861H90.51l-1.751,2.061V43.12s.306,5.122,2.406,5.472"/><path class="cls-1" d="M91.255,38.1681H90.51l-.657,1.317v4.071s.086,3.064,1.402,3.502"/><line class="cls-1" x1="88.759" y1="42.6791" x2="89.853" y2="42.6791"/><line class="cls-1" x1="88.759" y1="39.8341" x2="89.939" y2="39.8341"/><line class="cls-1" x1="107.28" y1="23.8961" x2="107.28" y2="51.4381"/><line class="cls-1" x1="101.851" y1="14.7011" x2="101.851" y2="17.5481"/><rect class="cls-1" x="110.214" y="35.1931" width="2.058" height="4.029"/><polyline class="cls-1" points="164.202 12.118 138.15 11.241 129.523 12.336 164.641 13.782"/><line class="cls-1" x1="108.112" y1="57.7001" x2="164.773" y2="60.7631"/><path class="cls-1" d="M164.682,60.8961l-1.838.831a2.0332,2.0332,0,0,0-1.311,1.928v6.566a1.3953,1.3953,0,0,0,1.748,1.007l1.316-.351"/><path class="cls-1" d="M164.682,62.0341l-.873.308a2.479,2.479,0,0,0-.31,1.532v7.225"/><line class="cls-1" x1="161.618" y1="62.9951" x2="163.5" y2="62.9951"/><path class="cls-1" d="M103.472,58.3981v4.116s-.09,1.577,3.678,1.753c3.765.175,41.596,2.189,41.596,2.189"/><polyline class="cls-1" points="146.119 63.828 145.944 65.405 132.982 65.142 132.982 64.529 132.105 64.443 127.728 64.006 126.853 64.268 118.357 64.006 118.357 63.215 104.608 62.779 104.608 60.763 113.28 61.641 114.855 61.026 119.67 61.641 118.619 62.078 126.853 62.69 127.99 62.515 132.369 62.515 146.205 63.392 146.205 64.092 151.81 64.092 148.833 65.142 148.833 67.07 161.443 67.772"/><line class="cls-1" x1="132.105" y1="64.4431" x2="132.105" y2="62.7791"/><line class="cls-1" x1="118.357" y1="61.6411" x2="118.357" y2="63.2151"/><line class="cls-1" x1="113.28" y1="61.6411" x2="113.28" y2="62.9551"/><line class="cls-1" x1="104.608" y1="60.5011" x2="161.268" y2="63.1281"/><polyline class="cls-1" points="164.773 71.446 118.796 68.995 118.97 66.807 161.533 69.26"/><polyline class="cls-1" points="118.97 66.807 117.011 68.931 105.311 68.556"/><polyline class="cls-1" points="118.796 68.995 117.044 70.046 104.083 69.696"/><polyline class="cls-1" points="117.483 69.696 117.483 71.36 116.87 71.623 105.046 70.924"/><line class="cls-1" x1="117.044" y1="69.1271" x2="117.044" y2="69.9151"/><path class="cls-1" d="M114.241,64.7921V67.07l-9.37,1.486-.876.878H101.98a8.008,8.008,0,0,0-5.602,4.115L86.22,93.0771a16.7824,16.7824,0,0,0-1.927,8.145v6.481"/><path class="cls-1" d="M112.927,64.4431s.178,1.4-2.013,1.75c-2.189.35-10.946,1.751-10.946,1.751s-3.327-.525-6.129,4.291L83.766,92.0261s-2.188,3.067-2.188,9.195v6.569"/><path class="cls-1" d="M104.608,66.8921H95.239l-2.19.615s-2.363.526-4.904,4.641c-2.539,4.117-9.983,19.266-9.983,19.266a22.6068,22.6068,0,0,0-2.453,9.372v6.831h8.494"/><path class="cls-1" d="M88.146,72.1471l5.693.088s2.189.438,2.189,1.491"/><path class="cls-1" d="M77.901,91.6761h5.865s2.19.615,2.19,1.49"/><line class="cls-1" x1="96.376" y1="59.2761" x2="96.376" y2="66.6321"/><line class="cls-1" x1="102.156" y1="58.5751" x2="102.156" y2="66.8921"/><line class="cls-1" x1="97.166" y1="59.4501" x2="97.166" y2="66.4571"/><path class="cls-1" d="M107.061,57.7s-1.489,1.576,0,2.627"/><line class="cls-1" x1="126.853" y1="62.6901" x2="126.853" y2="63.8281"/><line class="cls-1" x1="142.528" y1="63.3921" x2="142.528" y2="65.1421"/><line class="cls-1" x1="104.872" y1="68.5561" x2="104.872" y2="111.2921"/><path class="cls-1" d="M164.773,125.1281s-2.804.79-3.069-.787v-.877l-57.445-2.713h-2.103l-2.451-.174H98.218a4.0333,4.0333,0,0,1-.878-1.927H95.763v.877s.438.875-1.313,1.05-10.684,1.313-10.684,1.313-5.341,2.452-7.531-5.428v-6.83h3.767v3.065s.613,6.303,3.501,4.814l2.191,1.314s2.277,1.663,5.516-2.364h1.052v-.877h7.181v.612h5.515l42.102,2.585"/><polyline class="cls-1" points="95.589 118.386 95.589 114.008 104.697 114.008 104.697 118.563 147.256 121.451"/><polyline class="cls-1" points="99.529 114.446 99.529 116.196 99.529 118.825 97.34 118.825"/><line class="cls-1" x1="99.529" y1="118.8251" x2="104.697" y2="118.5631"/><line class="cls-1" x1="99.88" y1="119.0001" x2="99.88" y2="120.5771"/><line class="cls-1" x1="106.448" y1="118.8251" x2="106.448" y2="120.8391"/><path class="cls-1" d="M164.773,115.1461l-2.279.614a1.6361,1.6361,0,0,0-.612,1.487v6.216"/><path class="cls-1" d="M164.773,116.1961l-.703.179s-.437.086-.437.699v8.055"/><polyline class="cls-1" points="101.718 114.008 101.718 112.255 102.595 111.381 104.697 111.556 164.773 114.708"/><polyline class="cls-1" points="101.718 112.255 150.06 115.583 147.869 116.021 147.256 117.51 147.387 121.387 148.878 122.875"/><line class="cls-1" x1="147.869" y1="116.0211" x2="161.882" y2="116.8111"/><polyline class="cls-1" points="99.903 119.174 102.662 119.307 106.47 119.307"/><line class="cls-1" x1="102.662" y1="119.3071" x2="102.662" y2="120.8171"/><path class="cls-1" d="M95.763,119.0441l-13.135,1.573s-2.365-.063-3.481-4.531V109.65"/><polyline class="cls-1" points="95.589 114.008 97.801 113.265 97.801 110.834 104.697 110.834"/><path class="cls-1" d="M104.828,107.8771l-4.401.261a5.178,5.178,0,0,1-2.43-2.231s.526-3.151-4.926-3.81c0,0-2.757.198-3.676,2.496l-.988,1.775s.135,1.116-3.94,1.314"/><path class="cls-1" d="M84.336,107.8771s-2.627,2.364.33,6.505c0,0,2.889,1.574,4.138-2.563,0,0,.46-.659-.526-5.125"/><path class="cls-1" d="M87.162,107.3541s1.772,7.29-2.496,7.028"/><polyline class="cls-1" points="90.577 103.084 96.354 110.307 104.697 110.307"/><path class="cls-1" d="M93.071,102.0971s3.942,1.708,3.614,3.744c0,0,.13,2.825,3.742,2.825h4.139"/><polyline class="cls-1" points="77.901 107.683 77.901 108.469 77.113 109.323"/><polyline class="cls-1" points="79.081 107.683 79.081 108.469 78.294 109.323"/><path class="cls-1" d="M100.362,69.7841a1.8422,1.8422,0,0,0-.985-1.84"/><line class="cls-1" x1="99.64" y1="67.9441" x2="92.611" y2="67.9441"/><path class="cls-1" d="M104.171,92.2781c0,5.35-2.471,9.688-5.518,9.688s-5.518-4.338-5.518-9.688c0-5.348,2.472-9.686,5.518-9.686S104.171,86.9311,104.171,92.2781Z"/><path class="cls-1" d="M101.806,92.3771c0,4.172-1.85,7.554-4.138,7.554-2.283,0-4.137-3.382-4.137-7.554,0-4.17,1.854-7.554,4.137-7.554C99.956,84.8231,101.806,88.2071,101.806,92.3771Z"/><path class="cls-1" d="M96.027,85.55s3.678-.987,4.137,6.236c0,0,.327,7.29-4.925,6.764"/><ellipse class="cls-1" cx="95.928" cy="92.0831" rx="1.872" ry="3.251"/><ellipse class="cls-1" cx="96.223" cy="92.1141" rx="1.313" ry="2.628"/><ellipse class="cls-1" cx="96.257" cy="92.1481" rx="0.558" ry="1.149"/><polygon class="cls-1" points="138.15 79.549 134.963 81.498 132.02 79.285 132.02 74.951 134.952 72.762 138.281 75.389 138.15 79.549"/><polyline class="cls-1" points="132.325 74.818 132.325 78.981 135.216 81.169"/><polygon class="cls-1" points="134.383 87.21 131.201 89.161 128.256 86.947 128.256 82.614 131.188 80.425 134.515 83.051 134.383 87.21"/><polyline class="cls-1" points="128.562 82.481 128.562 86.644 131.451 88.831"/><polygon class="cls-1" points="141.608 87.474 138.423 89.424 135.479 87.21 135.479 82.877 138.412 80.686 141.742 83.315 141.608 87.474"/><polyline class="cls-1" points="135.786 82.746 135.786 86.903 138.673 89.095"/><polygon class="cls-1" points="145.813 95.75 142.629 97.697 139.682 95.487 139.682 91.152 142.615 88.964 145.944 91.59 145.813 95.75"/><polyline class="cls-1" points="139.988 91.022 139.988 95.18 142.877 97.37"/><polygon class="cls-1" points="153.037 96.143 149.851 98.092 146.907 95.881 146.907 91.546 149.843 89.357 153.169 91.984 153.037 96.143"/><polyline class="cls-1" points="147.214 91.413 147.214 95.574 150.104 97.763"/><polygon class="cls-1" points="149.753 103.632 146.568 105.581 143.624 103.369 143.624 99.034 146.556 96.843 149.885 99.472 149.753 103.632"/><polyline class="cls-1" points="143.93 98.902 143.93 103.063 146.818 105.251"/><polygon class="cls-1" points="156.978 104.024 153.791 105.975 150.847 103.763 150.847 99.428 153.781 97.237 157.109 99.866 156.978 104.024"/><polyline class="cls-1" points="151.153 99.295 151.153 103.456 154.044 105.646"/><polygon class="cls-1" points="152.776 80.249 149.589 82.199 146.644 79.987 146.644 75.652 149.579 73.461 152.905 76.089 152.776 80.249"/><polyline class="cls-1" points="146.95 75.52 146.95 79.682 149.843 81.869"/><polygon class="cls-1" points="159.998 80.643 156.814 82.592 153.867 80.381 153.867 76.046 156.8 73.856 160.129 76.485 159.998 80.643"/><polyline class="cls-1" points="154.173 75.914 154.173 80.075 157.063 82.264"/><polygon class="cls-1" points="119.539 86.466 116.355 88.414 113.411 86.203 113.411 81.869 116.343 79.682 119.67 82.307 119.539 86.466"/><polyline class="cls-1" points="113.715 81.738 113.715 85.899 116.606 88.087"/><polygon class="cls-1" points="123.393 94.61 120.208 96.56 117.264 94.346 117.264 90.012 120.197 87.825 123.523 90.45 123.393 94.61"/><polyline class="cls-1" points="117.57 89.882 117.57 94.04 120.459 96.23"/><polygon class="cls-1" points="127.247 102.756 124.061 104.704 121.116 102.493 121.116 98.159 124.05 95.968 127.378 98.596 127.247 102.756"/><polyline class="cls-1" points="121.423 98.028 121.423 102.186 124.313 104.376"/><polygon class="cls-1" points="131.099 110.9 127.914 112.851 124.968 110.637 124.968 106.302 127.902 104.113 131.23 106.739 131.099 110.9"/><polyline class="cls-1" points="125.277 106.172 125.277 110.332 128.165 112.519"/><polygon class="cls-1" points="123.13 78.718 119.946 80.665 117 78.454 117 74.119 119.935 71.927 123.261 74.557 123.13 78.718"/><polyline class="cls-1" points="117.308 73.988 117.308 78.148 120.197 80.337"/><polygon class="cls-1" points="109.206 87.517 109.206 79.943 109.951 79.943 111.922 81.607 111.922 86.205 109.951 87.517 109.206 87.517"/><line class="cls-1" x1="109.951" y1="79.9431" x2="109.951" y2="87.3851"/><polygon class="cls-1" points="109.338 103.149 109.338 95.574 110.083 95.574 112.052 97.237 112.052 101.838 110.083 103.149 109.338 103.149"/><line class="cls-1" x1="110.083" y1="95.5741" x2="110.083" y2="103.0201"/><line class="cls-1" x1="121.314" y1="64.8591" x2="121.314" y2="66.9601"/><polyline class="cls-1" points="114.153 38.958 114.153 27.837 134.208 28.888 134.208 40.536 113.893 38.958"/><polyline class="cls-1" points="114.153 27.837 117.219 27.137 136.923 28.276 136.923 39.834 134.208 40.536"/><line class="cls-1" x1="134.208" y1="28.8881" x2="136.923" y2="28.4511"/><polyline class="cls-1" points="134.032 36.508 116.957 38.958 116.957 28.012"/><polyline class="cls-1" points="140.427 40.797 140.427 29.678 160.481 30.728 160.481 42.372 140.163 40.797"/><polyline class="cls-1" points="140.427 29.678 143.49 28.976 163.193 30.114 163.193 41.674 160.481 42.372"/><line class="cls-1" x1="160.481" y1="30.7281" x2="163.193" y2="30.2901"/><polyline class="cls-1" points="160.305 38.345 143.228 40.797 143.228 29.852"/><path class="cls-1" d="M103.207,38.2391c0,.639-.244,1.158-.545,1.158-.305,0-.549-.519-.549-1.158,0-.645.245-1.164.549-1.164C102.963,37.0751,103.207,37.5941,103.207,38.2391Z"/><path class="cls-1" d="M100.165,39.6591c-.302,0-.547-.655-.547-1.467,0-.809.245-1.467.547-1.467"/><path class="cls-1" d="M103.472,38.2391c0,.832-.471,1.508-1.052,1.508s-1.051-.677-1.051-1.508c0-.837.47-1.514,1.051-1.514S103.472,37.4021,103.472,38.2391Z"/><path class="cls-1" d="M101.457,36.4621s-.743-1.619-2.058.354a4.5922,4.5922,0,0,0,0,2.538,1.0016,1.0016,0,0,0,1.838.306"/><line class="cls-1" x1="102.025" y1="39.6591" x2="100.143" y2="39.6591"/><line class="cls-1" x1="102.42" y1="36.7251" x2="100.186" y2="36.7251"/><path class="cls-1" d="M98.523,32.3711c0,.881-.414,1.597-.921,1.597s-.917-.716-.917-1.597c0-.885.409-1.601.917-1.601S98.523,31.4861,98.523,32.3711Z"/><path class="cls-1" d="M99.048,32.3451c0,1.454-.687,2.629-1.532,2.629s-1.533-1.175-1.533-2.629c0-1.448.687-2.625,1.533-2.625S99.048,30.8961,99.048,32.3451Z"/><path class="cls-1" d="M13.927,33.3971V24.86s-.656-2.235,2.628-2.891c0,0,6.305-.854,9.917.197,0,0,19.574,4.335,20.688,30.211,0,0-.262,24.85-19.966,27.915H15.768s-2.957-.656-2.957-3.021v-8.733"/><path class="cls-1" d="M12.973,32.7681v-9.131s-.714-2.388,2.848-3.088c0,0,6.833-.913,10.751.209,0,0,20.957,4.538,22.167,32.212,0,0,.525,20.36-14.383,27.258l-.591-.986a13.7149,13.7149,0,0,1-6.569,1.05"/><path class="cls-1" d="M33.764,79.2421S47.292,73.2641,47.16,53.89"/><path class="cls-1" d="M14.058,67.4871v9.98a1.7146,1.7146,0,0,0,1.643,1.315c1.445.131,7.685.33,7.685.33s21.149,1.355,22.288-26.491c0,0,1.051-20.406-17.078-28.024,0,0-7.88-3.852-11.822,7.267v13.532l11.123-1.535c2.757-.129,2.933,1.097,2.933,1.097v2.318a17.56,17.56,0,0,1-1.749,5.344v6.042a74.4071,74.4071,0,0,1-1.184,7.969"/><path class="cls-1" d="M29.034,22.9331s-10.507-3.853-13.573,9.108v3.501"/><path class="cls-1" d="M30.612,78.0151H23.517a2.8714,2.8714,0,0,1-1.49-2.803V61.4651"/><polyline class="cls-1" points="15.768 80.292 15.768 79.155 22.991 77.839"/><polyline class="cls-1" points="13.095 76.701 13.883 76.701 21.852 75.652"/><path class="cls-1" d="M16.336,20.3041l12.434-1.751s23.47-.173,27.412,29.775c0,0,1.838,12.173-4.991,20.932,0,0-6.219,10.244-16.464,11.471l-.438-.438"/><path class="cls-1" d="M28.596,24.5971s-3.853,3.064-3.853,7.618v11.821"/><line class="cls-1" x1="13.732" y1="24.6641" x2="20.298" y2="23.8111"/><path class="cls-1" d="M22.336,21.7061s-.855.92-.525,1.445"/><polyline class="cls-1" points="15.571 34.514 16.686 34.974 24.567 33.856"/><path class="cls-1" d="M16.686,37.0111,13.6,33.3321s-2.957-2.628-6.567.657c0,0-2.366,1.117-3.811,8.209v14.648s.461,6.108,1.644,9.063a5.957,5.957,0,0,0,4.508,3.263h1.535s2.102.305,3.852-2.847"/><path class="cls-1" d="M14.76,66.4121h.526v1.883h3.59V65.58s.569-4.245,3.634-4.157c0,0,2.715-1.052,3.502,5.691"/><path class="cls-1" d="M21.942,62.6021s1.881-1.223,2.756,2.716"/><polyline class="cls-1" points="24.698 65.405 24.698 67.419 26.452 67.419 26.452 66.981 27.896 66.981 27.896 66.632 43.44 64.881"/><polyline class="cls-1" points="43.877 63.215 29.822 65.405 28.072 65.405"/><line class="cls-1" x1="30.171" y1="44.2131" x2="44.184" y2="42.4181"/><path class="cls-1" d="M41.558,36.1131s-3.896,5.339,2.538,6.217"/><path class="cls-1" d="M42.213,37.6s-1.4,3.897,1.752,4.206"/><path class="cls-1" d="M40.332,34.1431H38.799s-.963.263-.963,1.882V43.25"/><path class="cls-1" d="M39.323,34.2741s-.963.786-.963,1.312v21.675s-.218,2.541,1.972,2.32l4.598-.568"/><line class="cls-1" x1="44.797" y1="60.1091" x2="28.728" y2="62.2091"/><polyline class="cls-1" points="29.208 62.298 29.208 65.931 27.896 66.632"/><path class="cls-1" d="M37.748,51.3511v6.217s.438,2.145,1.97,2.013"/><path class="cls-1" d="M45.627,50.1691,20.89,53.7581s.043,1.793-.745,1.883a23.1173,23.1173,0,0,1-2.539,0v-1.972l3.284.089"/><path class="cls-1" d="M29.08,53.5391s-.045.569-1.314,1.095c-1.271.525-.746,0-.746,0a4.2911,4.2911,0,0,1-1.181,1.969c-.789.57-7.226.876-7.226.876a3.2658,3.2658,0,0,1-1.007-1.838"/><line class="cls-1" x1="20.145" y1="55.6411" x2="26.933" y2="54.8531"/><ellipse class="cls-1" cx="43.877" cy="54.4151" rx="1.401" ry="2.627"/><ellipse class="cls-1" cx="43.79" cy="54.1971" rx="1.752" ry="2.934"/><ellipse class="cls-1" cx="43.066" cy="54.2631" rx="2.561" ry="3.217"/><polyline class="cls-1" points="18.176 47.979 19.445 47.979 30.829 46.315"/><path class="cls-1" d="M19.445,55.7291v-2.848a56.05,56.05,0,0,1-1.621-5.384s-1.006-1.578-2.188.218v12.436l1.272,8.099"/><path class="cls-1" d="M20.89,53.7581a50.4247,50.4247,0,0,1-1.444-5.779s-.438-2.847-2.672-2.583c0,0-1.751-.308-2.277,1.969v12.348l.79,6.699"/><path class="cls-1" d="M14.497,47.8041h1.839a1.042,1.042,0,0,1,1.225-.482"/><polyline class="cls-1" points="16.993 47.365 16.993 53.583 17.65 53.583"/><path class="cls-1" d="M24.743,39.8341a14.8473,14.8473,0,0,0,2.934-4.073,2.1456,2.1456,0,0,1,1.751-1.094c1.401-.218,10.29-1.312,10.29-1.312"/><path class="cls-1" d="M35.602,28.9311l-8.32,1.01a4.497,4.497,0,0,0-2.539,1.836"/><path class="cls-1" d="M37.441,30.6821l-8.54,1.009s-.743-.175-2.275,1.75l-1.883,2.801"/><path class="cls-1" d="M27.282,29.94a1.7806,1.7806,0,0,1,1.798,1.619v3.196"/><path class="cls-1" d="M24.743,32.2151a3.3052,3.3052,0,0,1,1.883,1.226l1.05,2.191"/><path class="cls-1" d="M16.948,37.7771l-3.5-3.502a3.5844,3.5844,0,0,0-3.198.131,10.4834,10.4834,0,0,0-4.116,7.4v17.427s0,7.18,4.161,8.627h2.409l1.707-1.754v-.394h.788"/><path class="cls-1" d="M16.73,41.3691l-3.502-3.504s-3.372-3.197-5.253,4.159v16.857s-.438,4.466,3.064,5.737l1.4.087s1.666-.613,2.103-4.029"/><line class="cls-1" x1="14.542" y1="65.6671" x2="13.447" y2="63.9601"/><path class="cls-1" d="M14.497,59.7131a8.4523,8.4523,0,0,1-3.676,4.774"/><path class="cls-1" d="M10.6,37.3391a1.62,1.62,0,0,1,1.62.656l2.628,3.064h1.445"/><line class="cls-1" x1="15.505" y1="41.0601" x2="15.505" y2="45.5711"/><path class="cls-1" d="M15.329,44.9141l-3.196.437s-1.358,1.184-.089,2.057h2.453"/><line class="cls-1" x1="13.974" y1="45.2201" x2="13.974" y2="47.4071"/><polyline class="cls-1" points="14.41 55.597 13.14 55.597 13.14 55.861 11.914 55.861 11.914 53.847 12.133 53.847 12.133 47.407"/><line class="cls-1" x1="12.658" y1="45.3511" x2="12.658" y2="55.7291"/><polyline class="cls-1" points="3.158 44.562 6.134 44.562 7.841 44.258"/><polyline class="cls-1" points="3.508 59.013 6.134 59.013 7.974 58.881"/><path class="cls-1" d="M9.92,32.4771s1.446.068,1.446,1.184v3.414"/><path class="cls-1" d="M10.667,32.5651s1.443.067,1.443,1.182v3.417"/><path class="cls-1" d="M47.292,27.3571l29.883-3.941s2.168-.461,2.168.984v.986h.331v7.683l2.954,3.811v2.43h1.18l.922.659v2.167l-1.117.787H82.76v2.956l-2.89,3.613v8.539s0,1.051-1.839,1.511l-23.316,3.547"/><path class="cls-1" d="M79.871,56.0591a1.9008,1.9008,0,0,0-2.036-1.117l-21.807,3.283"/><polyline class="cls-1" points="79.674 58.028 78.163 58.685 76.848 58.685 55.042 61.969"/><line class="cls-1" x1="77.835" y1="54.9411" x2="77.835" y2="59.5391"/><line class="cls-1" x1="76.588" y1="55.2681" x2="76.588" y2="59.5391"/><path class="cls-1" d="M50.775,31.8871l24.957-3.61,2.956-.133s1.118-.591.987-1.117"/><polyline class="cls-1" points="48.802 28.8 75.404 25.189 79.147 25.058"/><path class="cls-1" d="M76.061,23.5461a3.5063,3.5063,0,0,1,.462,1.445v2.956"/><path class="cls-1" d="M77.372,23.5461a3.5013,3.5013,0,0,1,.463,1.445v2.956"/><path class="cls-1" d="M52.876,35.3681l8.407-1.314,4.926-.524,6.566-1.116h.66s6.239,6.961.656,18.585l-.985.329-6.043,1.444-3.94.197-.527.788-6.042.984"/><polyline class="cls-1" points="52.546 34.843 62.464 33.397 63.123 52.97"/><line class="cls-1" x1="60.955" y1="34.2531" x2="60.625" y2="53.1011"/><polyline class="cls-1" points="56.488 53.758 60.428 53.101 61.809 53.101 61.809 53.43 62.595 53.298"/><polyline class="cls-1" points="66.209 52.773 66.209 33.53 67.193 32.545 74.616 31.755 76.522 31.428 76.522 33.267 79.475 33.068"/><line class="cls-1" x1="66.864" y1="33.3321" x2="66.864" y2="52.5761"/><polyline class="cls-1" points="66.405 52.773 68.179 53.233 76.061 52.116 76.914 51.329 76.914 49.817 79.871 49.489"/><polyline class="cls-1" points="76.522 33.267 79.343 36.483 79.871 37.537 79.871 46.203 77.175 49.687"/><polyline class="cls-1" points="75.404 31.755 75.404 33.596 78.491 37.141 78.491 45.417 75.928 48.634 75.602 49.161 75.602 52.116"/><polyline class="cls-1" points="78.491 36.815 79.147 36.156 81.84 36.156"/><polyline class="cls-1" points="78.491 45.417 79.147 47.189 82.299 47.189"/><line class="cls-1" x1="72.579" y1="32.4141" x2="72.579" y2="51.1311"/><polyline class="cls-1" points="66.996 37.799 70.675 37.208 72.447 37.208"/><polyline class="cls-1" points="66.996 48.176 71.267 47.322 72.447 46.535"/><polyline class="cls-1" points="66.864 39.111 71.659 39.506 71.659 37.339"/><line class="cls-1" x1="66.864" y1="46.7301" x2="69.624" y2="46.7301"/><line class="cls-1" x1="69.951" y1="47.5181" x2="69.951" y2="39.3091"/><line class="cls-1" x1="71.463" y1="39.6371" x2="71.463" y2="46.8621"/><polyline class="cls-1" points="69.82 39.834 68.704 39.834 68.704 46.73"/><polygon class="cls-2" points="76.027 77.076 84.843 69.1 74.016 63.533 74.379 66.783 59.192 69.001 60.303 76.497 75.589 74.132 76.027 77.076"/><polygon points="78.21 75.854 85.556 69.205 76.533 64.567 76.833 67.273 62.352 69.397 63.188 75.041 77.787 73.005 78.21 75.854"/><polygon points="60.253 66.631 52.908 73.279 61.931 77.916 61.632 75.21 76.113 73.086 75.274 67.441 60.678 69.479 60.253 66.631"/></g></svg>