<svg id="Layer_1" data-name="Layer 1" xmlns="http://www.w3.org/2000/svg" viewBox="0 0 286.6 291"><defs><style>.cls-1,.cls-5{fill:none;}.cls-1,.cls-2,.cls-3,.cls-4,.cls-5{stroke:#000;}.cls-1,.cls-2,.cls-3,.cls-4,.cls-5,.cls-7,.cls-8{stroke-linecap:round;stroke-linejoin:round;}.cls-1,.cls-2,.cls-3,.cls-4{stroke-width:0.5px;}.cls-2,.cls-6{fill:#fff;}.cls-4{fill:#ec008c;}.cls-5{stroke-width:0.25px;}.cls-7,.cls-8{stroke:#fff;}.cls-7{stroke-width:5px;}.cls-8{stroke-width:1.5px;}</style></defs><g id="SIMPLE_Open_Boot" data-name="SIMPLE Open Boot"><path class="cls-1" d="M27.6,195.5l-.1-2.8c0-.1.1-.2.2-.3a1.7927,1.7927,0,0,1,.8-.4l2.3.4a1.9569,1.9569,0,0,1,.9,1.3l.2,2c.3,0,.6-.4.6-.4s3.9-6.9,4.1-7.2a11.5273,11.5273,0,0,0,.5-2,11.3793,11.3793,0,0,0,0-1.9c-.1-.7-1.2-1-1.2-1s-1.3-.2-1.8-.3a1.2281,1.2281,0,0,0-.9.2l-5.2,9"/><line class="cls-1" x1="31.8" y1="193.3" x2="36.9" y2="184.4"/><polyline class="cls-1" points="36.7 183.5 72.8 188.6 72.8 187.9"/><line class="cls-1" x1="29.2" y1="192.8" x2="11.2" y2="224.6"/><line class="cls-1" x1="31.1" y1="193.4" x2="13.4" y2="224.8"/><line class="cls-1" x1="20.5" y1="214.8" x2="20.7" y2="226.9"/><path class="cls-1" d="M3.4,230.5,6,225.7a3.26,3.26,0,0,1,2.5-1,26.69,26.69,0,0,1,19.9,7.4c8.6,8.2,6.9,17.7,6.9,17.7s-1.6,5.7-3.6,8.3"/><path class="cls-1" d="M3.1,239.1l-.2-6.9a2.2806,2.2806,0,0,1,2.3-2.4c2.5-.3,9.5-.5,17.3,4.7s12.1,14.7,9.6,22.6c0,0-1.7,6.4-10.4,9.2l-6.2-.3"/><path class="cls-1" d="M4.5,261.7v1.7s0,1.3,1.7,1.5c1.6.2,6.8,1,6.8,1a19.53,19.53,0,0,0,8.4-1.1c3.8-1.6,6.9-3.6,8.7-8.9s-.4-15.1-10.3-20.9c0,0-3.5-2.1-5.5-2.3,0,0-7-1.2-7.8,5.2l-.1,6.7"/><line class="cls-1" x1="9.8" y1="246.9" x2="17.3" y2="233.8"/><path class="cls-1" d="M6.3,245.3a2.2492,2.2492,0,0,1,3.2.9l.8,3,3.5-6.3s-.1-3.1-.1-3.7a2.7777,2.7777,0,0,0-.5-1.3,1.7464,1.7464,0,0,0-2.5-.5L5.8,246"/><path class="cls-1" d="M5.7,246.4l1,.2s.6-1.3,1.6-.4l.6,2.5s-1.1.9-1.6.9c0,0,1.8,1.4,2.8-.3"/><line class="cls-1" x1="13.4" y1="243.8" x2="18.7" y2="234.5"/><path class="cls-1" d="M5,241.9l.4-2.3s-.2-1.6-2-.8c0,0-2.1,1.8-2.7,7.1,0,0-.3,2.3-.4,3.4s.3,10.8.3,10.8.6,4.9,3.4,2.3"/><path class="cls-1" d="M5.3,239.7s-.8.3-1.7,2.8a30.6334,30.6334,0,0,0-1.2,8.6c0,2-.3,10.8,1.1,11,0,0,1.7.4,3.2-7.9l.7,5.4.7-1.1s0-4.1,1.2-6.1a2.6513,2.6513,0,0,1,.5-.6s1-.5,1,2l.7-1,.2-3.9L19.6,235"/><path class="cls-1" d="M10.6,253.8H9.7a5.5571,5.5571,0,0,0-.3-1.5"/><line class="cls-1" x1="4.4" y1="263.4" x2="7.4" y2="259.3"/><path class="cls-1" d="M7.7,259.3a3.1208,3.1208,0,0,0,1.3.6c.5,0,8.5,1,8.5,1s7.6.3,12.2-4.8"/><path class="cls-1" d="M22.5,227.7l13.1-23.3.7-.2.8.1s.6.5.3,2.6l-5.3,9.2s-.5,1-2.1.5l-6.6,11.7"/><path class="cls-1" d="M32.2,215.8a7.9237,7.9237,0,0,1,.6-4.1c.9-1.5,4.2-7.4,4.2-7.4"/><line class="cls-1" x1="194.3" y1="229.8" x2="37.7" y2="207.4"/><path class="cls-1" d="M25.1,222.7s.2-2.2.2-3.6l.5-.8-.2-12.5"/><polyline class="cls-1" points="25.8 215.6 27.9 211.8 27.7 201.6"/><line class="cls-1" x1="31.1" y1="195.6" x2="14.5" y2="224.9"/><line class="cls-1" x1="29.3" y1="199.2" x2="29.6" y2="211.5"/><path class="cls-1" d="M28.1,211.8s1.3.4,1.5-.4l1.2-2.1-.3-12.6"/><line class="cls-1" x1="31" y1="205.4" x2="32.9" y2="205.7"/><path class="cls-1" d="M30.7,200.8l2.6.3.2.2-.4.6a2.7488,2.7488,0,0,0-.2,1.3c.1.6.1,3.1.1,3.1s0,.5.3.5a7.7543,7.7543,0,0,1,.9.1"/><path class="cls-1" d="M31.7,195.6v4.3l2.1.2s.8.5.8,1a1.7457,1.7457,0,0,1-.5,1,2.8721,2.8721,0,0,0-.2,1.2c.1.4.2,3.3.2,3.3"/><path class="cls-1" d="M35.4,190.1l1.8,1.8a2.33,2.33,0,0,1,.5,1.8l.2.2v1.9l-.2.3v1l-1.3,2.6L34.7,201"/><path class="cls-1" d="M34.3,191.9l1.6,1.7a2.4868,2.4868,0,0,1,.7,1.5c0,.8.1,3.9.1,3.9"/><line class="cls-1" x1="35.3" y1="200.6" x2="35.4" y2="204.3"/><polygon class="cls-1" points="39.7 190.9 53.8 192.9 54.6 203.8 40.2 201.7 39.7 190.9"/><polygon class="cls-1" points="71.4 189.9 72.2 206.6 56.6 204.3 55.8 187.7 71.4 189.9"/><polygon class="cls-1" points="85.1 201.8 110.2 205.2 109.8 198 84.9 194.3 85.1 201.8"/><line class="cls-1" x1="97.4" y1="196.4" x2="97.6" y2="203.5"/><path class="cls-1" d="M121.6,199.7s-.9-.3-.9.8l.4,6.3,24.9,3.7-.3-6.9a.8918.8918,0,0,0-.8-.6C144.3,203,121.6,199.7,121.6,199.7Z"/><line class="cls-1" x1="133.6" y1="208.5" x2="133.2" y2="201.4"/><path class="cls-1" d="M150.8,199.6v17.7s-23.2-3.5-24.1-3.3c-.8.3-2.3-.6-2.3-.6l-1.7-1.2-.9-1.2c0-1.8-1-1.9-1-1.9s-8.1-1.2-8.7-1.3c-.7-.2-1.8,0-1.8,1a1.3558,1.3558,0,0,1-.7,1.3l-2.3.8-24.2-3.6a1.7142,1.7142,0,0,1-1.8-1.9L81,190.7s.2-2.3-2-2.3"/><line class="cls-1" x1="192.2" y1="216.6" x2="192.3" y2="225"/><path class="cls-1" d="M200.1,217.5l-16.9-2.4s-.8-.3-.8.8c.1,1.2.3,6.9.3,6.9s-.1,1.1.8,1,13.3,2,13.3,2"/><path class="cls-1" d="M112.3,214.8l1-1,5.1.8,1.1,1s1.2,1.3-.4,1.8l-6-.9A2.6208,2.6208,0,0,1,112.3,214.8Z"/><path class="cls-1" d="M201.7,217.5l-22.1,39.7.5,31.6a2.2145,2.2145,0,0,1-2,1.8,22.4528,22.4528,0,0,1-7.9-.4c-3.4-.8-18.7-5.5-19.7-22.3,0,0-1.5-11.9,16-19a21.455,21.455,0,0,1,8.2-.2,39.2031,39.2031,0,0,0,5.1.8,2.8911,2.8911,0,0,1,2.6,2.2l.8,32.1-3,5.3"/><path class="cls-1" d="M173.2,287.1c-4.5,2.7-12.1-2.3-16.3-7s-6.1-15-1.1-20.5l.6-.6c5.1-4.9,13.5-4.5,13.5-4.5s6.2.9,7.3,1,1.4,1.6,1.4,1.6l.4,23.1a36.934,36.934,0,0,1-1.2,5.3c-.6,1.5-1.1,2.7-2.4,1.2s-.5-14.8-.5-14.8,1.5-7.8,3.3-6.6l-.2-.6s-1.3-1.7-2.6-.4-2.8,7.7-2.8,9.8.3,10.9.3,10.9.5,5,3.6,2.8"/><path class="cls-1" d="M172.9,282.7s-7-.4-13.2-7.9a17.043,17.043,0,0,1-3.3-15.7"/><path class="cls-1" d="M200,220.3s-.4-2.9,1.1-2.9a7.4925,7.4925,0,0,1,2.8.6l-21.2,37.8"/><line class="cls-1" x1="205.7" y1="208.2" x2="200.9" y2="217"/><path class="cls-1" d="M202.6,241.8s1.5.7,2-.7l-.4-22.4,5.3-8.9"/><line class="cls-1" x1="183.1" y1="276.2" x2="204.6" y2="238.5"/><polyline class="cls-1" points="204.6 241.1 209.6 232.5 210 231.7"/><path class="cls-1" d="M209.5,232.5l1.8.3a1.1632,1.1632,0,0,0,1.1-1l-.7-23.4"/><polyline class="cls-1" points="212.6 232.2 286.4 102.7 286.1 95.1 285.3 94.4 282 91.9 282 89.6"/><path class="cls-1" d="M273.7,106.3c-.5.3-.6,2.2-.6,3.4,0,1.3.8.8.8.8s3.6-6,3.9-7.3.8-.3.8-.3v5.6c.7-.2.8-1.8.8-1.8l6.4-11.5"/><path class="cls-1" d="M198.4,232.2l.3,12.1,4-6.9a6.9993,6.9993,0,0,0,.2-1.3c0-.5-.3-10.6-.3-10.6s0-.8-.5.1C201.5,226.4,198.4,232.2,198.4,232.2Z"/><path class="cls-1" d="M191.5,243.7l-6.9,12.2s-.6,1.1-.5,4.5.1,8.1.1,8.1,0,1.6.8.8,6.8-11.9,6.8-11.9a15.61,15.61,0,0,0,.8-3.3c0-1-.2-9.7-.2-9.7S192.4,242.5,191.5,243.7Z"/><ellipse class="cls-1" cx="195.0045" cy="239.7043" rx="2.8" ry="0.9" transform="translate(-65.0655 406.583) rotate(-83.5579)"/><ellipse class="cls-1" cx="195.2935" cy="248.9094" rx="2.8" ry="0.9" transform="translate(-73.9558 415.0426) rotate(-83.5579)"/><polygon class="cls-1" points="156.1 219.4 155.9 212.5 180.4 216.3 180.5 223.1 156.1 219.4"/><line class="cls-1" x1="168.4" y1="221" x2="168.2" y2="214.3"/><path class="cls-1" d="M210.3,230.7l-.5-20.2a2.4929,2.4929,0,0,0-2.3-2.1c-2-.1-53.5-7.9-53.5-7.9s0-1.1-1.5-1.1l-1.1-.2-1.3.9-.8-.5-68.5-9.9"/><path class="cls-1" d="M33.7,193.7a10.1131,10.1131,0,0,1,.3,6.7"/><line class="cls-1" x1="9.7" y1="233.5" x2="9.8" y2="238.8"/><line class="cls-1" x1="6.2" y1="246.8" x2="6.3" y2="254.3"/><ellipse class="cls-1" cx="84" cy="183.9" rx="3.9" ry="2"/><path class="cls-1" d="M211.8,208.3l4.8-8,1,3.1s1.2-.1,1-3.2.4-6.4,1-6.9c.7-.5.7-3.2.7-3.2l2.7-4.6.3,3.5,21.9-38.4-.1-5,9.5-16.8.5,6.6c1.1.5,1.1,1.1,1.1,1.1s-28.9,52.4-30.5,54.1c-2,2.1-2.6,7.7-2.5,7.6,0,0-1.4,16-3.7,19.1"/><line class="cls-1" x1="212.4" y1="229.6" x2="219.6" y2="217.5"/><line class="cls-1" x1="163.7" y1="192.8" x2="76.2" y2="180"/><line class="cls-1" x1="210.7" y1="203.6" x2="162.7" y2="196.3"/><polyline class="cls-1" points="154.5 200.1 154.8 199.1 209.7 207.2"/><path class="cls-1" d="M164,192.7l-2.4,4.5s-.4,1.4-2.5,1.1l-4.2-.6-.8,1.1-4.6-.7-.4.2-114-16.5v.8"/><polyline class="cls-1" points="127.5 187.4 133.4 177.4 157.8 180.9 158.3 181.3 158.2 181.7 152.8 190.9"/><polyline class="cls-1" points="91.7 182 97.4 172.1 121.6 175.6 116 185.9"/><polyline class="cls-1" points="60.1 181.1 63.1 175.8 77.4 177.9 74.1 183.4 37.2 177.9 35.1 181.9"/><polygon class="cls-1" points="73.8 171.2 75.4 171.4 77.2 168.1 51.2 164.1 49.3 167.5 51 167.8 51.3 167.3 74 170.7 73.8 171.2"/><polyline class="cls-1" points="76.4 177.6 78.2 174.4 78 168.9 77.7 168.6 77.7 166.5 63.2 164.3 63.5 163.9 59.9 163.4 59.5 163.8 51.8 162.7 51.7 163.9"/><line class="cls-1" x1="59.5" y1="163.8" x2="59.6" y2="165.2"/><line class="cls-1" x1="63.2" y1="166" x2="63.2" y2="164.3"/><polyline class="cls-1" points="51.8 162.7 64 141.6 71.4 142.8"/><line class="cls-1" x1="78.4" y1="169.3" x2="82.6" y2="162.1"/><polyline class="cls-1" points="82.7 167.2 82.7 169.6 97.1 171.7"/><polyline class="cls-1" points="116.6 174.7 116.7 165.6 127.7 146.8"/><path class="cls-1" d="M82.6,167.3l-.1-6.8,8.3-14.7,6.8,1.2.2.1,2.3-4,27.6,3.8c0,2.2.2,9.2.2,9.2l-10.6,18.6"/><polyline class="cls-1" points="217.2 197.1 168.6 190.1 164.7 196.6"/><line class="cls-1" x1="189.6" y1="200.4" x2="193.6" y2="193.7"/><polyline class="cls-1" points="190.9 200.6 192.7 197.6 193.4 197.7 211.2 200.4 209.4 203.4"/><line class="cls-1" x1="193.2" y1="194.2" x2="193.4" y2="197.7"/><line class="cls-1" x1="193.5" y1="196" x2="217.1" y2="199.5"/><line class="cls-1" x1="46.2" y1="176" x2="49.5" y2="170"/><polyline class="cls-1" points="49.3 167.5 49.5 175 51.3 175.4 51.8 174.8 62.5 176.5"/><line class="cls-1" x1="51" y1="167.6" x2="51.3" y2="175.3"/><line class="cls-1" x1="73.8" y1="170.8" x2="74" y2="177.1"/><line class="cls-1" x1="75.6" y1="171.2" x2="75.8" y2="177.6"/><path class="cls-1" d="M32.1,184.1v-2.4l3.1-5.2s.2-.4,1.4-.1c1.1.3.6,1.6.6,1.6l-2,3.2a1.8708,1.8708,0,0,1-1.7.8c-.6-.1-.3,1.1-.3,1.1"/><path class="cls-1" d="M36.2,176.1l2.7-4.9,1.1.1.7,4s1.1,1.5,1-2.7a24.957,24.957,0,0,1,1.2-7.9l.6-2.9s.2-1.2.7-1.5a6.9744,6.9744,0,0,0,1.3-2.3s.8-1.4,1.1,1.4c.2,2.8-.6,16.9-.6,16.9"/><path class="cls-1" d="M121.6,175.6a1.4128,1.4128,0,0,1,.6.5l.4,4.5s-1,1.5,0,1.8c0,0,1-.5,1.1.6l-2,3.5"/><ellipse class="cls-2" cx="152.9" cy="194.1" rx="4.2" ry="1.8"/><path class="cls-1" d="M226.9,159.2l-.2-7.5s.1-1.8.4-1.8"/><path class="cls-1" d="M237.4,153.1l-10.8-1.4-10.2-1.9v.9a5.6819,5.6819,0,0,0-4.6,3.6l14,2.5a1.0672,1.0672,0,0,1,.8,1"/><polyline class="cls-1" points="218.7 148.4 226.7 149.9 237.6 151.4"/><path class="cls-1" d="M218.1,150.3s-.1-1.1,1.3-3.2c1.4-2.2,28.4-50.9,28.4-50.9l15.7,2.5,1.1-1.8.8.2-1.2,1.7,3.1.5-9,15.7-3-.4-7.4,12.9,2.7.4-12.5,22.9a4.5632,4.5632,0,0,0-.6,2.8c0,2.1.3,9.1.3,9.1"/><polyline class="cls-1" points="238.5 161.8 238.3 152.6 241.4 147 241.8 156.2"/><line class="cls-1" x1="263.1" y1="124.9" x2="273.2" y2="107.1"/><polygon class="cls-1" points="262 123.5 277.8 95.6 278.5 95.2 285.1 83.3 284.8 76.5 279.3 86.6 278.9 86.3 262.2 115.6 262 123.5"/><polyline class="cls-1" points="243.9 152.5 243.5 143.9 242.3 143.6"/><polyline class="cls-1" points="248.9 127.8 255.4 116.5 255.3 115.1"/><polyline class="cls-1" points="250.6 128.1 256.4 117.7 255 117.5"/><line class="cls-1" x1="256.6" y1="120" x2="256.4" y2="117.7"/><polyline class="cls-1" points="255.8 116.5 257.5 117.1 257.5 118.8"/><line class="cls-1" x1="257.3" y1="118.9" x2="251.5" y2="129"/><path class="cls-1" d="M253.6,128.7l4.8-8.7s.7-1.3.8,1.1a17.2755,17.2755,0,0,1,0,2.9l.4.8-4.6,7.8"/><path class="cls-1" d="M255.3,134l4.8-8.4s1-2.2-.7-2.2"/><path class="cls-1" d="M215.3,148.2l20.6-35.5a2.03,2.03,0,0,0,1.7-1.9l1.8-2.6a11.4616,11.4616,0,0,1,1.2-4.1"/><path class="cls-1" d="M241.5,107.6s-2.5-6.3,3.2-9.1"/><polyline class="cls-1" points="246.7 95.9 250.8 88.2 263.1 90.1 264.3 90.6 266.7 90.8 267.5 91.3 268.4 90 251 87.4 252.5 85.1 264.1 86.6 273.7 88.4 272.3 90.8 268.6 90"/><line class="cls-1" x1="258.6" y1="97.8" x2="263.2" y2="89.7"/><line class="cls-1" x1="264.3" y1="90.9" x2="260" y2="98"/><line class="cls-1" x1="262.2" y1="98.6" x2="266.7" y2="90.8"/><path class="cls-1" d="M273.1,88.1l.4-.8-23.9-3.6-.9,1.6s-.9,1.7,2.7,1.9"/><path class="cls-1" d="M267.9,86.1s-6.5-9.1-21.7-10.4c-19-1.7-18.4,11.2-18.4,11.2s.6,1.4,3.5,1.5a2.9768,2.9768,0,0,0,3.1-2s.5-4.7,10-4.1c0,0,4.5.2,7,1.6"/><ellipse class="cls-2" cx="196.1" cy="107.5" rx="3.8" ry="1.9"/><polygon class="cls-1" points="130.6 60.9 126.7 68.4 125.6 68.3 122.7 73.5 112.4 72 115.3 66.7 114.4 66.4 118.4 59 119.7 58.8 129.7 60.1 130.6 60.9"/><polygon class="cls-1" points="130.6 60.9 131.8 60.4 142.4 61.9 143 62.4 138.5 70.1 137.6 70 134.7 75 124.5 73.6 127.4 68.4 126.7 68.4 130.6 60.9"/><polyline class="cls-1" points="143 62.4 144.3 62.4 154.3 63.8 155 64.4 150.6 72 149.8 71.7 146.8 76.8 136.8 75.3 139.7 70.3 138.9 69.9"/><polygon class="cls-1" points="157.4 63.1 149.1 77.4 158.1 78.8 166.5 64.4 157.4 63.1"/><polyline class="cls-1" points="181.7 68 170.6 66.3 169.7 66.6 165.6 74 166.4 74.3 163.4 79.3 173.8 81 176.5 75.7 177.2 76"/><polyline class="cls-1" points="186.4 79.2 193.4 67.2 183.2 65.8 175.2 79.9 183.1 81.1"/><polyline class="cls-1" points="193.5 80.1 194.4 78.5 193.5 78.3 197.5 70.7 198.4 70.2 209.3 71.9 209.8 72.5 205.4 80 204.4 79.8 203.2 81.8"/><polyline class="cls-1" points="210.5 72.1 221.2 73.6 221.8 74.2 217.7 81.9 216.7 81.6 213.7 86.7 213.8 87.7"/><polyline class="cls-1" points="177.3 91.2 175.3 90.9 175.2 79.9"/><path class="cls-1" d="M163.4,79.3a16.4406,16.4406,0,0,0-.4,4.2c.1,2.2.3,5.7.3,5.7l9.9,1.1,2-3.1"/><path class="cls-1" d="M112.4,72a12.1245,12.1245,0,0,0-.4,3.2c-.1,2.3,0,6.2,0,6.2l10.3,1.4,1.9-2.7"/><path class="cls-1" d="M124.5,73.6a12.5763,12.5763,0,0,0-.4,3.1c0,1.7.1,6.6.1,6.6l2.8.3"/><path class="cls-1" d="M134.7,75s0,3.2-.1,4.3"/><polyline class="cls-1" points="136.8 75.3 136.2 77.5 136.4 79.7"/><polyline class="cls-1" points="147.1 76.4 146.5 78.7 146.5 81.2"/><polyline class="cls-1" points="122.7 73.5 122.3 75 122.5 82.4"/><line class="cls-1" x1="149.1" y1="77.4" x2="149.3" y2="81.5"/><polyline class="cls-1" points="173.8 81 173.3 82.7 173.6 90"/><polyline class="cls-1" points="166.8 64.7 166.4 68.2 166.3 71.8"/><line class="cls-1" x1="193.4" y1="67.2" x2="193.5" y2="78.3"/><polyline class="cls-1" points="221.8 74.2 222.9 74 233.5 75.5 234.2 76 234 77.1"/><polyline class="cls-1" points="217.7 81.9 218.6 81.9 215.7 86.9 226.3 88.5"/><path class="cls-1" d="M127.9,96.7l-.9,1.5V103s.2.9-.9.7c-1.2-.2-6.9-1-6.9-1l.1,2.4,7.4,1"/><line class="cls-1" x1="154.7" y1="98.7" x2="160.7" y2="88.6"/><line class="cls-1" x1="126" y1="90.5" x2="119.2" y2="102.4"/><ellipse class="cls-2" cx="139.6" cy="99.9" rx="4.2" ry="2.1"/><ellipse class="cls-1" cx="139.6" cy="99.4" rx="3.7" ry="1.9"/><line class="cls-1" x1="131.5" y1="102.8" x2="131.8" y2="102.1"/><path class="cls-2" d="M201.5,112.4s-12.4,22.4-12.9,23.7a1.7818,1.7818,0,0,1-2,1L175,135.2a57.2574,57.2574,0,0,1-3,5.5,2.01,2.01,0,0,1-2,.7l-40.1-5.7-5.3-.8,3.5-6.4-12.9-1.9,14.1-25.1,12.7,1.9,3.7-6,46.7,7.4-3.2,5.6Z"/><path class="cls-1" d="M217.8,104.4v-5a.6925.6925,0,0,0-.8-.6l-.9,1.5v.8"/><path class="cls-1" d="M221.1,104.9v-5a.6925.6925,0,0,0-.8-.6l-.9,1.5v.8"/><path class="cls-1" d="M224.4,105.4v-5a.6925.6925,0,0,0-.8-.6l-.9,1.5v.8"/><path class="cls-1" d="M227.7,105.9v-5a.6925.6925,0,0,0-.8-.6l-.9,1.5v.8"/><path class="cls-1" d="M231,106.4v-5a.6925.6925,0,0,0-.8-.6l-.9,1.5v.8"/><path class="cls-1" d="M229.5,109v-5a.6925.6925,0,0,0-.8-.6l-.9,1.5v.8"/><path class="cls-1" d="M228.1,111.6v-5a.6925.6925,0,0,0-.8-.6l-.9,1.5v.8"/><path class="cls-1" d="M226.6,114.3v-5a.6925.6925,0,0,0-.8-.6l-.9,1.5v.8"/><path class="cls-1" d="M225.1,116.9v-5a.6925.6925,0,0,0-.8-.6l-.9,1.5v.8"/><path class="cls-1" d="M223.6,119.5v-5a.6925.6925,0,0,0-.8-.6l-.9,1.5v.8"/><path class="cls-1" d="M222.1,122.2v-5a.6925.6925,0,0,0-.8-.6l-.9,1.5v9.1"/><path class="cls-1" d="M218.8,121.7v-5a.6925.6925,0,0,0-.8-.6l-.9,1.5v6.9"/><path class="cls-1" d="M215.5,121.2v-5a.6925.6925,0,0,0-.8-.6l-.9,1.5V124"/><path class="cls-1" d="M212.2,120.7v-5a.6925.6925,0,0,0-.8-.6l-.9,1.5v6.7"/><path class="cls-1" d="M208.9,120.2v-5a.6925.6925,0,0,0-.8-.6l-.9,1.5V123"/><path class="cls-1" d="M226.2,108.5v-5a.6925.6925,0,0,0-.8-.6l-.9,1.5v.8"/><path class="cls-1" d="M224.8,111.1v-5a.6925.6925,0,0,0-.8-.6l-.9,1.5v.8"/><path class="cls-1" d="M223.3,113.8v-5a.6925.6925,0,0,0-.8-.6l-.9,1.5v.8"/><path class="cls-1" d="M221.8,116.4v-5a.6925.6925,0,0,0-.8-.6l-.9,1.5v.8"/><path class="cls-1" d="M220.3,119v-5a.6925.6925,0,0,0-.8-.6l-.9,1.5v.8"/><path class="cls-1" d="M223,108.1v-5a.6925.6925,0,0,0-.8-.6l-.9,1.5v.8"/><path class="cls-1" d="M221.5,110.6v-5a.6925.6925,0,0,0-.8-.6l-.9,1.5v.8"/><path class="cls-1" d="M220,113.3v-5a.6925.6925,0,0,0-.8-.6l-.9,1.5v.8"/><path class="cls-1" d="M218.6,115.9v-5a.6925.6925,0,0,0-.8-.6l-.9,1.5v.8"/><path class="cls-1" d="M217.1,118.6v-5a.6925.6925,0,0,0-.8-.6l-.9,1.5v.8"/><path class="cls-1" d="M219.7,107.6v-5a.6925.6925,0,0,0-.8-.6l-.9,1.5v.8"/><path class="cls-1" d="M218.2,110.2v-5a.6925.6925,0,0,0-.8-.6l-.9,1.5v.8"/><path class="cls-1" d="M216.7,112.9v-5a.6925.6925,0,0,0-.8-.6l-.9,1.5v.8"/><path class="cls-1" d="M215.2,115.5v-5a.6925.6925,0,0,0-.8-.6l-.9,1.5v.8"/><path class="cls-1" d="M213.8,118.1v-5a.6925.6925,0,0,0-.8-.6l-.9,1.5v.8"/><path class="cls-1" d="M216.3,107.1v-5a.6925.6925,0,0,0-.8-.6l-.9,1.5v.8"/><path class="cls-1" d="M214.9,109.7v-5a.6925.6925,0,0,0-.8-.6l-.9,1.5v.8"/><path class="cls-1" d="M213.4,112.4v-5a.6925.6925,0,0,0-.8-.6l-.9,1.5v.8"/><path class="cls-1" d="M211.9,115v-5a.6925.6925,0,0,0-.8-.6l-.9,1.5v.8"/><path class="cls-1" d="M210.4,117.6v-5a.6925.6925,0,0,0-.8-.6l-.9,1.5v.8"/><path class="cls-1" d="M234.5,110.2l-.1-8.4a.6925.6925,0,0,0-.8-.6l-.9,1.5v.8"/><path class="cls-1" d="M231.1,106.2v-.8l.9-1.5a.6925.6925,0,0,1,.8.6l.1,8.4.3.5,1.2-3.2"/><path class="cls-1" d="M231.4,115.6l-.1-8.4a.6925.6925,0,0,0-.8-.6l-.9,1.5v.8"/><path class="cls-1" d="M228.2,111.5v-.8l.9-1.5a.6925.6925,0,0,1,.8.6l.1,8.4.4.5,1.2-2.6-.1-.5"/><path class="cls-1" d="M228.5,120.9l-.1-8.4a.6925.6925,0,0,0-.8-.6l-.9,1.5v.8"/><path class="cls-1" d="M225.2,116.8V116l.9-1.5a.6925.6925,0,0,1,.8.6l.1,8.4s.3.5.5.5l1.2-2.7-.3-.4"/><path class="cls-1" d="M223.8,126.7l-.1-8.1.9-1.5a.6925.6925,0,0,1,.8.6l.1,8.4-.4.6"/><path class="cls-1" d="M222.5,131.4l-.1-8.4a.6925.6925,0,0,0-.8-.6l-.9,1.5.2,9.2,1.2.2.9-1.4C222.9,131.9,222.5,131.6,222.5,131.4Z"/><path class="cls-1" d="M217.4,124.6v-1.2l.9-1.5a.6925.6925,0,0,1,.8.6l.1,8.1a.7248.7248,0,0,0,.5.8l-.8,1.4-1.1-.2"/><path class="cls-1" d="M215.8,127.2V126l.9-1.5a.6925.6925,0,0,1,.8.6l.1,8.1a.7248.7248,0,0,0,.5.8l-.8,1.4-1.1-.2"/><path class="cls-1" d="M214.4,129.8v-1.2l.9-1.5a.6925.6925,0,0,1,.8.6l.1,8.1a.7248.7248,0,0,0,.5.8l-.8,1.4-1.1-.2"/><path class="cls-1" d="M215.8,126.1V122a.6925.6925,0,0,0-.8-.6l-.9,1.5V124"/><path class="cls-1" d="M214.3,128.8v-4.1a.6925.6925,0,0,0-.8-.6l-.9,1.5v1.1"/><path class="cls-1" d="M211,128.2v-4.1a.6925.6925,0,0,0-.8-.6l-.9,1.5v1.1"/><path class="cls-1" d="M207.7,127.8v-4.1a.6925.6925,0,0,0-.8-.6l-.9,1.5v1.1"/><path class="cls-1" d="M212.8,131.3v-4.1a.6925.6925,0,0,0-.8-.6l-.9,1.5v1.1"/><path class="cls-1" d="M209.5,130.9v-4.1a.6925.6925,0,0,0-.8-.6l-.9,1.5v1.1"/><path class="cls-1" d="M206.2,130.4v-4.1a.6925.6925,0,0,0-.8-.6l-.9,1.5v1.1"/><path class="cls-1" d="M211.3,134v-4.1a.6925.6925,0,0,0-.8-.6l-.9,1.5v1.1"/><path class="cls-1" d="M207.9,133.5v-4.1a.6925.6925,0,0,0-.8-.6l-.9,1.5v1.1"/><path class="cls-1" d="M204.7,133v-4.1a.6925.6925,0,0,0-.8-.6l-.9,1.5v1.1"/><path class="cls-1" d="M214.6,135.5v-5.2a.6925.6925,0,0,0-.8-.6l-.9,1.5v1.1"/><path class="cls-1" d="M213.2,138.2V133a.6925.6925,0,0,0-.8-.6l-.9,1.5V135"/><path class="cls-1" d="M209.9,137.7v-5.2a.6925.6925,0,0,0-.8-.6l-.9,1.5v1.1"/><path class="cls-1" d="M206.6,137.2V132a.6925.6925,0,0,0-.8-.6l-.9,1.5V134"/><path class="cls-1" d="M205,139.8v-5.2a.6925.6925,0,0,0-.8-.6l-.9,1.5.1,9"/><path class="cls-1" d="M208.3,140.4v-5.2a.6925.6925,0,0,0-.8-.6l-.9,1.5.2,8.9"/><path class="cls-1" d="M211.6,140.9v-5.2a.6925.6925,0,0,0-.8-.6l-.9,1.5v9"/><path class="cls-1" d="M213.4,145.4l-.2-8.3.9-1.5a.6925.6925,0,0,1,.8.6l.1,8.4-.3.7"/><path class="cls-1" d="M203.2,136.7v-5.2a.6925.6925,0,0,0-.8-.6l-.9,1.5v1.1"/><path class="cls-1" d="M201.7,139.4v-5.2a.6925.6925,0,0,0-.8-.6l-.9,1.5.2,8.8"/><path class="cls-1" d="M198.7,139.5a.6925.6925,0,0,0-.8-.6l-.9,1.5.2,8.8,1.5.2.7-1.1s-.6,0-.5-.9Z"/><path class="cls-1" d="M202,139.9a.6925.6925,0,0,0-.8-.6l-.9,1.5.2,8.8,1.5.2.7-1.1s-.6,0-.5-.9Z"/><path class="cls-1" d="M205.4,140.3a.6925.6925,0,0,0-.8-.6l-.9,1.5.2,8.8,1.5.2.7-1.1s-.6,0-.5-.9Z"/><path class="cls-1" d="M208.6,140.9a.6925.6925,0,0,0-.8-.6l-.9,1.5.2,8.8,1.5.2.7-1.1s-.6,0-.5-.9Z"/><path class="cls-1" d="M212,141.5a.6925.6925,0,0,0-.8-.6l-.9,1.5.2,8.8,1.5.2.7-1.1s-.6,0-.5-.9Z"/><path class="cls-1" d="M198.4,138.9v-5.2a.6925.6925,0,0,0-.8-.6l-.9,1.5.2,8.8"/><path class="cls-1" d="M212.5,125.6v-4.1a.6925.6925,0,0,0-.8-.6l-.9,1.5v1.1"/><path class="cls-1" d="M209.2,125.2v-4.1a.6925.6925,0,0,0-.8-.6l-.9,1.5v1.1"/><path class="cls-1" d="M205.9,124.6v-4.1a.6925.6925,0,0,0-.8-.6l-.9,1.5.1,6.7"/><path class="cls-1" d="M220.8,99.1v-5a.6925.6925,0,0,0-.8-.6l-.9,1.5.2,6.8"/><path class="cls-1" d="M224.1,99.7v-5a.6925.6925,0,0,0-.8-.6l-.9,1.5.2,6.8"/><path class="cls-1" d="M227.4,100.2v-5a.6925.6925,0,0,0-.8-.6l-.9,1.5.2,6.8"/><path class="cls-1" d="M230.7,100.6v-5a.6925.6925,0,0,0-.8-.6l-.9,1.5.2,6.8"/><path class="cls-1" d="M234,101.1v-5a.6925.6925,0,0,0-.8-.6l-.9,1.5.2,6.8"/><path class="cls-1" d="M203.5,151.6c3.4.5,6.4.9,6.4.9a1.4667,1.4667,0,0,0,1.9-1"/><path class="cls-1" d="M195.7,145l-2.3,4.1s-.9,1,.3,1.1c.5.1,3.5.5,6.7.9"/><path class="cls-1" d="M198.5,134.3l1.4-2.3.9.1s.4.4.2,1.5"/><line class="cls-1" x1="187.7" y1="151.9" x2="181.2" y2="150.9"/><polyline class="cls-1" points="201.7 112.6 201.8 124.9 204.1 125.2"/><path class="cls-1" d="M186.3,151.6l-.2-11.8s.1-2.4.7-2.7"/><path class="cls-1" d="M169,141.2a3.9863,3.9863,0,0,0-.7,2.5l.1,5.8"/><path class="cls-1" d="M126.9,135.5a3.9863,3.9863,0,0,0-.7,2.5l.1,8.6"/><polyline class="cls-1" points="227.7 86.8 225.8 86.5 224.8 88.3 224.8 89 225.6 89.7"/><polyline class="cls-1" points="227.8 87.2 227.4 88 226.8 87.8 225 90.9 232.3 92.1 237.3 83.3"/><line class="cls-1" x1="216.9" y1="96.7" x2="219" y2="97"/><line class="cls-1" x1="220.9" y1="97.2" x2="222.4" y2="97.5"/><line class="cls-1" x1="224.2" y1="97.7" x2="225.7" y2="98"/><path class="cls-1" d="M224.9,91.1s-.1.6.7.7l.1,4.3"/><path class="cls-1" d="M232.3,92.1a.5561.5561,0,0,1-.7.4l.2,5.2-.9-.1"/><path class="cls-1" d="M234.4,88.4l.2,4.6a1.2179,1.2179,0,0,1-1,1.5l-.8,1.4"/><line class="cls-1" x1="229" y1="97.3" x2="227.5" y2="97.1"/><line class="cls-1" x1="219.3" y1="128.1" x2="220.7" y2="127.7"/><path class="cls-1" d="M222.5,127.3l2.2-.6s.7-.1.7.5.2,3.1.2,3.1"/><line class="cls-1" x1="219.3" y1="129.8" x2="220.7" y2="129.5"/><path class="cls-1" d="M222.5,129l1.2-.3s.5-.2.5.6v3.3"/><line class="cls-1" x1="222.9" y1="131.8" x2="224.1" y2="129.7"/><line class="cls-1" x1="224.2" y1="129" x2="225.4" y2="127.2"/><polyline class="cls-1" points="202.2 141.8 203 141.9 203.2 141.3"/><polyline class="cls-1" points="205.6 142.3 206.2 142.4 206.5 141.7"/><polyline class="cls-1" points="208.8 142.8 209.5 142.8 209.8 142.3"/><polyline class="cls-1" points="212.1 143.2 212.9 143.4 213.3 142.6"/><line class="cls-1" x1="197.1" y1="145.7" x2="194.4" y2="144.1"/><line class="cls-1" x1="200.3" y1="147.6" x2="198.8" y2="146.7"/><path class="cls-1" d="M197,143.2l-1.2-.7a.6638.6638,0,0,0-1.1.2,12.3382,12.3382,0,0,0-.8,1.5l.1,3.5"/><line class="cls-1" x1="200.5" y1="145.1" x2="198.8" y2="144.2"/><path class="cls-1" d="M210.4,147.8c-.9.3-1.7.5-1.7.5"/><path class="cls-1" d="M212.1,145.8l2-.6a.65.65,0,0,1,.9.7c0,1,.1,2.5.1,2.5l-1,1.6-.2-2.4s0-.9-.7-.7c-.2,0-.6.2-1.1.3"/><line class="cls-1" x1="208.8" y1="146.7" x2="210.4" y2="146.3"/><polyline class="cls-1" points="67.9 140.3 101.3 81.6 101.8 82.1 102.6 84.8"/><polyline class="cls-1" points="82.4 136.2 98.7 107.4 105.7 108.4 105.8 109 120 111.1 103.3 140.6 88.6 138.4 88.2 138.8 82.5 137.9"/><polyline class="cls-1" points="96.3 110.5 88.2 109.2 71.2 139.2 72.7 139.3"/><path class="cls-1" d="M80.7,143.3l1.7.2a5.373,5.373,0,0,0,0,2"/><path class="cls-1" d="M71.8,144.1a6.5559,6.5559,0,0,1,0-2l1.7.2"/><polyline class="cls-1" points="73.7 144.3 73.7 142 80.7 143 80.7 145.6"/><line class="cls-1" x1="82.5" y1="144.3" x2="90.2" y2="145.5"/><path class="cls-1" d="M75.5,135.7a3.8769,3.8769,0,0,1,4.3-2,2.8927,2.8927,0,0,1,2.5,3.5l-1,2.4s-.8,2.3-4.3,2c0,0-2.8-.3-2.5-3Z"/><path class="cls-1" d="M76.3,135.8a3.014,3.014,0,0,1,3.2-1.4c2.1.5,1.9,2.1,1.9,2.1l-.9,2.8a3.6351,3.6351,0,0,1-3.2,1.5,1.9784,1.9784,0,0,1-2-2.2Z"/><g id="LINE"><polygon class="cls-3" points="79.5 139.4 76.4 138.9 76.5 138.5 79.6 139 79.5 139.4"/></g><g id="LINE-2" data-name="LINE"><polygon class="cls-3" points="79.9 138.1 76.8 137.5 76.9 137.2 80 137.7 79.9 138.1"/></g><g id="LINE-3" data-name="LINE"><polygon class="cls-3" points="80.3 136.7 77.2 136.1 77.3 135.8 80.4 136.3 80.3 136.7"/></g><path class="cls-1" d="M115.1,126.6a7.73,7.73,0,0,0-.7,3.4c0,2.1.4,11.3.4,11.3l3.5.5"/><line class="cls-1" x1="127.9" y1="150.1" x2="139.3" y2="151.8"/><path class="cls-2" d="M173.5,140.4l.1,2.8s.7,1.9,4.3,1.9c0,0,2.8,0,3.7-2v-3.3"/><ellipse class="cls-2" cx="177.5" cy="140.1" rx="3.9" ry="2.1"/><path class="cls-2" d="M117.1,132.2l.1,2.8s.7,1.9,4.3,1.9c0,0,2.8,0,3.7-2v-3.3"/><ellipse class="cls-2" cx="121.1" cy="131.9" rx="3.9" ry="2.1"/><path class="cls-1" d="M118.1,136.1s-2,1.9,2.5,2.3a5.14,5.14,0,0,0,3.5-1"/><path class="cls-1" d="M118.1,138s-2,1.9,2.5,2.3a5.14,5.14,0,0,0,3.5-1"/><path class="cls-1" d="M118.1,139.8s-2,1.9,2.5,2.3a5.14,5.14,0,0,0,3.5-1"/><path class="cls-1" d="M118.1,141.7s-2,1.9,2.5,2.3a5.14,5.14,0,0,0,3.5-1"/><path class="cls-1" d="M118.1,143.6s-2,1.9,2.5,2.3a5.14,5.14,0,0,0,3.5-1"/><line class="cls-1" x1="118.7" y1="136.4" x2="119" y2="145.7"/><path class="cls-1" d="M174.7,144.4s-2,1.8,2.4,2.2a5.14,5.14,0,0,0,3.5-1"/><path class="cls-1" d="M174.6,146.2s-2,1.9,2.5,2.3a5.14,5.14,0,0,0,3.5-1"/><path class="cls-1" d="M174.6,148s-2,1.9,2.5,2.3a5.14,5.14,0,0,0,3.5-1"/><path class="cls-1" d="M178,152.2a5.0009,5.0009,0,0,0,2.6-1"/><path class="cls-1" d="M178,154a4.4266,4.4266,0,0,0,2.5-1s1.2-.9.4-1.9"/><line class="cls-1" x1="175.2" y1="144.7" x2="175.4" y2="150.2"/><line class="cls-1" x1="180.3" y1="144.5" x2="180.5" y2="154.3"/><line class="cls-1" x1="123.6" y1="136.2" x2="123.8" y2="145.9"/><path class="cls-1" d="M181.4,152s1.5,2.4-.9,3.4c-1.9.8-2.4.4-2.4.4"/><polygon class="cls-1" points="100.3 85.4 100.6 84.9 103.9 85.3 104.4 86.1 104.4 94.6 105.4 95.8 105.6 104.1 100.6 103.3 100.3 85.4"/><path class="cls-1" d="M105.6,78.1s-.2-3.2.9-3.5l4.7.8a8.2463,8.2463,0,0,0-.6,3.9l-1.3-.3"/><path class="cls-1" d="M110.8,79.7a24.6,24.6,0,0,1-.4,8.8l-1-.1"/><polyline class="cls-1" points="110.5 88.7 110.5 91.5 109.2 91.1 109.1 89.3"/><polyline class="cls-1" points="105.5 95.5 106.2 94.7 106.5 95.5 106.6 98.1 110.4 91.8"/><polyline class="cls-1" points="104.6 94.5 105 93.4 106.2 94.7"/><path class="cls-1" d="M102.9,84.7s.9-7.1,3.9-7.2l1.5.3s-2.2-.3-3.8,10"/><path class="cls-1" d="M108.5,91.2s2.9-11.1,0-13.3"/><path class="cls-1" d="M178.3,157.6l4.6.7a5.0647,5.0647,0,0,1,1.9.8c.5.5,3.3,3.1,3.3,3.1"/><line class="cls-1" x1="196.7" y1="136.8" x2="184.2" y2="158.7"/><path class="cls-1" d="M244.6,139.2s1.6-.4,1.5.9l.1,1.9"/><line class="cls-1" x1="243.5" y1="143.9" x2="246" y2="139.8"/><path class="cls-1" d="M244.3,145.5l9.1-16.2a.91.91,0,0,1,1.3-.5"/><path class="cls-1" d="M246.4,140.6a7.4616,7.4616,0,0,1,.6-2.4c.4-.6,4.8-8.5,4.8-8.5s.6-1,.6.3.1,1.1.1,1.1"/><path class="cls-1" d="M245.5,139.2l.2-.7,5.2-9s.9-.6,1.2-.1"/><path class="cls-1" d="M262,123.5s1.9.3.7,2.6-6.1,10.8-6.1,10.8"/><path class="cls-1" d="M259.4,120.1l.1-2.7a7.3823,7.3823,0,0,1,.9-3c.8-1.3,5.3-8.9,5.3-8.9"/><path class="cls-1" d="M264.2,104.7a2.0041,2.0041,0,0,1,1.5.3l2.4-4.2a1.126,1.126,0,0,0-1.5-.4"/><line class="cls-1" x1="265.8" y1="109.1" x2="265.8" y2="105"/><line class="cls-1" x1="268.2" y1="104.6" x2="268.2" y2="100.8"/><path class="cls-1" d="M284.8,76.5s.3-1.3-1.4-1l-5.8,10s1.1-1.2,1.8.2"/><polygon class="cls-1" points="252.8 91.1 255.8 91.6 254.4 94.1 251.3 93.7 252.8 91.1"/><path class="cls-1" d="M249.7,90.4s-1.3.2-3.2,2.4-4.9,8.6-4.9,8.6"/><line class="cls-1" x1="236.9" y1="89.2" x2="247.8" y2="90.9"/><polyline class="cls-1" points="236.4 85 236.8 97 234.2 100.7"/><line class="cls-1" x1="216.6" y1="81.9" x2="216.7" y2="84.8"/><line class="cls-1" x1="215.7" y1="86.9" x2="215.7" y2="88.1"/><polyline class="cls-1" points="205.4 82.2 206.4 80.2 205.4 80"/><polyline class="cls-1" points="234.4 103.4 238.1 104 238.4 104.2 236.3 107.5 236 107.3 234.5 107.7"/><line class="cls-1" x1="231" y1="102.9" x2="232.6" y2="103.2"/><line class="cls-1" x1="227.8" y1="102.4" x2="229.2" y2="102.7"/><line class="cls-1" x1="224.4" y1="101.9" x2="225.9" y2="102.2"/><line class="cls-1" x1="222.6" y1="101.7" x2="221.5" y2="101.5"/><path class="cls-1" d="M234.5,106.2s1.1-.3,2-.6.9.4.9.4l.1,5"/><line class="cls-1" x1="236.2" y1="107.8" x2="236.2" y2="112.5"/><polyline class="cls-1" points="237.6 108.3 238.5 106.8 238.5 104.3"/><polyline class="cls-1" points="247.7 96.3 246.1 96.1 241.5 104.3 243.1 104.6"/><polyline class="cls-1" points="273.9 88.5 274.7 88.7 274.8 93.2"/><polyline class="cls-1" points="269.2 90.4 268.3 91.9 271.2 92.5 271.6 92.8 271.5 93.9 272.5 92.3 272.4 90.9"/><polyline class="cls-1" points="267.5 91.5 267.2 92.3 271.1 92.8 271.5 93.7"/><polyline class="cls-1" points="267.1 92.5 267.1 93.5 271.2 94 271.6 94.3 268 100.5"/><line class="cls-1" x1="264.8" y1="96.8" x2="267" y2="93"/><path class="cls-1" d="M265.2,97l3.1.6s.6.2.6,1.3"/><line class="cls-1" x1="270.9" y1="94.1" x2="268.8" y2="97.9"/><path class="cls-1" d="M214.7,203.4s-.1-1.5-2.6-1.2l-2.6,4.5a.9979.9979,0,0,0,1,.6,1.48,1.48,0,0,1,1.2.8"/><path class="cls-1" d="M211.4,200.4s.6-.1.3,2"/><path class="cls-1" d="M156.3,191.7s2-3.5,2.4-4.1l-.4-6.3"/><polyline class="cls-1" points="181.5 174.1 181.8 186.4 179 191.6"/><line class="cls-1" x1="77.6" y1="177.9" x2="77.6" y2="180.3"/><path class="cls-1" d="M62.3,144.2s-.9-1.2-.3-2a6.806,6.806,0,0,0,1-1.9s.3-.5,1.3-.4,9.4,1.4,9.4,1.4"/><line class="cls-1" x1="80.7" y1="142.8" x2="81.3" y2="141.5"/><path class="cls-1" d="M81.1,142.5l9.4,1.3s1.3.1,1.3,1.3"/><line class="cls-1" x1="84" y1="141.7" x2="99" y2="144"/><polyline class="cls-1" points="105.6 104.1 106.4 102.9 106.3 102 110.9 93.8 111 94.3 111.7 93.2 111.5 75.6"/><polygon class="cls-1" points="106.9 96.2 106.6 91.9 107.9 89.9 108.5 91.4 108.8 92.9 106.9 96.2"/><polyline class="cls-1" points="101.9 82.5 105.6 76.3 105.5 57.7"/><polyline class="cls-1" points="87.7 87.4 106.7 55.7 106.7 52"/><path class="cls-1" d="M102.9,58.9l4.9-8.6V47.5s-.5-1.3-2-.5l-4.9,9.2a1.1819,1.1819,0,0,1,1.7.7A3.4648,3.4648,0,0,1,102.9,58.9Z"/><path class="cls-1" d="M101.2,56.4l-.8-.1L89.9,74.9a12.5709,12.5709,0,0,0-1.2,3.3C88.3,80.1,86,98.4,86,98.4s-1.2,9.8-2.7,12-16.1,29.8-16.1,29.8"/><path class="cls-1" d="M105.4,63l.5-.2,7.6,1.1s1.4,0,1.1,1.7l-.2,2.7"/><path class="cls-1" d="M102.8,59.1c-1.4,0-1.2-.9-1.2-.9l-.2-1.3,1.4.2"/><line class="cls-1" x1="102.9" y1="58.5" x2="101.6" y2="58.2"/><line class="cls-1" x1="125.4" y1="69.1" x2="125.4" y2="71.2"/><line class="cls-1" x1="126.5" y1="68.6" x2="126.4" y2="69.9"/><line class="cls-1" x1="137.6" y1="70" x2="137.8" y2="73.5"/><line class="cls-1" x1="138.5" y1="70.1" x2="138.7" y2="71.7"/><line class="cls-1" x1="149.8" y1="72.1" x2="149.9" y2="76"/><line class="cls-1" x1="150.6" y1="72" x2="150.9" y2="74.3"/><line class="cls-1" x1="155" y1="64.4" x2="155.2" y2="67"/><polyline class="cls-1" points="259 130.6 258.8 129.5 255.5 135.4"/><path class="cls-1" d="M213.8,148.6l-2.3,4.2s-.2.8-1.5.6-16.3-2.4-16.3-2.4a.6883.6883,0,0,1-.7-.9"/><path class="cls-1" d="M206.8,156.8l.1-1.1.3-.9,4.6.7.8-.9.2,1.2s0,.8-1.5.6-4.1-.6-4.1-.6"/><line class="cls-1" x1="212.7" y1="157.6" x2="212.7" y2="156.4"/><path class="cls-1" d="M190.9,157.2l-.1-4.5.5-1,.8.2v.4s-.2.4.3.5,3.3.5,3.3.5l-.7.9-3.3-.5s-.8-.2-.8-.5"/><line class="cls-1" x1="196.4" y1="151.9" x2="194.9" y2="154.5"/><line class="cls-1" x1="193.8" y1="151" x2="193.9" y2="152.8"/><path class="cls-1" d="M196.5,152.8c.2-.4,1.6-.8,1.6-.8a13.9512,13.9512,0,0,1,4.4.2c1.4.2,1.9.6,2,.9a.1385.1385,0,0,1,0,.2.31.31,0,0,0-.2.1c-.2.1-.5.3-.7.4a13.3415,13.3415,0,0,1-4.7,0c-2.5-.3-2.5-1-2.4-1l-.2,1.5s.3.9,2.6,1.1,3.6.5,4.4,0l1.1-.9.1-.8"/><g id="LINE-4" data-name="LINE"><polygon class="cls-4" points="198.1 152.9 201.8 153.5 201.7 153.6 197.9 153.1 198.1 152.9"/></g><g id="LINE-5" data-name="LINE"><polygon class="cls-4" points="199 152.4 202.8 153 202.6 153.1 198.8 152.6 199 152.4"/></g><path class="cls-1" d="M203.5,152.4v-.6c0-.6-.4-.9-1.2-1.1a3.4052,3.4052,0,0,0-1.7.3l-.1.9"/><polyline class="cls-1" points="207 155.3 207 153.5 206.8 152.9"/><polyline class="cls-1" points="203.9 155.9 204.1 155.4 204.9 155.5 205.6 154.1 204.9 154 205.4 153.2 207 153.5 205.4 156.5"/><line class="cls-1" x1="195.7" y1="142.4" x2="196.7" y2="140.5"/><line class="cls-1" x1="198.8" y1="142.1" x2="200" y2="140"/><path class="cls-2" d="M208.5,223.2h-.8s-1,1.1-.6,3.6l.8.2"/><ellipse class="cls-2" cx="209.2021" cy="225.2004" rx="3.7" ry="1" transform="translate(-37.2008 408.9565) rotate(-83.8231)"/><ellipse class="cls-2" cx="210.1054" cy="225.394" rx="3.5" ry="0.9" transform="translate(-36.5873 410.0273) rotate(-83.8231)"/><polyline class="cls-1" points="74 140.9 74.3 140.4 73.8 141.3"/><path class="cls-1" d="M72.3,141l1-2a.8652.8652,0,0,1,1-.1"/><polyline class="cls-1" points="82.4 140.2 83.8 140.4 84 142.6"/><line class="cls-1" x1="82.5" y1="142.6" x2="83.8" y2="140.4"/><polyline class="cls-1" points="71.2 139.2 71.3 140.3 70.7 141"/><path class="cls-1" d="M81.6,141a5.4907,5.4907,0,0,0,.8-4.3"/><polyline class="cls-1" points="120.1 111.3 121.1 111.5 121.1 112 104.3 141.7 97.6 140.7 89.3 139.4 88.7 139.3 88.4 139.8 82.5 138.8"/><line class="cls-1" x1="135.5" y1="102.5" x2="135.5" y2="100.3"/><line class="cls-1" x1="213.9" y1="147.4" x2="214.8" y2="145.9"/><line class="cls-1" x1="192" y1="107.6" x2="192" y2="110.8"/><path class="cls-1" d="M198.8,111.9a2.0358,2.0358,0,0,0,1.4-1.3v-3"/><line class="cls-1" x1="104.6" y1="141.1" x2="103.4" y2="140.9"/><line class="cls-1" x1="82.6" y1="160.4" x2="116.6" y2="165.5"/><polyline class="cls-1" points="132.9 171 132.9 173.5 166.7 178.6 166.9 169.5 177.9 150.7"/><path class="cls-1" d="M132.8,171.2l-.1-6.8,8.3-14.7,6.8,1.2.2.1,2.3-4,27.6,3.8c0,2.2.2,9.2.2,9.2l-11,18.9"/><line class="cls-1" x1="132.7" y1="164.3" x2="166.8" y2="169.4"/><polyline class="cls-1" points="232.8 172.3 233 164.7 224.6 163.4 226.6 159.8 192.6 154.7 181.5 174.1 188.7 175.3 186.3 179.3 186.5 192.3"/><polyline class="cls-1" points="186.8 179.6 220.5 184.2 220.5 187.6"/><line class="cls-1" x1="233" y1="164.7" x2="220.5" y2="184.2"/><polyline class="cls-1" points="176 101.9 175.8 94.5 184.5 78.9 211 83.1 208.7 87 216.6 88.1 216.7 98.5"/><polyline class="cls-1" points="175.8 94.5 182.9 95.5 181.1 99 207.9 102.9 208.1 114.6"/><line class="cls-1" x1="208.2" y1="102.5" x2="216.6" y2="88.1"/><line class="cls-1" x1="181.2" y1="99.5" x2="181.4" y2="102.7"/><polyline class="cls-1" points="158.1 78.8 158.6 87.8 162.8 80.9"/><polyline class="cls-1" points="126.4 103.7 127 103 127 98.2 129.7 93.4 127.1 93 128.5 90.6 123.3 89.8 129.7 78.7 155.7 82.6 153 87.3 161.1 88.5 161.2 93.9 164.2 90.1 164.4 92.5 159.9 99.6"/><line class="cls-1" x1="127" y1="98.2" x2="135.4" y2="99.6"/><line class="cls-1" x1="164.2" y1="90.1" x2="161.3" y2="89.8"/><line class="cls-5" x1="49.5" y1="166.3" x2="49.5" y2="167.5"/></g><g id="Lid_Tilted" data-name="Lid Tilted"><path class="cls-6" d="M147.0472,186.8464s-1.8-1.6-8.6-1.9-98.7-14.2-98.7-14.2l-.2-1.6-8-.8v-2.5s-4.5,0-3.2-3c0,0-1.8-3.6,1.6-4.4l3.6-1.6-.5,5.2,62.4-145.9,174,24.9.2,1.9s1.8-.3,1.8,2.2.2,7.6.2,7.6l-50.5,124s-1.6,6-.7,10.1l.7,13.1s-7.5,20.5-9.8,22.4c0,0-2.5,1.4-2.3-2.2l-1.4.8-2-.3,4.1-21,1.1-3-3.9,1.1-5.7-.8-4.3,3.8s-1.6,2.2-5.7,1.9l-11.6-.8-.9-1.1-7.1,7.4-2.7,1.6-.5-5.7s.6,4.7-20.1-4.5c0,0-2-3.2-1.6-9.5Z"/><polygon class="cls-1" points="211.2 190.7 34.9 163.1 97.9 17 271.9 42 271.6 43 272.2 43.2 211.7 190.3 211.2 190.7"/><polygon class="cls-1" points="39.4 157.4 42.4 150 215 175.7 212 183.4 39.4 157.4"/><path class="cls-1" d="M35.9,157.7a3.0394,3.0394,0,0,1-3.5,1.2,1.948,1.948,0,0,0-2.6,1.8v.2c-.4,1.6.4,1.5.4,1.5l3.3.6s.6-1.4-1.2-1.7-2.1-.4-2.1-.4"/><path class="cls-1" d="M30.8,164.7v.9s0,.8,1.7,1c1.5.2,9.3,1.5,9.3,1.5"/><line class="cls-1" x1="33.7" y1="166.9" x2="33.8" y2="177.2"/><path class="cls-1" d="M32.5,166.6l-1.6,3.5s-4.3,21.5-4.4,22.8"/><path class="cls-1" d="M38.5,174.9a14.7525,14.7525,0,0,0,.5-2.4,16.4548,16.4548,0,0,0,0-2.3c-.1-.8-1.2-1.2-1.2-1.2s-1.3-.3-1.8-.4a1.1006,1.1006,0,0,0-.9.3"/><line class="cls-1" x1="41.9" y1="170" x2="38.6" y2="169.4"/><path class="cls-1" d="M149.5,187.4c-.1-1-1.6-1.3-1.6-1.3l-106-15.2v-3.7l105.8,15.1s1.9.5,1.9,1.3-.8,10-.8,10a2.5457,2.5457,0,0,0,1.8,2.1c1.6.4,15.6,4.2,15.6,4.2a5.6308,5.6308,0,0,0,5-1.4c2-2.1,8.8-10.4,8.8-10.4a2.4688,2.4688,0,0,1,1.5-.5c.7.1,1.7.2,1.7.2s.8.2.3,1-5.9,6.7-5.9,6.7l-1.8,2.9-3.2,3.8s.1,1,1.4.7l6.8-7.8,2.7,1s1,.4,1.9-.9,7-7.7,7-7.7"/><path class="cls-1" d="M44.6,164.8l-2.8,2-9.6-1.7s-1.3-.2-1.4-.9.7-.7,1.4-.5c.7.3.9-.5.9-.5"/><path class="cls-1" d="M172.8,202.9l-1.6,2c-1.6,2-4.8,1.3-4.8,1.3l-4.8-1.3-2.3-1.2-10.1-5-.5-4.5"/><line class="cls-1" x1="171.1" y1="198.9" x2="171.2" y2="204.9"/><line class="cls-1" x1="166.4" y1="200.3" x2="166.4" y2="206.2"/><line class="cls-1" x1="150.6" y1="195.7" x2="150.5" y2="199.8"/><line class="cls-1" x1="147.6" y1="182.5" x2="147.5" y2="185.9"/><polyline class="cls-1" points="171.3 205.2 171.6 211.1 172.9 209.3"/><path class="cls-1" d="M172.6,203.4l-.2,5.3s.9.9,1.8.4c.1-.1.3-.2.4-.3,1-1.1,6.8-8.4,6.8-8.4v-.9l-.7-.3.1-4.1"/><line class="cls-1" x1="174" y1="202.9" x2="174.2" y2="209.2"/><polyline class="cls-1" points="183.9 195.8 187.3 191.4 186.7 186.8 183 190.8 183.6 194.9 180.5 193.9 173.5 202"/><polygon class="cls-1" points="163.8 200.9 163.8 203.7 161.5 201.6 163.8 200.9"/><path class="cls-1" d="M200.8,190.3l-6.1-1.3a1.932,1.932,0,0,0-2,1c-.9,1.3-5.1,5.5-5.1,5.5s-.5,1.1,1,1.4,6.2.5,6.2.5a2.6568,2.6568,0,0,0,2.5-1.2,30.0765,30.0765,0,0,1,4-4.3S202.5,190.5,200.8,190.3Z"/><path class="cls-1" d="M153.2,181.7l10.1,1.8,13.3,2.3s2.2.1.9,1.8-8.1,9.5-8.1,9.5-.5,1.8-3.2.8S152,194,152,194s-1.5.1-1.3-1.9.7-9.1.7-9.1S152.2,181.3,153.2,181.7Z"/><polyline class="cls-1" points="163.4 183.5 163.3 188.4 170 189.7 169.9 184.7"/><path class="cls-1" d="M182.3,195.7l-.6,1.4-.2.6-.1,3.8.6.9,12.9,1s3.3,0,3.8-1.7l4.8-4.2,6.1.7a4.2188,4.2188,0,0,1,3.8-.4v-3.5l-1.8-.9-8.1-.7a1.5626,1.5626,0,0,0-1.3.5c-.5.6-3.9,4-3.9,4a3.8856,3.8856,0,0,1-2.7,1.3c-.3,0-.6.1-.9.1-2.6,0-12.6-.9-12.6-.9l.2,4"/><line class="cls-1" x1="195" y1="203.2" x2="194.8" y2="198.6"/><line class="cls-1" x1="198.9" y1="201.9" x2="198.4" y2="197.2"/><line class="cls-1" x1="203.4" y1="192.7" x2="203.6" y2="197.5"/><ellipse class="cls-1" cx="164" cy="189.8" rx="9.3" ry="6.1"/><path class="cls-1" d="M272.5,43.3s1.1,0,1.3,1.9.2,7.5.2,7.5L225.2,173.1s-2.5,5.7-2.6,8.2,1,19.1,1,19.1-1.6,4.9-2.3,6.8-7.6,16.2-7.6,16.2H212l-.3-2.9"/><path class="cls-1" d="M213.5,223.4s2.1-13.1,0-13.3-3.2,11.7-3.2,11.7l-2.2-.5,3.8-20s.6-3,1.5-3.6l4.3.3v-3.2l-3.2-.3-1.1-.4,2.6-3.9,3.4.6v.5l.1,3.1-1.6,3.2"/><path class="cls-1" d="M214.3,197.9a11.5979,11.5979,0,0,0-1.3,2.6c-.3,1.1-3.3,16.7-3.3,16.7s.1,4.3.2,4.7"/><line class="cls-1" x1="217.7" y1="194.6" x2="219.4" y2="191.4"/><line class="cls-1" x1="213.8" y1="190.2" x2="273.7" y2="45.2"/><line class="cls-1" x1="211.7" y1="220.7" x2="210.6" y2="220.4"/><path class="cls-1" d="M107.6,21.7l15.3,2.9s5.1,1.7,3.9,5.9c-1.3,4.2-8.3,3.8-8.3,3.8L103,31.4s-6-2.1-4-6.6C100.9,20.2,107.6,21.7,107.6,21.7Z"/><path class="cls-1" d="M118.1,24.9s4.8.9,3.9,4.4-6.9,2.6-6.9,2.6S118.4,28.9,118.1,24.9Z"/><path class="cls-1" d="M117.3,25.5l-6.7-1.3-1.8-.3s-4.5-.6-5.6,2.4,3.9,4.4,3.9,4.4l.6.1,6.9,1.1"/><line class="cls-1" x1="110.3" y1="24.7" x2="107.6" y2="30.1"/><line class="cls-1" x1="112.4" y1="24.9" x2="109.5" y2="31"/><line class="cls-1" x1="113.5" y1="25" x2="110.7" y2="30.9"/><line class="cls-1" x1="112.3" y1="31.3" x2="115.3" y2="25"/><line class="cls-1" x1="116.3" y1="25.5" x2="113.3" y2="31.5"/><polygon class="cls-1" points="119.1 27.3 120.8 29 117.7 30 119.1 27.3"/><path class="cls-1" d="M250.5,52.1l-15.4-2.2s-5.2-1.4-4.1-5.7,8.2-4.1,8.2-4.1l15.6,2.2s6.1,1.8,4.2,6.4C257.2,53.3,250.5,52.1,250.5,52.1Z"/><path class="cls-1" d="M239.6,48.9s-4.8-.7-4-4.2,6.8-2.9,6.8-2.9S239.1,44.8,239.6,48.9Z"/><path class="cls-1" d="M240.5,48.9l6.8,1,1.8.3s4.5.4,5.6-2.7-4-4.2-4-4.2l-.6-.1-6.9-.8"/><line class="cls-1" x1="247.6" y1="49.4" x2="250" y2="43.8"/><line class="cls-1" x1="245.4" y1="49.3" x2="248.1" y2="43"/><line class="cls-1" x1="244.3" y1="49.2" x2="247" y2="43.2"/><line class="cls-1" x1="245.4" y1="42.8" x2="242.6" y2="49.3"/><line class="cls-1" x1="241.5" y1="48.9" x2="244.4" y2="42.7"/><polygon class="cls-1" points="238.5 46.5 236.8 44.9 239.8 43.8 238.5 46.5"/><path class="cls-1" d="M87.2,121.6l36.6-82.7s1.5-3.6,6.9-3.2c5.3.4,93.3,13,93.3,13s5.7.8,4.3,5.2-34.2,82.2-34.2,82.2-2.3,6.6-9.2,5.6c-6.4-.9-95.8-14.2-95.8-14.2S84.2,126.8,87.2,121.6Z"/><polygon class="cls-1" points="59.4 132.8 60.1 131.1 63.1 130.5 65.3 131.8 64.5 133.4 61.6 134.1 59.4 132.8"/><polygon class="cls-1" points="65.4 133.5 66.1 131.9 69.1 131.3 71.3 132.6 70.5 134.2 67.6 134.8 65.4 133.5"/><polygon class="cls-1" points="71.6 134.5 72.3 132.8 75.3 132.2 77.5 133.5 76.7 135.1 73.8 135.8 71.6 134.5"/><polygon class="cls-1" points="77.6 135.3 78.2 133.6 81.2 133 83.4 134.3 82.6 135.9 79.8 136.6 77.6 135.3"/><polygon class="cls-1" points="83.7 136.2 84.4 134.5 87.3 133.9 89.5 135.2 88.8 136.8 85.9 137.5 83.7 136.2"/><polygon class="cls-1" points="89.7 137 90.4 135.3 93.3 134.7 95.5 136 94.8 137.6 91.9 138.3 89.7 137"/><polygon class="cls-1" points="95.6 137.8 96.3 136.2 99.3 135.5 101.5 136.9 100.7 138.4 97.8 139.1 95.6 137.8"/><polygon class="cls-1" points="101.7 138.6 102.4 137 105.4 136.4 107.6 137.7 106.8 139.3 103.9 139.9 101.7 138.6"/><polygon class="cls-1" points="107.8 139.4 108.5 137.8 111.5 137.2 113.7 138.5 112.9 140.1 110 140.8 107.8 139.4"/><polygon class="cls-1" points="114.1 140.4 114.7 138.7 117.7 138.1 119.9 139.4 119.1 141 116.3 141.7 114.1 140.4"/><polygon class="cls-1" points="120 141.2 120.7 139.5 123.7 138.9 125.9 140.2 125.1 141.8 122.2 142.5 120 141.2"/><polygon class="cls-1" points="126.2 142 126.8 140.4 129.8 139.7 132 141.1 131.2 142.6 128.4 143.3 126.2 142"/><polygon class="cls-1" points="132.1 142.9 132.8 141.2 135.8 140.6 138 141.9 137.2 143.5 134.4 144.2 132.1 142.9"/><polygon class="cls-1" points="138.3 143.6 138.9 142 141.9 141.4 144.1 142.7 143.3 144.3 140.5 145 138.3 143.6"/><polygon class="cls-1" points="144.3 144.6 144.9 142.9 147.9 142.3 150.1 143.6 149.3 145.2 146.5 145.9 144.3 144.6"/><polygon class="cls-1" points="150.5 145.4 151.1 143.8 154.1 143.1 156.3 144.5 155.5 146 152.7 146.7 150.5 145.4"/><polygon class="cls-1" points="156.5 146.1 157.2 144.4 160.1 143.8 162.3 145.1 161.6 146.7 158.7 147.4 156.5 146.1"/><polygon class="cls-1" points="162.5 147 163.2 145.3 166.1 144.7 168.4 146 167.6 147.6 164.7 148.3 162.5 147"/><polygon class="cls-1" points="168.5 147.9 169.2 146.2 172.2 145.6 174.4 146.9 173.6 148.5 170.7 149.2 168.5 147.9"/><polygon class="cls-1" points="174.7 148.7 175.3 147.1 178.3 146.4 180.5 147.8 179.7 149.3 176.9 150 174.7 148.7"/><polygon class="cls-1" points="180.7 149.5 181.3 147.8 184.3 147.2 186.5 148.5 185.8 150.1 182.9 150.8 180.7 149.5"/><polygon class="cls-1" points="186.8 150.3 187.4 148.6 190.4 148 192.6 149.3 191.8 150.9 189 151.6 186.8 150.3"/><polygon class="cls-1" points="193 151.2 193.6 149.5 196.6 148.9 198.8 150.2 198.1 151.8 195.2 152.5 193 151.2"/><polygon class="cls-1" points="199 152.1 199.6 150.4 202.6 149.8 204.8 151.1 204 152.7 201.2 153.4 199 152.1"/><polygon class="cls-1" points="205 152.9 205.7 151.3 208.6 150.6 210.8 152 210.1 153.6 207.2 154.2 205 152.9"/><polygon class="cls-1" points="214.4 151.4 211.7 152 211 153.6 212.7 154.6 214.4 151.4"/><polygon class="cls-1" points="60.9 136.5 61.5 134.9 64.5 134.2 66.7 135.6 65.9 137.1 63.1 137.8 60.9 136.5"/><polygon class="cls-1" points="56.9 136.9 59.8 136.3 60.6 134.7 59 133.7 56.9 136.9"/><polygon class="cls-1" points="66.9 137.3 67.5 135.6 70.5 135 72.7 136.3 71.9 137.9 69.1 138.6 66.9 137.3"/><polygon class="cls-1" points="73.1 138.2 73.7 136.6 76.7 136 78.9 137.3 78.1 138.9 75.3 139.5 73.1 138.2"/><polygon class="cls-1" points="79 139 79.7 137.4 82.6 136.8 84.8 138.1 84.1 139.7 81.2 140.4 79 139"/><polygon class="cls-1" points="85.1 139.9 85.8 138.3 88.8 137.7 91 139 90.2 140.6 87.3 141.2 85.1 139.9"/><polygon class="cls-1" points="91.1 140.7 91.8 139.1 94.8 138.5 97 139.8 96.2 141.4 93.3 142.1 91.1 140.7"/><polygon class="cls-1" points="97.1 141.6 97.7 139.9 100.7 139.3 102.9 140.6 102.1 142.2 99.3 142.9 97.1 141.6"/><polygon class="cls-1" points="103.1 142.4 103.8 140.7 106.8 140.1 109 141.4 108.2 143 105.3 143.7 103.1 142.4"/><polygon class="cls-1" points="109.3 143.2 109.9 141.5 112.9 140.9 115.1 142.2 114.3 143.8 111.5 144.5 109.3 143.2"/><polygon class="cls-1" points="115.5 144.1 116.1 142.5 119.1 141.9 121.3 143.2 120.5 144.8 117.7 145.4 115.5 144.1"/><polygon class="cls-1" points="121.4 144.9 122.1 143.3 125.1 142.6 127.3 143.9 126.5 145.5 123.7 146.2 121.4 144.9"/><polygon class="cls-1" points="127.6 145.8 128.3 144.1 131.3 143.5 133.5 144.8 132.7 146.4 129.8 147.1 127.6 145.8"/><polygon class="cls-1" points="133.6 146.6 134.2 145 137.2 144.4 139.4 145.7 138.6 147.3 135.8 147.9 133.6 146.6"/><polygon class="cls-1" points="139.7 147.4 140.4 145.7 143.4 145.1 145.6 146.4 144.8 148 141.9 148.7 139.7 147.4"/><polygon class="cls-1" points="145.7 148.3 146.4 146.6 149.4 146 151.6 147.3 150.8 148.9 147.9 149.6 145.7 148.3"/><polygon class="cls-1" points="151.9 149.2 152.5 147.5 155.5 146.9 157.7 148.2 157 149.8 154.1 150.5 151.9 149.2"/><polygon class="cls-1" points="157.9 149.8 158.6 148.2 161.6 147.6 163.8 148.9 163 150.5 160.1 151.2 157.9 149.8"/><polygon class="cls-1" points="163.9 150.7 164.6 149.1 167.6 148.5 169.8 149.8 169 151.4 166.1 152.1 163.9 150.7"/><polygon class="cls-1" points="169.9 151.6 170.6 149.9 173.6 149.3 175.8 150.6 175 152.2 172.1 152.9 169.9 151.6"/><polygon class="cls-1" points="176.1 152.5 176.8 150.8 179.8 150.2 182 151.5 181.2 153.1 178.3 153.8 176.1 152.5"/><polygon class="cls-1" points="182.1 153.2 182.8 151.6 185.8 151 188 152.3 187.2 153.9 184.3 154.5 182.1 153.2"/><polygon class="cls-1" points="188.2 154 188.9 152.3 191.9 151.7 194.1 153 193.3 154.6 190.4 155.3 188.2 154"/><polygon class="cls-1" points="194.4 154.9 195.1 153.3 198.1 152.7 200.3 154 199.5 155.6 196.6 156.3 194.4 154.9"/><polygon class="cls-1" points="200.4 155.8 201 154.2 204 153.5 206.2 154.9 205.5 156.4 202.6 157.1 200.4 155.8"/><polygon class="cls-1" points="206.4 156.7 207.1 155 210.1 154.4 212.3 155.7 211.5 157.3 208.6 158 206.4 156.7"/><polygon class="cls-1" points="56.2 139.3 56.9 137.6 59.9 137 62.1 138.3 61.3 139.9 58.4 140.6 56.2 139.3"/><polygon class="cls-1" points="62.2 140 62.9 138.4 65.9 137.8 68.1 139.1 67.3 140.7 64.4 141.3 62.2 140"/><polygon class="cls-1" points="68.4 141 69.1 139.3 72.1 138.7 74.3 140 73.5 141.6 70.6 142.3 68.4 141"/><polygon class="cls-1" points="74.4 141.8 75 140.1 78 139.5 80.2 140.8 79.4 142.4 76.6 143.1 74.4 141.8"/><polygon class="cls-1" points="80.5 142.7 81.2 141 84.1 140.4 86.3 141.7 85.6 143.3 82.7 144 80.5 142.7"/><polygon class="cls-1" points="86.5 143.5 87.2 141.8 90.1 141.2 92.3 142.5 91.6 144.1 88.7 144.8 86.5 143.5"/><polygon class="cls-1" points="92.4 144.3 93.1 142.7 96.1 142 98.3 143.4 97.5 144.9 94.6 145.6 92.4 144.3"/><polygon class="cls-1" points="98.5 145.1 99.2 143.5 102.1 142.9 104.4 144.2 103.6 145.8 100.7 146.4 98.5 145.1"/><polygon class="cls-1" points="104.6 145.9 105.3 144.3 108.3 143.7 110.5 145 109.7 146.6 106.8 147.3 104.6 145.9"/><polygon class="cls-1" points="110.8 146.9 111.5 145.2 114.5 144.6 116.7 145.9 115.9 147.5 113.1 148.2 110.8 146.9"/><polygon class="cls-1" points="116.8 147.7 117.5 146 120.5 145.4 122.7 146.7 121.9 148.3 119 149 116.8 147.7"/><polygon class="cls-1" points="123 148.5 123.6 146.9 126.6 146.2 128.8 147.6 128 149.1 125.2 149.8 123 148.5"/><polygon class="cls-1" points="128.9 149.4 129.6 147.7 132.6 147.1 134.8 148.4 134 150 131.2 150.7 128.9 149.4"/><polygon class="cls-1" points="135.1 150.1 135.7 148.5 138.7 147.9 140.9 149.2 140.1 150.8 137.3 151.5 135.1 150.1"/><polygon class="cls-1" points="141.1 151.1 141.7 149.4 144.7 148.8 146.9 150.1 146.1 151.7 143.3 152.4 141.1 151.1"/><polygon class="cls-1" points="147.3 151.9 147.9 150.3 150.9 149.6 153.1 151 152.3 152.5 149.5 153.2 147.3 151.9"/><polygon class="cls-1" points="153.3 152.6 154 150.9 156.9 150.3 159.1 151.6 158.4 153.2 155.5 153.9 153.3 152.6"/><polygon class="cls-1" points="159.3 153.5 160 151.8 162.9 151.2 165.2 152.5 164.4 154.1 161.5 154.8 159.3 153.5"/><polygon class="cls-1" points="165.3 154.4 166 152.7 169 152.1 171.2 153.4 170.4 155 167.5 155.7 165.3 154.4"/><polygon class="cls-1" points="171.5 155.2 172.1 153.6 175.1 152.9 177.3 154.3 176.5 155.8 173.7 156.5 171.5 155.2"/><polygon class="cls-1" points="177.5 156 178.1 154.3 181.1 153.7 183.3 155 182.5 156.6 179.7 157.3 177.5 156"/><polygon class="cls-1" points="183.6 156.8 184.2 155.1 187.2 154.5 189.4 155.8 188.6 157.4 185.8 158.1 183.6 156.8"/><polygon class="cls-1" points="189.8 157.7 190.4 156 193.4 155.4 195.6 156.7 194.9 158.3 192 159 189.8 157.7"/><polygon class="cls-1" points="195.7 158.6 196.4 156.9 199.4 156.3 201.6 157.6 200.8 159.2 198 159.9 195.7 158.6"/><polygon class="cls-1" points="201.8 159.4 202.5 157.8 205.4 157.1 207.6 158.5 206.9 160.1 204 160.7 201.8 159.4"/><polygon class="cls-1" points="211.2 157.9 208.5 158.5 207.8 160.1 209.5 161.1 211.2 157.9"/><polygon class="cls-1" points="57.7 142.7 58.4 141.1 61.4 140.4 63.6 141.8 62.8 143.3 59.9 144 57.7 142.7"/><polygon class="cls-1" points="54 143.2 56.9 142.5 57.7 140.9 55.8 139.8 54 143.2"/><polygon class="cls-1" points="63.7 143.5 64.4 141.8 67.4 141.2 69.6 142.5 68.8 144.1 65.9 144.8 63.7 143.5"/><polygon class="cls-1" points="69.9 144.4 70.6 142.8 73.6 142.2 75.8 143.5 75 145.1 72.1 145.7 69.9 144.4"/><polygon class="cls-1" points="75.9 145.2 76.5 143.6 79.5 143 81.7 144.3 80.9 145.9 78.1 146.6 75.9 145.2"/><polygon class="cls-1" points="82 146.1 82.6 144.5 85.6 143.9 87.8 145.2 87 146.8 84.2 147.4 82 146.1"/><polygon class="cls-1" points="88 146.9 88.6 145.3 91.6 144.7 93.8 146 93.1 147.6 90.2 148.3 88 146.9"/><polygon class="cls-1" points="93.9 147.8 94.6 146.1 97.6 145.5 99.8 146.8 99 148.4 96.1 149.1 93.9 147.8"/><polygon class="cls-1" points="100 148.6 100.7 146.9 103.6 146.3 105.8 147.6 105.1 149.2 102.2 149.9 100 148.6"/><polygon class="cls-1" points="106.1 149.4 106.8 147.7 109.8 147.1 112 148.4 111.2 150 108.3 150.7 106.1 149.4"/><polygon class="cls-1" points="112.3 150.3 113 148.7 116 148.1 118.2 149.4 117.4 151 114.5 151.7 112.3 150.3"/><polygon class="cls-1" points="118.3 151.1 119 149.5 121.9 148.8 124.2 150.2 123.4 151.7 120.5 152.4 118.3 151.1"/><polygon class="cls-1" points="124.5 152 125.1 150.3 128.1 149.7 130.3 151 129.5 152.6 126.7 153.3 124.5 152"/><polygon class="cls-1" points="130.4 152.8 131.1 151.2 134.1 150.6 136.3 151.9 135.5 153.5 132.6 154.1 130.4 152.8"/><polygon class="cls-1" points="136.6 153.6 137.2 151.9 140.2 151.3 142.4 152.6 141.6 154.2 138.8 154.9 136.6 153.6"/><polygon class="cls-1" points="142.6 154.5 143.2 152.8 146.2 152.2 148.4 153.5 147.6 155.1 144.8 155.8 142.6 154.5"/><polygon class="cls-1" points="148.7 155.4 149.4 153.7 152.4 153.1 154.6 154.4 153.8 156 150.9 156.7 148.7 155.4"/><polygon class="cls-1" points="154.8 156 155.4 154.4 158.4 153.8 160.6 155.1 159.9 156.7 157 157.4 154.8 156"/><polygon class="cls-1" points="160.8 156.9 161.5 155.3 164.4 154.7 166.6 156 165.9 157.6 163 158.3 160.8 156.9"/><polygon class="cls-1" points="166.8 157.8 167.5 156.2 170.4 155.5 172.7 156.8 171.9 158.4 169 159.1 166.8 157.8"/><polygon class="cls-1" points="173 158.7 173.6 157 176.6 156.4 178.8 157.7 178 159.3 175.2 160 173 158.7"/><polygon class="cls-1" points="179 159.4 179.6 157.8 182.6 157.2 184.8 158.5 184 160.1 181.2 160.7 179 159.4"/><polygon class="cls-1" points="185.1 160.2 185.7 158.5 188.7 157.9 190.9 159.2 190.1 160.8 187.3 161.5 185.1 160.2"/><polygon class="cls-1" points="191.3 161.1 191.9 159.5 194.9 158.9 197.1 160.2 196.3 161.8 193.5 162.5 191.3 161.1"/><polygon class="cls-1" points="197.2 162 197.9 160.4 200.9 159.7 203.1 161.1 202.3 162.6 199.4 163.3 197.2 162"/><polygon class="cls-1" points="203.3 162.9 203.9 161.2 206.9 160.6 209.1 161.9 208.4 163.5 205.5 164.2 203.3 162.9"/><polygon class="cls-1" points="53.3 145.3 53.9 143.7 56.9 143.1 59.1 144.4 58.3 146 55.5 146.7 53.3 145.3"/><polygon class="cls-1" points="59.3 146.1 59.9 144.5 62.9 143.8 65.1 145.2 64.3 146.7 61.5 147.4 59.3 146.1"/><polygon class="cls-1" points="65.5 147.1 66.1 145.4 69.1 144.8 71.3 146.1 70.5 147.7 67.7 148.4 65.5 147.1"/><polygon class="cls-1" points="71.4 147.9 72.1 146.2 75 145.6 77.3 146.9 76.5 148.5 73.6 149.2 71.4 147.9"/><polygon class="cls-1" points="77.5 148.8 78.2 147.1 81.2 146.5 83.4 147.8 82.6 149.4 79.7 150.1 77.5 148.8"/><polygon class="cls-1" points="83.5 149.6 84.2 147.9 87.2 147.3 89.4 148.6 88.6 150.2 85.7 150.9 83.5 149.6"/><polygon class="cls-1" points="89.5 150.4 90.1 148.7 93.1 148.1 95.3 149.4 94.5 151 91.7 151.7 89.5 150.4"/><polygon class="cls-1" points="95.5 151.2 96.2 149.6 99.2 148.9 101.4 150.3 100.6 151.8 97.8 152.5 95.5 151.2"/><polygon class="cls-1" points="101.7 152 102.3 150.4 105.3 149.7 107.5 151.1 106.7 152.7 103.9 153.3 101.7 152"/><polygon class="cls-1" points="107.9 153 108.5 151.3 111.5 150.7 113.7 152 113 153.6 110.1 154.3 107.9 153"/><polygon class="cls-1" points="113.9 153.7 114.5 152.1 117.5 151.5 119.7 152.8 118.9 154.4 116.1 155.1 113.9 153.7"/><polygon class="cls-1" points="120 154.6 120.7 152.9 123.7 152.3 125.9 153.6 125.1 155.2 122.2 155.9 120 154.6"/><polygon class="cls-1" points="126 155.5 126.6 153.8 129.6 153.2 131.8 154.5 131.1 156.1 128.2 156.8 126 155.5"/><polygon class="cls-1" points="132.1 156.2 132.8 154.6 135.8 154 138 155.3 137.2 156.9 134.3 157.5 132.1 156.2"/><polygon class="cls-1" points="138.1 157.1 138.8 155.5 141.8 154.9 144 156.2 143.2 157.8 140.3 158.5 138.1 157.1"/><polygon class="cls-1" points="144.3 158 145 156.3 147.9 155.7 150.1 157 149.4 158.6 146.5 159.3 144.3 158"/><polygon class="cls-1" points="150.3 158.7 151 157 154 156.4 156.2 157.7 155.4 159.3 152.5 160 150.3 158.7"/><polygon class="cls-1" points="156.3 159.6 157 157.9 160 157.3 162.2 158.6 161.4 160.2 158.5 160.9 156.3 159.6"/><polygon class="cls-1" points="162.3 160.4 163 158.8 166 158.2 168.2 159.5 167.4 161.1 164.6 161.8 162.3 160.4"/><polygon class="cls-1" points="168.5 161.3 169.2 159.6 172.2 159 174.4 160.3 173.6 161.9 170.7 162.6 168.5 161.3"/><polygon class="cls-1" points="174.5 162.1 175.2 160.4 178.2 159.8 180.4 161.1 179.6 162.7 176.7 163.4 174.5 162.1"/><polygon class="cls-1" points="180.6 162.8 181.3 161.2 184.3 160.6 186.5 161.9 185.7 163.5 182.8 164.2 180.6 162.8"/><polygon class="cls-1" points="186.8 163.8 187.5 162.1 190.5 161.5 192.7 162.8 191.9 164.4 189 165.1 186.8 163.8"/><polygon class="cls-1" points="192.8 164.6 193.4 163 196.4 162.4 198.6 163.7 197.9 165.3 195 166 192.8 164.6"/><polygon class="cls-1" points="198.8 165.5 199.5 163.8 202.5 163.2 204.7 164.5 203.9 166.1 201 166.8 198.8 165.5"/><polygon class="cls-1" points="208.2 164 205.5 164.6 204.9 166.2 206.5 167.2 208.2 164"/><polygon class="cls-1" points="223.8 172.2 223.5 170.3 223.9 167.5 224.5 167.3 224.8 169.8 223.8 172.2"/><polygon class="cls-1" points="225.2 168.6 224.9 166.7 225.4 163.9 225.9 163.7 226.2 166.2 225.2 168.6"/><polygon class="cls-1" points="226.6 165 226.4 163.1 226.8 160.2 227.4 160.1 227.7 162.6 226.6 165"/><polygon class="cls-1" points="228 161.4 227.8 159.5 228.2 156.6 228.8 156.5 229.1 159 228 161.4"/><polygon class="cls-1" points="229.5 157.8 229.2 155.8 229.7 153 230.2 152.9 230.5 155.4 229.5 157.8"/><polygon class="cls-1" points="230.9 154.2 230.7 152.2 231.1 149.4 231.7 149.3 232 151.8 230.9 154.2"/><polygon class="cls-1" points="232.3 150.5 232.1 148.6 232.5 145.8 233.1 145.7 233.4 148.2 232.3 150.5"/><polygon class="cls-1" points="233.8 146.9 233.5 145 233.9 142.2 234.5 142 234.8 144.6 233.8 146.9"/><polygon class="cls-1" points="235.2 143.3 235 141.4 235.4 138.6 236 138.4 236.3 140.9 235.2 143.3"/><polygon class="cls-1" points="236.6 139.7 236.4 137.8 236.8 135 237.4 134.8 237.7 137.3 236.6 139.7"/><polygon class="cls-1" points="238.1 136.1 237.8 134.2 238.2 131.4 238.8 131.2 239.1 133.7 238.1 136.1"/><polygon class="cls-1" points="239.5 132.5 239.3 130.6 239.7 127.8 240.3 127.6 240.6 130.1 239.5 132.5"/><polygon points="243.7 33 242.1 35.2 240.6 30.4 248.4 26.5 246.8 28.7 258 30.1 257.9 30.2 254.9 34.4 254.2 34.4 243.7 33"/><polygon points="105.9 13.6 108.3 9.5 119.8 10.8 121.5 8.7 122.8 13.6 114.9 17.2 116.5 15.1 105.9 13.6"/><path class="cls-7" d="M171.5,39a16.18,16.18,0,0,0-6.7,4.8l-6.7-1.2,5.7,11.1,21.4-6.2-7-1.3a17.7309,17.7309,0,0,1,7-4.8Z"/><path class="cls-7" d="M171.5,39l2.8-.8a17.7843,17.7843,0,0,1,6.1,0l13.8,2.5a17.7843,17.7843,0,0,0-6.1,0l-3.7,1.1"/><path class="cls-7" d="M189.9,40.5a21.6059,21.6059,0,0,1,4.3.2,19.9908,19.9908,0,0,1,4.7,1.4Z"/><path class="cls-7" d="M191.2,44.6a11.2166,11.2166,0,0,0-2.8-3.1c.3.1,12.8,2.2,12.8,2.2,1.3,1,3.2,2.4,3.8,3.4l.7,1.4a5.06,5.06,0,0,1,.4,1.7l-13.7-2.5a14.5016,14.5016,0,0,0-.4-1.6Z"/><path d="M171.5,39a16.18,16.18,0,0,0-6.7,4.8l-6.7-1.2,5.7,11.1,21.4-6.2-7-1.3a17.7309,17.7309,0,0,1,7-4.8Z"/><path d="M171.5,39l2.8-.8a17.7843,17.7843,0,0,1,6.1,0l13.8,2.5a17.7843,17.7843,0,0,0-6.1,0l-3.7,1.1"/><path d="M189.9,40.5a21.6059,21.6059,0,0,1,4.3.2,19.9908,19.9908,0,0,1,4.7,1.4Z"/><path d="M191.2,44.6a11.2166,11.2166,0,0,0-2.8-3.1c.3.1,12.8,2.2,12.8,2.2,1.3,1,3.2,2.4,3.8,3.4l.7,1.4a5.06,5.06,0,0,1,.4,1.7l-13.7-2.5a14.5016,14.5016,0,0,0-.4-1.6Z"/><path class="cls-8" d="M154.3,59.8c-3.1-24.1,12.2-28.1,12.2-28.1l7.9.9-6.8-10-21,5.2,6.9,1.3s-12.8,12.2-2.9,30.3Z"/></g></svg>