<svg id="Layer_1" data-name="Layer 1" xmlns="http://www.w3.org/2000/svg" viewBox="0 0 290.417 216.25"><defs><style>.cls-1{fill:none;stroke-width:0.5px;}.cls-1,.cls-2{stroke:#000;stroke-linecap:round;stroke-linejoin:round;}.cls-2{stroke-width:2px;}</style></defs><g id="outline"><polygon class="cls-1" points="138.833 65.333 85.5 67.833 77.167 37.833 78 31.5 138 28.667 138 35.833 138.833 65.333"/><line class="cls-1" x1="77.167" y1="37.833" x2="137.667" y2="35.333"/><polygon class="cls-1" points="86.667 66.167 136.833 63.667 136.333 41.167 80.5 43.333 86.667 66.167"/><polygon class="cls-1" points="83 67.833 24.833 71.333 15.667 41.333 18.833 34.667 75.833 31.667 74.833 38.833 83 67.833"/><line class="cls-1" x1="16" y1="41.5" x2="74.5" y2="38.333"/><polygon class="cls-1" points="26 69 80.5 66.167 74.167 44 19.333 46.5 26 69"/><polyline class="cls-1" points="17.333 37.333 16.5 33.167 139.333 27.333 140.333 61 139 61.333"/><line class="cls-1" x1="2.667" y1="20.667" x2="289" y2="8.333"/><line class="cls-1" x1="0.25" y1="89" x2="286.583" y2="76.667"/><line class="cls-1" x1="2" y1="91.333" x2="288.333" y2="79"/><polyline class="cls-1" points="208.333 89.333 137.333 92.667 137.333 85.667"/><polyline class="cls-1" points="169.333 14 164.333 63.333 251.666 61.667 272.666 9.333"/><path class="cls-1" d="M2.333,110,60,111.667s7.833-.917,8.583,7.833l.75,6.5s.5,9,11.75,10,40.75,3.5,40.75,3.5,5.5,1.25,5.5-4.25v-5s.75-2-3-1.25c0,0-5-1-6.25-3.25l-12-38"/><path class="cls-1" d="M2.333,107.75l58,1.25s7.25.75,8,9.5"/><path class="cls-1" d="M78.333,94.75s-6.75,0-5.5,8,5,23,5,23a22.5926,22.5926,0,0,0,4.75,2.75c2.5,1,22,2.25,22,2.25s5.5.25,4.25-6.75-7.25-25.5-7.25-25.5-1.25-4.5-5.75-4.5S78.333,94.75,78.333,94.75Z"/><path class="cls-1" d="M69.583,127.75s1.25,11.25,13.75,12.5,36.25,3.75,36.25,3.75,9.25,3.25,9.25-7.5v-7l4.5-16s-8.25-21.25-5.25-26.75"/><polyline class="cls-1" points="132.833 86.75 130.833 98 150.583 128 151.583 131.75 162.333 150.5 143.583 93"/><path class="cls-1" d="M128.833,129.5l2.25,5.5,8.75-3.25a3.3,3.3,0,0,0,1.25-4.25c-1.37-3.013-1.152-4.069-7.75-14.333"/><path class="cls-1" d="M128.833,136.5l.667,1s1,2.334,3.833,1.167S141.666,135,141.666,135l5,7.5,2.5,2.334,1.667,3"/><polyline class="cls-1" points="136.667 118.667 149.167 137.834 150.333 137.5 158 149"/><path class="cls-1" d="M145,92.833,166.5,151.5s3.333,10.168,13.833,8.834l47.834-3.501"/><line class="cls-1" x1="229.333" y1="163" x2="184.833" y2="167.667"/><line class="cls-1" x1="2.167" y1="123.5" x2="69.333" y2="126"/><path class="cls-1" d="M102.167,142.5h-49.5S35.167,143.666,31,158.333,15.667,215.5,15.667,215.5"/><line class="cls-1" x1="128.5" y1="141.333" x2="144.667" y2="140.5"/><path class="cls-1" d="M146.167,215.834,147,205s-.5-6.167.333-7-1.833-7.666-2.333-8.833-5.833-21.667-5.833-21.667a25.64,25.64,0,0,1-1.333-11.333s3-.834,5-6.167c0,0,8.667-6.333,21.667,4.167,0,0,39.834,19.333,46.167,58.333L212,216"/><path class="cls-1" d="M288.833,81.333S272.999,80,266.833,85c0,0-3.666,2.5-16.166.833,0,0-19.833-1.667-26-.833a39.2594,39.2594,0,0,0-34.5,25.5s0,7.666-11.667,15.666c0,0-2.001,4.834-3.667,6.667L173.5,135a8.3312,8.3312,0,0,1,1.667,4.166S180.833,147.667,196.5,153c0,0,28.667,8.332,32-3.834,0,0,1.667,23.666,4.167,27.5,0,0,1.5,4,2.833,4.667,0,0,1.333,8.334.5,11.167,0,0-2.833,20.999-.833,23.166"/><path class="cls-1" d="M210.167,111.666s.834,27,25,41.667c0,0,10.5,6.167,17.5,5a41.7442,41.7442,0,0,0,10.333-2.5"/><path class="cls-1" d="M258,115s-2.499,33,6.667,42.5a97.9825,97.9825,0,0,1,25.5,32.5"/><path class="cls-1" d="M202.666,93l-39.5,1.667s-8.333.001-5.5,8.334,16.667,44.666,16.667,44.666,1.167,3.5,8.667,3.167"/><line class="cls-1" x1="182.666" y1="150.833" x2="188.5" y2="150.166"/><path class="cls-1" d="M182.166,94.333S159.667,108.167,168,126c0,0,3.834,8.666,5.5,8.666"/><path class="cls-1" d="M137.833,156.334s9.333-2,10,.833c0,0,6.833,27.167,2.333,40l-2.833.833"/></g><g id="arrows"><polygon class="cls-2" points="90.448 155.028 111.274 155.028 111.274 159.521 118.323 155.45 125.37 151.381 118.323 147.313 111.274 143.243 111.274 147.623 90.448 147.623 90.448 155.028"/><polygon class="cls-2" points="225.37 140.735 204.544 140.735 204.544 136.243 197.495 140.313 190.448 144.383 197.495 148.45 204.544 152.521 204.544 148.141 225.37 148.141 225.37 140.735"/></g></svg>