<?xml version="1.0" encoding="utf-8"?>
<!-- Generator: Adobe Illustrator 19.1.0, SVG Export Plug-In . SVG Version: 6.00 Build 0)  -->
<svg version="1.1" id="Layer_5" xmlns="http://www.w3.org/2000/svg" xmlns:xlink="http://www.w3.org/1999/xlink" x="0px" y="0px"
	 width="65.7px" height="309.2px" viewBox="0 0 65.7 309.2" style="enable-background:new 0 0 65.7 309.2;" xml:space="preserve">
<style type="text/css">
	.st0{fill:none;stroke:#000000;stroke-width:0.5;stroke-linecap:round;stroke-linejoin:round;stroke-miterlimit:10;}
	.st1{fill:#FFFFFF;stroke:#000000;stroke-width:0.5;stroke-linecap:round;stroke-linejoin:round;stroke-miterlimit:10;}
	.st2{fill:none;stroke:#FFFFFF;stroke-linecap:round;stroke-linejoin:round;stroke-miterlimit:10;}
	.st3{fill:#FFFFFF;}
</style>
<g>
	<g>
		<polygon class="st0" points="21.5,15.4 19.4,15.1 20,26.7 31.5,29.2 31.5,17.6 		"/>
		<path class="st1" d="M20.2,17.8l1.9-2.3v-1.1c0,0-0.3-1.2,1-1c1.4,0.2,5.5,0.9,5.5,0.9s2.1-0.1,1.3,3l-1.1,1.8L20.2,17.8z"/>
		<path class="st1" d="M20,25.2c0-1.8,1.6-3.3,3.5-3.3s3.5,1.5,3.5,3.3c0,0.8-0.3,1.5-0.8,2.1"/>
		<polygon class="st1" points="22.1,26.8 29.8,28.3 29.7,30.8 22,29.5 		"/>
	</g>
	<g>
		<polygon class="st0" points="22.8,52.3 20.8,51.9 21.4,63.5 32.8,66 32.8,54.4 		"/>
		<path class="st1" d="M21.6,54.6l1.9-2.3v-1.1c0,0-0.3-1.2,1-1c1.4,0.2,5.5,0.9,5.5,0.9s2.1-0.1,1.3,3l-1.1,1.8L21.6,54.6z"/>
		<path class="st1" d="M21.4,62c0-1.8,1.6-3.3,3.5-3.3s3.5,1.5,3.5,3.3c0,0.8-0.3,1.5-0.8,2.1"/>
		<polygon class="st1" points="23.4,63.6 31.2,65.2 31,67.6 23.4,66.3 		"/>
	</g>
	<g>
		<polygon class="st0" points="23.2,73.3 21.1,72.9 21.7,84.5 33.2,87 33.2,75.4 		"/>
		<path class="st1" d="M21.9,75.6l1.9-2.3v-1.1c0,0-0.3-1.2,1-1c1.4,0.2,5.5,0.9,5.5,0.9s2.1-0.1,1.3,3l-1.1,1.8L21.9,75.6z"/>
		<path class="st1" d="M21.7,83c0-1.8,1.6-3.3,3.5-3.3s3.5,1.5,3.5,3.3c0,0.8-0.3,1.5-0.8,2.1"/>
		<polygon class="st1" points="23.8,84.6 31.5,86.1 31.4,88.6 23.7,87.3 		"/>
	</g>
	<g>
		<polygon class="st0" points="25.2,113.3 23.2,113 23.8,125.6 35.2,127.1 35.2,115.5 		"/>
		<path class="st1" d="M24,115.7l1.9-2.3v-1.1c0,0-0.3-1.2,1-1c1.4,0.2,5.5,0.9,5.5,0.9s2.1-0.1,1.3,3l-1.1,1.8L24,115.7z"/>
		<path class="st1" d="M23.8,123.8c0-1.8,1.6-3.3,3.5-3.3s3.5,1.5,3.5,3.3c0,0.8-0.3,1.5-0.8,2.1"/>
		<polygon class="st1" points="25.8,125.7 33.6,127.2 33.4,129.7 25.7,128.4 		"/>
	</g>
	<polygon class="st0" points="20.5,34.2 31.7,36.9 32.6,47.8 21,46 	"/>
	<polygon class="st0" points="23.2,93 34.3,94.4 34.3,106.9 23.2,105.5 	"/>
	<polygon class="st0" points="25.5,136.1 35.9,136.7 36.2,150.1 25.3,150 	"/>
	<polygon class="st0" points="25.9,157.4 36.5,157.8 37.2,170.9 26.1,170.7 	"/>
	<polygon class="st0" points="26.3,178.5 37.5,179 38.4,191.8 26.3,192 	"/>
	<polygon class="st0" points="26.9,200.5 38,200.2 38.9,214 27.4,214 	"/>
	<polygon class="st0" points="27.8,221.5 39,221.5 39.2,235 28.3,235.3 	"/>
	<polygon class="st0" points="28.5,244 39.7,243.7 40.1,257 28.8,257.3 	"/>
	<polygon class="st0" points="29,265.8 40.4,265.3 41,279.3 29.3,279.8 	"/>
	<polygon class="st0" points="29.3,288.5 41.3,287.8 41.9,302 29.5,303.9 	"/>
	<polyline class="st0" points="21.9,242.8 18.7,243.2 19.2,246.7 18,247.4 19,248.8 18.7,250 18.7,253.7 19.4,255.3 19,258.2 
		22.3,261.7 	"/>
	<polyline class="st0" points="17.4,114 14.6,114.3 15.1,117.3 14.1,117.8 14.9,119 14.6,120 14.6,123.1 15.2,124.4 14.9,126.9 
		17.6,129.9 	"/>
	<polyline class="st0" points="17.9,132 15.2,132.3 15.6,135.3 14.6,135.9 15.4,137 15.2,138 15.2,141.2 15.7,142.4 15.4,144.9 
		18.2,147.9 	"/>
	<line class="st0" x1="24.6" y1="307.6" x2="14.6" y2="1.4"/>
	<line class="st0" x1="49.6" y1="1.6" x2="65.5" y2="309"/>
	<polygon points="34,18 44.7,20.4 55.1,262.6 57.1,307.5 45.3,308.1 43.6,263.8 	"/>
	<line class="st2" x1="55.1" y1="263.1" x2="43.6" y2="263.8"/>
	<line class="st2" x1="52.5" y1="197.1" x2="41" y2="196.8"/>
	<line class="st2" x1="49.3" y1="133.6" x2="38.7" y2="132.6"/>
	<line class="st2" x1="46.9" y1="72.7" x2="36.3" y2="71.7"/>
	<g>
		<path class="st3" d="M39.3,44.2l0-1l-1.8-0.1l0-0.5l1.9-2.5l0.4,0l0,2.6l0.6,0l0,0.5l-0.6,0l0,1L39.3,44.2z M39.3,42.8l0-1.8
			L38,42.7L39.3,42.8z"/>
		<path class="st3" d="M43.6,43.9l0,0.5l-2.7-0.1c0-0.1,0-0.2,0.1-0.3c0.1-0.2,0.2-0.4,0.3-0.5c0.2-0.2,0.4-0.4,0.7-0.6
			c0.5-0.3,0.8-0.6,0.9-0.8c0.2-0.2,0.2-0.4,0.2-0.6c0-0.2-0.1-0.4-0.2-0.5c-0.1-0.1-0.3-0.2-0.6-0.2c-0.2,0-0.4,0-0.6,0.2
			c-0.1,0.1-0.2,0.3-0.2,0.6l-0.5-0.1c0-0.4,0.2-0.7,0.4-0.8c0.2-0.2,0.5-0.3,0.9-0.3c0.4,0,0.7,0.1,0.9,0.4
			c0.2,0.2,0.3,0.5,0.3,0.8c0,0.2,0,0.3-0.1,0.5c-0.1,0.2-0.2,0.3-0.3,0.5c-0.2,0.2-0.4,0.4-0.8,0.7c-0.3,0.2-0.5,0.4-0.6,0.5
			c-0.1,0.1-0.2,0.2-0.2,0.3L43.6,43.9z"/>
	</g>
	<g>
		<path class="st3" d="M41.5,101l0-1l-1.7-0.1l0-0.5l1.7-2.7l0.4,0l0,2.8l0.5,0l0,0.5l-0.5,0l0,1L41.5,101z M41.5,99.4l0-2l-1.2,1.9
			L41.5,99.4z"/>
		<path class="st3" d="M44.8,101.1l-0.5,0l0-3.4c-0.1,0.1-0.3,0.2-0.4,0.3c-0.2,0.1-0.4,0.2-0.5,0.3l0-0.5c0.3-0.1,0.5-0.3,0.7-0.5
			c0.2-0.2,0.3-0.4,0.4-0.6l0.3,0L44.8,101.1z"/>
	</g>
	<g>
		<path class="st3" d="M44.2,162.8l0-1l-1.7-0.1l0-0.5l1.7-2.7l0.4,0l0,2.8l0.5,0l0,0.5l-0.5,0l0,1L44.2,162.8z M44.2,161.3l0-2
			l-1.2,1.9L44.2,161.3z"/>
		<path class="st3" d="M45.7,160.7c0-0.5,0-0.9,0.1-1.2c0.1-0.3,0.2-0.5,0.4-0.7c0.2-0.2,0.4-0.2,0.7-0.2c0.2,0,0.4,0.1,0.5,0.2
			c0.2,0.1,0.3,0.2,0.4,0.4c0.1,0.2,0.2,0.4,0.2,0.7c0.1,0.3,0.1,0.6,0.1,1c0,0.5,0,0.9-0.1,1.2c-0.1,0.3-0.2,0.5-0.4,0.7
			c-0.2,0.2-0.4,0.2-0.7,0.2c-0.4,0-0.7-0.2-0.9-0.5C45.8,162.1,45.7,161.5,45.7,160.7z M46.1,160.7c0,0.7,0.1,1.2,0.2,1.4
			c0.2,0.2,0.3,0.4,0.6,0.4c0.2,0,0.4-0.1,0.5-0.3c0.1-0.2,0.2-0.7,0.2-1.4c0-0.7-0.1-1.2-0.2-1.4c-0.2-0.2-0.3-0.4-0.6-0.4
			c-0.2,0-0.4,0.1-0.5,0.3C46.2,159.5,46.1,160,46.1,160.7z"/>
	</g>
	<g>
		<path class="st3" d="M45.3,226.8l0.5-0.1c0.1,0.3,0.2,0.5,0.3,0.7c0.1,0.1,0.3,0.2,0.5,0.2c0.2,0,0.4-0.1,0.6-0.2
			c0.2-0.2,0.2-0.4,0.2-0.6c0-0.2-0.1-0.4-0.2-0.6c-0.1-0.2-0.3-0.2-0.5-0.3c-0.1,0-0.2,0-0.3,0l0-0.5c0,0,0.1,0,0.1,0
			c0.2,0,0.4,0,0.5-0.2c0.2-0.1,0.2-0.3,0.2-0.5c0-0.2-0.1-0.4-0.2-0.5c-0.1-0.1-0.3-0.2-0.5-0.2c-0.2,0-0.3,0.1-0.5,0.2
			c-0.1,0.1-0.2,0.3-0.2,0.6l-0.5-0.1c0.1-0.4,0.2-0.6,0.4-0.8c0.2-0.2,0.5-0.3,0.8-0.3c0.2,0,0.4,0.1,0.6,0.2
			c0.2,0.1,0.3,0.3,0.4,0.4c0.1,0.2,0.1,0.4,0.1,0.6c0,0.2,0,0.4-0.1,0.5c-0.1,0.1-0.2,0.3-0.4,0.4c0.2,0.1,0.4,0.2,0.5,0.4
			c0.1,0.2,0.2,0.4,0.2,0.7c0,0.4-0.1,0.7-0.4,0.9c-0.2,0.3-0.6,0.4-0.9,0.4c-0.3,0-0.6-0.1-0.9-0.4
			C45.5,227.4,45.3,227.1,45.3,226.8z"/>
		<path class="st3" d="M48.4,227l0.5,0c0,0.2,0.1,0.4,0.2,0.5c0.1,0.1,0.3,0.2,0.4,0.2c0.1,0,0.3,0,0.4-0.1c0.1-0.1,0.2-0.2,0.3-0.3
			c0.1-0.1,0.1-0.3,0.2-0.5c0-0.2,0.1-0.4,0.1-0.6c0,0,0-0.1,0-0.1c-0.1,0.2-0.2,0.3-0.4,0.4c-0.2,0.1-0.3,0.1-0.5,0.1
			c-0.3,0-0.6-0.2-0.8-0.4c-0.2-0.3-0.3-0.6-0.3-1c0-0.4,0.1-0.8,0.3-1c0.2-0.3,0.5-0.4,0.9-0.4c0.3,0,0.5,0.1,0.7,0.3
			c0.2,0.2,0.4,0.4,0.5,0.7c0.1,0.3,0.2,0.7,0.2,1.2c0,0.6,0,1-0.1,1.3c-0.1,0.3-0.3,0.6-0.5,0.7c-0.2,0.2-0.5,0.2-0.7,0.2
			c-0.3,0-0.6-0.1-0.7-0.3C48.5,227.6,48.4,227.4,48.4,227z M50.3,225.2c0-0.3-0.1-0.5-0.2-0.7c-0.1-0.2-0.3-0.3-0.5-0.3
			c-0.2,0-0.4,0.1-0.5,0.3c-0.2,0.2-0.2,0.4-0.2,0.7c0,0.3,0.1,0.5,0.2,0.7c0.2,0.2,0.3,0.3,0.6,0.3c0.2,0,0.4-0.1,0.5-0.2
			C50.2,225.7,50.3,225.5,50.3,225.2z"/>
	</g>
	<g>
		<path class="st3" d="M47.7,292l0.5-0.1c0.1,0.3,0.2,0.5,0.3,0.7c0.1,0.1,0.3,0.2,0.5,0.2c0.2,0,0.4-0.1,0.6-0.2
			c0.2-0.2,0.2-0.4,0.2-0.6c0-0.2-0.1-0.4-0.2-0.6c-0.1-0.2-0.3-0.2-0.5-0.3c-0.1,0-0.2,0-0.3,0l0-0.5c0,0,0.1,0,0.1,0
			c0.2,0,0.4,0,0.5-0.2c0.2-0.1,0.2-0.3,0.2-0.5c0-0.2-0.1-0.4-0.2-0.5c-0.1-0.1-0.3-0.2-0.5-0.2c-0.2,0-0.3,0.1-0.5,0.2
			c-0.1,0.1-0.2,0.3-0.2,0.6l-0.5-0.1c0.1-0.4,0.2-0.6,0.4-0.8c0.2-0.2,0.5-0.3,0.8-0.3c0.2,0,0.4,0.1,0.6,0.2
			c0.2,0.1,0.3,0.3,0.4,0.4c0.1,0.2,0.1,0.4,0.1,0.6c0,0.2,0,0.4-0.1,0.5c-0.1,0.1-0.2,0.3-0.4,0.4c0.2,0.1,0.4,0.2,0.5,0.4
			c0.1,0.2,0.2,0.4,0.2,0.7c0,0.4-0.1,0.7-0.4,0.9c-0.2,0.3-0.6,0.4-0.9,0.4c-0.3,0-0.6-0.1-0.9-0.4C47.9,292.7,47.7,292.4,47.7,292
			z"/>
		<path class="st3" d="M51.4,290.9c-0.2-0.1-0.3-0.2-0.4-0.4c-0.1-0.2-0.1-0.3-0.1-0.5c0-0.3,0.1-0.6,0.3-0.8
			c0.2-0.2,0.5-0.3,0.8-0.3c0.3,0,0.6,0.1,0.8,0.4c0.2,0.2,0.3,0.5,0.3,0.8c0,0.2,0,0.4-0.1,0.5c-0.1,0.1-0.2,0.3-0.4,0.3
			c0.2,0.1,0.4,0.2,0.5,0.4c0.1,0.2,0.2,0.4,0.2,0.7c0,0.4-0.1,0.7-0.3,0.9c-0.2,0.2-0.5,0.4-0.9,0.3c-0.4,0-0.7-0.2-0.9-0.4
			c-0.2-0.3-0.4-0.6-0.4-1c0-0.3,0.1-0.5,0.2-0.7C51,291.1,51.2,291,51.4,290.9z M51.2,292c0,0.2,0,0.3,0.1,0.4
			c0.1,0.1,0.2,0.3,0.3,0.3c0.1,0.1,0.3,0.1,0.4,0.1c0.2,0,0.4-0.1,0.6-0.2c0.1-0.2,0.2-0.4,0.2-0.6c0-0.3-0.1-0.5-0.2-0.6
			c-0.2-0.2-0.3-0.3-0.6-0.3c-0.2,0-0.4,0.1-0.6,0.2C51.3,291.6,51.2,291.8,51.2,292z M51.3,290c0,0.2,0.1,0.4,0.2,0.5
			c0.1,0.1,0.3,0.2,0.5,0.2c0.2,0,0.3-0.1,0.4-0.2c0.1-0.1,0.2-0.3,0.2-0.5c0-0.2-0.1-0.4-0.2-0.5s-0.3-0.2-0.5-0.2
			c-0.2,0-0.3,0.1-0.4,0.2C51.4,289.7,51.3,289.9,51.3,290z"/>
	</g>
	<line class="st0" x1="15.1" y1="12" x2="0.2" y2="27.5"/>
	<polyline class="st0" points="14.7,20.2 13.7,20.7 13.7,18.2 0.4,31.6 	"/>
	<path class="st0" d="M0.2,37.9l10.9-10.2l2.6,1.5c0,0-1.7,3.9,1.5,3.2"/>
	<ellipse transform="matrix(-0.9902 -0.1398 0.1398 -0.9902 12.5609 84.0213)" class="st0" cx="9.2" cy="41.6" rx="2.6" ry="5.1"/>
	<path class="st0" d="M27.8,8.2l-7.6-2.4c-0.9-0.3-1.4-1.2-1.1-2.1l0.7-2.3C20,0.5,21,0.1,21.9,0.3l7.6,2.4c0.9,0.3,1.4,1.2,1.1,2.1
		l-0.7,2.3C29.6,8,28.6,8.5,27.8,8.2z"/>
</g>
</svg>
